<?xml version="1.0" standalone="no"?><!DOCTYPE svg PUBLIC "-//W3C//DTD SVG 1.1//EN" "http://www.w3.org/Graphics/SVG/1.1/DTD/svg11.dtd"><svg t="1680138651392" class="icon" viewBox="0 0 1024 1024" version="1.1" xmlns="http://www.w3.org/2000/svg" p-id="8112" xmlns:xlink="http://www.w3.org/1999/xlink" width="48" height="48"><path d="M512 1024C229.229268 1024 0 794.770732 0 512S229.229268 0 512 0s512 229.229268 512 512-229.260488 512-512 512z m0.936585-944.187317c-239.157073 0-433.030244 193.701463-433.030244 432.65561s193.873171 432.65561001 433.030244 432.65560901S945.95122 751.422439 945.95122 512.468293 752.078049 79.812683 512.920976 79.812683z m173.611708 471.320976h-132.901464v134.977561a39.399024 39.399024 0 1 1-78.798049 0v-134.977561h-134.009756a39.27414601 39.27414601 0 1 1 0-78.54829301h134.009756v-148.760976a39.399024 39.399024 0 1 1 78.798049 0v148.760976h132.901464a39.27414601 39.27414601 0 1 1 0 78.54829301z" p-id="8113" fill="#00A5E6"></path></svg>