<?xml version="1.0" standalone="no"?><!DOCTYPE svg PUBLIC "-//W3C//DTD SVG 1.1//EN" "http://www.w3.org/Graphics/SVG/1.1/DTD/svg11.dtd"><svg t="1680160519504" class="icon" viewBox="0 0 1024 1024" version="1.1" xmlns="http://www.w3.org/2000/svg" p-id="21246" xmlns:xlink="http://www.w3.org/1999/xlink" width="48" height="48"><path d="M303.616 219.136h407.552c75.264 0 135.68 60.928 135.68 135.68v373.76c0 75.264-60.928 135.68-135.68 135.68H303.616c-75.264 0-135.68-60.928-135.68-135.68v-373.76c0-74.752 60.928-135.68 135.68-135.68z" fill="#CAE4FF" p-id="21247"></path><path d="M867.80928 966.12352h-720.896c-45.056 0-81.408-36.352-81.408-81.408v-720.384c0-45.056 36.352-81.408 81.408-81.408h493.056c14.336 0 26.112 11.776 26.112 26.112s-11.776 26.112-26.112 26.112h-493.056c-16.384 0-29.696 13.312-29.696 29.696v720.896c0 16.384 13.312 29.696 29.696 29.696h720.896c16.384 0 29.696-13.312 29.696-29.696v-493.568c0-14.336 11.776-26.112 26.112-26.112s26.112 11.776 26.112 26.112v492.544c-0.512 45.056-37.376 81.92-81.92 81.408z" fill="#00C5EA" p-id="21248" data-spm-anchor-id="a313x.7781069.0.i18" class=""></path><path d="M310.75328 754.66752c-9.216 0.512-17.92-3.072-24.576-9.216-8.192-9.216-11.264-22.016-8.704-33.792 1.536-9.216 4.096-17.92 7.168-27.136 8.192-23.04 17.408-45.056 27.648-67.072 18.432-42.496 41.984-82.432 70.656-118.784l384-384c43.52-39.424 110.08-35.84 149.504 7.168 36.352 40.448 36.352 101.888 0 142.336l-384 384c-33.28 25.6-69.12 47.616-107.008 65.024-35.328 19.968-74.24 33.792-114.688 41.472z m531.456-618.496c-14.336 0-28.16 5.632-38.4 15.872l-384 384c-22.016 28.672-40.448 59.904-54.784 92.672-11.264 22.016-20.992 44.544-29.696 68.096 23.04-8.704 46.08-18.432 68.096-29.696 32.768-14.848 64-33.28 92.672-54.784l384-384c20.992-20.992 20.992-55.296 0-76.288-10.24-10.24-24.064-16.384-37.888-15.872z" fill="#00C5EA" p-id="21249" data-spm-anchor-id="a313x.7781069.0.i16" class=""></path><path d="M785.37728 133.61152l113.152 113.152-36.864 36.864-113.152-113.152 36.864-36.864z m-349.184 349.184l113.152 113.152-36.864 36.864-113.152-113.152 36.864-36.864z" fill="#00C5EA" p-id="21250" data-spm-anchor-id="a313x.7781069.0.i17" class=""></path></svg>