<?xml version="1.0" standalone="no"?><!DOCTYPE svg PUBLIC "-//W3C//DTD SVG 1.1//EN" "http://www.w3.org/Graphics/SVG/1.1/DTD/svg11.dtd"><svg t="1680132578809" class="icon" viewBox="0 0 1024 1024" version="1.1" xmlns="http://www.w3.org/2000/svg" p-id="2796" xmlns:xlink="http://www.w3.org/1999/xlink" width="48" height="48"><path d="M855.466667 866.133333H183.466667C106.666667 866.133333 42.666667 804.266667 42.666667 725.333333V298.666667c0-76.8 64-140.8 140.8-140.8h672c76.8 0 140.8 64 140.8 140.8v426.666666c0 78.933333-64 140.8-140.8 140.8zM183.466667 221.866667C140.8 221.866667 106.666667 256 106.666667 298.666667v426.666666c0 42.666667 34.133333 76.8 76.8 76.8h672c42.666667 0 76.8-34.133333 76.8-76.8V298.666667c0-42.666667-34.133333-76.8-76.8-76.8H183.466667z" fill="#00A5E6" p-id="2797"></path><path d="M473.6 669.866667c-8.533333 0-19.2-2.133333-27.733333-6.4-19.2-10.666667-29.866667-29.866667-29.866667-49.066667v-202.666667c0-21.333333 10.666667-40.533333 29.866667-49.066666 19.2-10.666667 40.533333-8.533333 57.6 2.133333l160 100.266667c17.066667 10.666667 25.6 27.733333 25.6 49.066666s-10.666667 38.4-25.6 49.066667L503.466667 661.333333c-8.533333 6.4-19.2 8.533333-29.866667 8.533334z m6.4-247.466667v177.066667l140.8-89.6-140.8-87.466667z" fill="#00C5EA" p-id="2798" data-spm-anchor-id="a313x.7781069.0.i0" class=""></path></svg>