<?xml version="1.0" standalone="no"?><!DOCTYPE svg PUBLIC "-//W3C//DTD SVG 1.1//EN" "http://www.w3.org/Graphics/SVG/1.1/DTD/svg11.dtd"><svg t="1679190665833" class="icon" viewBox="0 0 1024 1024" version="1.1" xmlns="http://www.w3.org/2000/svg" p-id="1850" xmlns:xlink="http://www.w3.org/1999/xlink" width="48" height="48"><path d="M760.2176 803.84H509.0304c-56.3712 0-102.0416-45.6704-102.0416-102.0416V450.56c0-56.3712 45.6704-102.0416 102.0416-102.0416h251.1872c56.3712 0 102.0416 45.6704 102.0416 102.0416v251.1872c0.0512 56.3712-45.6704 102.0928-102.0416 102.0928z" fill="#FFE6D8" p-id="1851"></path><path d="M760.2176 803.84H509.0304c-56.3712 0-102.0416-45.6704-102.0416-102.0416V450.56c0-56.3712 45.6704-102.0416 102.0416-102.0416h251.1872c56.3712 0 102.0416 45.6704 102.0416 102.0416v251.1872c0.0512 56.3712-45.6704 102.0928-102.0416 102.0928z" fill="#EDFEFF" p-id="1852" data-spm-anchor-id="a313x.7781069.0.i17" class=""></path><path d="M862.3104 450.9696c0-12.0832-2.2016-23.6032-6.0416-34.4064-7.7312-1.8944-15.8208-2.8672-24.1152-2.8672h-250.4192c-56.576 0-102.4512 45.8752-102.4512 102.4512v250.4192c0 12.032 2.0992 23.552 5.888 34.2528 7.7824 1.8944 15.9232 3.0208 24.2688 3.0208h42.1376v-222.464c0-56.576 45.8752-102.4512 102.4512-102.4512h208.3328v-27.9552z" fill="#00A5E6" p-id="1853" data-spm-anchor-id="a313x.7781069.0.i12" class=""></path><path d="M862.3104 478.8736h-208.3328c-56.576 0-102.4512 45.8752-102.4512 102.4512V803.84h72.2944v-157.2864c0-56.576 45.8752-102.4512 102.4512-102.4512h136.0384V478.8736z" fill="#74E3EA" p-id="1854" data-spm-anchor-id="a313x.7781069.0.i13" class=""></path><path d="M726.272 544.1024c-56.576 0-102.4512 45.8752-102.4512 102.4512V803.84h72.2944v-92.1088c0-56.576 45.8752-102.4512 102.4512-102.4512h63.744v-65.1776h-136.0384z" fill="#8DF1F7" p-id="1855" data-spm-anchor-id="a313x.7781069.0.i16" class=""></path><path d="M479.2832 766.5664v-250.4192c0-56.576 45.8752-102.4512 102.4512-102.4512h250.4192c8.3456 0 16.384 1.1264 24.1664 2.9696-14.1312-39.68-51.9168-68.1984-96.4608-68.1984H509.44c-56.576 0-102.4512 45.8752-102.4512 102.4512v250.4192c0 48.2304 33.3824 88.576 78.2848 99.4304-3.84-10.6496-5.9904-22.1696-5.9904-34.2016z" fill="#1c90e3" p-id="1856" data-spm-anchor-id="a313x.7781069.0.i11" class=""></path><path d="M677.5808 915.1488c-12.8512 0-25.7024-3.6864-36.864-11.008l-133.4272-87.552H272.6912c-101.632 0-184.3712-82.688-184.3712-184.3712v-310.784c0-101.632 82.688-184.32 184.3712-184.32h484.608c101.632 0 184.3712 82.688 184.3712 184.3712v310.7328c0 101.632-82.688 184.3712-184.3712 184.3712h-12.4928v31.3344c0 24.7296-13.5168 47.36-35.2768 59.136-10.0352 5.4272-20.992 8.0896-31.9488 8.0896zM272.6912 219.0848c-56.4736 0-102.4512 45.9264-102.4512 102.4v310.784c0 56.4736 45.9264 102.4512 102.4512 102.4512h246.8864c7.9872 0 15.7696 2.3552 22.4768 6.7072l120.8832 79.3088v-45.056c0-22.6304 18.3296-40.96 40.96-40.96h53.4528c56.4736 0 102.4512-45.9264 102.4512-102.4512v-310.784c0-56.4736-45.9264-102.4512-102.4512-102.4512H272.6912z" fill="#373E51" p-id="1857"></path><path d="M662.8864 472.8832H366.08c-22.6304 0-40.96-18.3296-40.96-40.96s18.3296-40.96 40.96-40.96h296.7552c22.6304 0 40.96 18.3296 40.96 40.96s-18.2784 40.96-40.9088 40.96z" fill="#373E51" p-id="1858"></path><path d="M491.008 602.2656H366.08c-22.6304 0-40.96-18.3296-40.96-40.96s18.3296-40.96 40.96-40.96h124.928c22.6304 0 40.96 18.3296 40.96 40.96s-18.3296 40.96-40.96 40.96z" fill="#373E51" p-id="1859"></path></svg>