<?xml version="1.0" standalone="no"?><!DOCTYPE svg PUBLIC "-//W3C//DTD SVG 1.1//EN" "http://www.w3.org/Graphics/SVG/1.1/DTD/svg11.dtd"><svg t="1679407266045" class="icon" viewBox="0 0 1024 1024" version="1.1" xmlns="http://www.w3.org/2000/svg" p-id="14311" xmlns:xlink="http://www.w3.org/1999/xlink" width="48" height="48"><path d="M911.104 487.168c21.856-21.408 30.272-49.76 21.44-76.64-8.704-26.816-32.224-44.672-62.464-49.088l-198.56-28.992a23.136 23.136 0 0 0-4.512-3.424L578.24 148.384C564.736 120.864 540.352 104 512 104c-28.32 0-52.704 16.864-66.24 44.352l-88.8 180.768a21.696 21.696 0 0 0-4.48 3.328l-198.592 28.96c-30.24 4.48-53.664 22.336-62.4 49.152-8.864 26.784-0.448 55.136 21.44 76.608l143.68 140.608a27.552 27.552 0 0 0 1.856 5.632l-33.952 198.72c-5.12 30.304 4.704 58.24 27.712 74.88 11.904 8.544 25.92 12.992 40.64 12.992 13.056 0 26.336-3.52 38.912-10.176l177.6-93.76c-0.704 0.384 5.984 0.384 5.344 0.032l177.536 93.76c26.944 14.24 56.512 13.632 79.488-2.848 23.04-16.672 32.96-44.576 27.808-74.816l-33.92-198.656c0.032 0.384 2.112-6.08 1.824-5.824l102.88-100.64 40.8-39.904z m-32.512-35.392l-144.768 141.696c-10.976 10.784-18.176 33.088-15.552 48.192l33.92 198.592c2.208 12.992-1.152 22.464-8.544 27.808-7.328 5.248-17.408 5.44-28.992-0.64l-177.6-93.792c-13.376-7.04-36.736-7.04-50.08-0.032l-177.632 93.76c-5.92 3.136-11.52 4.64-16.512 4.64a20.896 20.896 0 0 1-12.544-3.968c-7.36-5.28-10.72-14.784-8.48-27.84l33.92-198.56c2.656-15.04-4.576-37.408-15.584-48.16l-143.68-140.608c-9.376-9.216-12.224-18.816-9.408-27.328 2.816-8.64 10.752-14.72 23.776-16.64l198.528-28.96c15.136-2.208 33.92-15.936 40.64-29.664l88.8-180.736c5.792-11.776 14.08-17.536 23.168-17.536 9.12 0 17.408 5.76 23.2 17.536l88.8 180.736c6.848 13.76 25.536 27.456 40.576 29.664l198.592 28.992c13.056 1.92 21.024 8 23.808 16.512 2.72 8.288 0.192 17.472-8.32 26.336z" fill="#bfbfbf" p-id="14312"></path></svg>