<?xml version="1.0" standalone="no"?><!DOCTYPE svg PUBLIC "-//W3C//DTD SVG 1.1//EN" "http://www.w3.org/Graphics/SVG/1.1/DTD/svg11.dtd"><svg t="1679334995756" class="icon" viewBox="0 0 1075 1024" version="1.1" xmlns="http://www.w3.org/2000/svg" p-id="20492" xmlns:xlink="http://www.w3.org/1999/xlink" width="50.390625" height="48"><path d="M184.7296 164.9664a56.8832 56.8832 0 0 0-56.9344 56.8832v568.8832a56.8832 56.8832 0 0 0 56.9344 56.9344H867.328a56.8832 56.8832 0 0 0 56.8832-56.9344V221.9008a56.8832 56.8832 0 0 0-56.8832-56.9344H184.7296z m0-113.7664H867.328a170.6496 170.6496 0 0 1 170.6496 170.6496v568.8832a170.6496 170.6496 0 0 1-170.6496 170.7008H184.7296a170.6496 170.6496 0 0 1-170.7008-170.7008V221.9008A170.6496 170.6496 0 0 1 184.7296 51.2z" fill="#498FC8" p-id="20493"></path><path d="M682.496 559.2064L500.4288 680.448a56.8832 56.8832 0 0 1-88.1664-47.2064v-240.64a56.8832 56.8832 0 0 1 88.1664-47.2576l182.0672 121.1904a56.8832 56.8832 0 0 1 0 94.464v-1.7408z" fill="#498FC8" p-id="20494"></path></svg>