<svg xmlns:xlink="http://www.w3.org/1999/xlink" viewBox="0 0 1296 722" height="722" width="1296" xmlns="http://www.w3.org/2000/svg" xmlns:ev="http://www.w3.org/2001/xml-events"><defs><linearGradient x1="0%" x2="0%" id="lg1" y1="0%" y2="100%"><stop offset="0.00" stop-opacity="0.87" stop-color="#e8f5ed"/><stop offset="0.65" stop-opacity="0.52" stop-color="#dff1e5"/><stop offset="0.96" stop-opacity="0.46" stop-color="#edf7f1"/></linearGradient><linearGradient x1="339" x2="-55" gradientUnits="userSpaceOnUse" id="lg2" y1="323" y2="95"><stop offset="0.00" stop-opacity="0.19" stop-color="#befff6"/><stop offset="0.65" stop-opacity="0.30" stop-color="#acfff4"/><stop offset="0.97" stop-opacity="0.51" stop-color="#acfff4"/></linearGradient><radialGradient r="259.0" fx="242" cx="242" gradientUnits="userSpaceOnUse" id="rg1" fy="94" cy="94"><stop offset="0.00" stop-opacity="0.56" stop-color="#b8e1ff"/><stop offset="0.65" stop-opacity="0.18" stop-color="#cee9ff"/><stop offset="1.00" stop-opacity="0.56" stop-color="#e9f5ff"/></radialGradient><linearGradient x1="373" x2="317" gradientUnits="userSpaceOnUse" id="lg3" y1="-56" y2="257"><stop offset="0.00" stop-opacity="0.13" stop-color="#baffc7"/><stop offset="0.65" stop-opacity="0.21" stop-color="#a2ffb5"/><stop offset="1.00" stop-opacity="0.50" stop-color="#a2ffb5"/></linearGradient><linearGradient x1="100%" x2="0%" id="lg4" y1="0%" y2="0%"><stop offset="0.00" stop-opacity="0.50" stop-color="#d2ddf2"/><stop offset="0.65" stop-opacity="0.43" stop-color="#dbe4f5"/><stop offset="1.00" stop-opacity="0.40" stop-color="#e4eaf7"/></linearGradient><linearGradient x1="257" x2="145" gradientUnits="userSpaceOnUse" id="lg5" y1="254" y2="-53"><stop offset="0.00" stop-opacity="0.60" stop-color="#c6f4ff"/><stop offset="0.65" stop-opacity="0.61" stop-color="#d8f7ff"/><stop offset="1.00" stop-opacity="0.42" stop-color="#e1f9ff"/></linearGradient><linearGradient x1="332" x2="127" gradientUnits="userSpaceOnUse" id="lg6" y1="-73" y2="282"><stop offset="0.00" stop-opacity="0.60" stop-color="#e5ddff"/><stop offset="0.65" stop-opacity="0.45" stop-color="#efeaff"/><stop offset="0.98" stop-opacity="0.36" stop-color="#f6f3ff"/></linearGradient></defs><g id="page1" transform="translate(5.5,5.5)"><rect height="712" y="0" fill="none" width="1286" x="0"/><g id="group1" transform="translate(91.508000,38.000000)"><path fill="url(#lg1)" d="M37.0,.0L292.0,.0C312.4,.0,329.0,16.6,329.0,37.0L329.0,172.0C329.0,192.4,312.4,209.0,292.0,209.0L37.0,209.0C16.6,209.0,.0,192.4,.0,172.0L.0,37.0C.0,16.6,16.6,.0,37.0,.0z" id="shape2" fill-rule="nonzero" transform="translate(298.000000,0.000000)"/><path fill="url(#lg2)" d="M37.0,.0L247.0,.0C267.4,.0,284.0,16.6,284.0,37.0L284.0,381.0C284.0,401.4,267.4,418.0,247.0,418.0L37.0,418.0C16.6,418.0,.0,401.4,.0,381.0L.0,37.0C.0,16.6,16.6,.0,37.0,.0z" id="shape3" fill-rule="nonzero"/><path fill="url(#rg1)" d="M37.0,.0L446.0,.0C466.4,.0,483.0,16.6,483.0,37.0L483.0,150.0C483.0,170.4,466.4,187.0,446.0,187.0L37.0,187.0C16.6,187.0,.0,170.4,.0,150.0L.0,37.0C.0,16.6,16.6,.0,37.0,.0z" id="shape4" fill-rule="nonzero" transform="translate(298.000000,231.000000)"/><path fill="url(#lg3)" d="M37.0,.0L653.0,.0C673.4,.0,690.0,16.6,690.0,37.0L690.0,164.0C690.0,184.4,673.4,201.0,653.0,201.0L37.0,201.0C16.6,201.0,.0,184.4,.0,164.0L.0,37.0C.0,16.6,16.6,.0,37.0,.0z" id="shape5" fill-rule="nonzero" transform="translate(0.000000,432.000000)"/><path fill="url(#lg4)" d="M37.0,.0L268.0,.0C288.4,.0,305.0,16.6,305.0,37.0L305.0,150.0C305.0,170.4,288.4,187.0,268.0,187.0L37.0,187.0C16.6,187.0,.0,170.4,.0,150.0L.0,37.0C.0,16.6,16.6,.0,37.0,.0z" id="shape6" fill-rule="nonzero" transform="translate(797.000000,231.000000)"/><path fill="url(#lg5)" d="M37.0,.0L365.0,.0C385.4,.0,402.0,16.6,402.0,37.0L402.0,164.0C402.0,184.4,385.4,201.0,365.0,201.0L37.0,201.0C16.6,201.0,.0,184.4,.0,164.0L.0,37.0C.0,16.6,16.6,.0,37.0,.0z" id="shape7" fill-rule="nonzero" transform="translate(700.000000,432.000000)"/><path fill="url(#lg6)" d="M37.0,.0L422.0,.0C442.4,.0,459.0,16.6,459.0,37.0L459.0,172.0C459.0,192.4,442.4,209.0,422.0,209.0L37.0,209.0C16.6,209.0,.0,192.4,.0,172.0L.0,37.0C.0,16.6,16.6,.0,37.0,.0z" id="shape8" fill-rule="nonzero" transform="translate(643.000000,0.000000)"/></g><path stroke-width="1" fill="#7ba9e1" d="M11.0,10.1L11.0,8.0C11.0,7.5,10.9,6.3,10.9,4.4L13.3,4.4C13.2,5.9,13.2,7.1,13.2,8.0L13.2,10.1L18.7,10.1C20.1,10.1,21.4,10.1,22.7,10.0L22.7,12.1C20.8,12.1,19.4,12.0,18.5,12.0L13.2,12.0L13.2,21.4C13.2,22.6,12.7,23.3,11.8,23.6C10.9,23.9,9.6,24.1,7.9,24.3C7.7,23.3,7.4,22.5,7.1,21.8C8.4,21.9,9.4,21.9,10.0,21.8C10.7,21.7,11.0,21.3,11.0,20.8L11.0,12.0L5.7,12.0C3.7,12.1,2.4,12.3,1.8,12.7C1.7,12.2,1.3,11.6,.7,10.9C1.3,10.4,1.7,9.9,2.0,9.2C2.2,8.6,2.5,6.2,2.8,2.0C6.2,2.0,9.5,1.8,12.6,1.3C15.7,.9,18.0,.4,19.4,.0C19.9,1.1,20.4,1.9,20.8,2.3C18.5,2.6,15.8,2.9,12.9,3.2C10.0,3.4,7.3,3.7,5.0,3.8C4.6,6.8,4.3,8.9,4.1,10.1L11.0,10.1zM8.1,15.2C7.6,15.7,6.6,16.7,5.2,18.2C3.8,19.7,2.6,20.9,1.7,21.8C1.3,21.4,.8,20.9,.0,20.3C1.1,19.4,2.1,18.4,3.1,17.3C4.1,16.3,5.1,15.0,6.1,13.5C6.9,14.3,7.6,14.8,8.1,15.2zM17.0,14.1C18.0,15.0,19.1,16.0,20.0,16.9C21.0,17.9,22.0,18.9,23.1,19.9C22.1,20.6,21.4,21.2,21.1,21.6C20.1,20.4,18.2,18.4,15.5,15.7C15.9,15.4,16.4,14.8,17.0,14.1z" id="shape9" fill-rule="nonzero" transform="translate(157.577200,63.871100)" stroke="#94b6e0"/><g id="shape10" transform="translate(91.352400,107.000000)"><text xml:space="preserve" style="fill:#7ba9e1;font-family:微软雅黑;font-size:11.00pt;font-weight:bold"><tspan y="15.0" x="21.7">快乐（PA）</tspan></text></g><g id="shape11" transform="translate(117.126000,143.000000)"><text xml:space="preserve" style="fill:#379e90;font-family:微软雅黑;font-size:10.00pt;font-weight:bold"><tspan y="17.0" x="20.0">笑不活了</tspan></text></g><g id="shape12" transform="translate(249.126000,134.000000)"><text xml:space="preserve" style="fill:#379e90;font-family:微软雅黑;font-size:10.00pt;font-weight:bold"><tspan y="17.0" x="20.0">双厨狂喜</tspan></text></g><g id="shape13" transform="translate(268.126000,213.000000)"><text xml:space="preserve" style="fill:#379e90;font-family:微软雅黑;font-size:10.00pt;font-weight:bold"><tspan y="17.0" x="6.5">已经开始笑了</tspan></text></g><g id="shape14" transform="translate(105.126000,220.000000)"><text xml:space="preserve" style="fill:#379e90;font-family:微软雅黑;font-size:10.00pt;font-weight:bold"><tspan y="17.0" x="13.3">我愿称之为</tspan></text></g><g id="shape15" transform="translate(90.505500,275.121000)"><text xml:space="preserve" style="fill:#7ba9e1;font-family:微软雅黑;font-size:11.00pt;font-weight:bold"><tspan y="21.5" x="23.0">安心（PE）</tspan></text></g><g id="shape16" transform="translate(152.126000,313.000000)"><text xml:space="preserve" style="fill:#379e90;font-family:微软雅黑;font-size:10.00pt;font-weight:bold"><tspan y="17.0" x="33.5">华丽</tspan></text></g><g id="shape17" transform="translate(276.126000,313.000000)"><text xml:space="preserve" style="fill:#379e90;font-family:微软雅黑;font-size:10.00pt;font-weight:bold"><tspan y="17.0" x="33.5">服帖</tspan></text></g><g id="shape18" transform="translate(102.126000,358.000000)"><text xml:space="preserve" style="fill:#379e90;font-family:微软雅黑;font-size:10.00pt;font-weight:bold"><tspan y="17.0" x="33.5">太赞</tspan></text></g><g id="shape19" transform="translate(219.126000,358.000000)"><text xml:space="preserve" style="fill:#379e90;font-family:微软雅黑;font-size:10.00pt;font-weight:bold"><tspan y="17.0" x="33.5">划算</tspan></text></g><g id="shape20" transform="translate(152.126000,403.000000)"><text xml:space="preserve" style="fill:#379e90;font-family:微软雅黑;font-size:10.00pt;font-weight:bold"><tspan y="17.0" x="33.5">精致</tspan></text></g><g id="shape21" transform="translate(276.126000,403.000000)"><text xml:space="preserve" style="fill:#379e90;font-family:微软雅黑;font-size:10.00pt;font-weight:bold"><tspan y="17.0" x="33.5">显白</tspan></text></g><g id="shape22" transform="translate(178.126000,183.000000)"><text xml:space="preserve" style="fill:#379e90;font-family:微软雅黑;font-size:10.00pt;font-weight:bold"><tspan y="17.0" x="20.0">梦幻联动</tspan></text></g><path stroke-width="1" fill="#7ba9e1" d="M9.8,18.8L8.4,20.2C7.5,19.4,6.6,18.6,5.8,17.8C4.6,19.6,3.1,21.2,1.1,22.7C.8,22.3,.4,21.7,.0,21.2C1.9,19.9,3.4,18.3,4.5,16.7C3.2,15.6,2.1,14.6,.9,13.6C1.5,11.7,2.0,9.3,2.5,6.7L.0,6.7L.0,4.9L2.8,4.9C3.0,3.4,3.3,1.8,3.5,.0L5.4,.3C5.1,2.0,4.8,3.5,4.6,4.9L9.0,4.9L9.0,6.5C8.7,10.7,7.9,14.0,6.7,16.2C7.8,17.1,8.8,17.9,9.8,18.8zM9.0,10.5L15.4,10.5L15.4,6.9C17.0,5.6,18.4,4.4,19.7,3.3L9.8,3.3L9.8,1.6L22.3,1.6L22.3,3.5C20.6,4.9,18.9,6.3,17.3,7.7L17.3,10.5L23.3,10.5L23.3,12.3L17.3,12.3L17.3,19.8C17.3,21.7,16.3,22.6,14.3,22.6C13.6,22.6,12.6,22.6,11.2,22.6C11.1,22.0,11.0,21.3,10.9,20.7C12.3,20.8,13.3,20.9,14.0,20.9C15.0,20.9,15.4,20.4,15.4,19.5L15.4,12.3L9.0,12.3L9.0,10.5zM7.2,6.7L4.3,6.7C3.7,9.7,3.2,11.8,2.8,13.1C3.7,13.8,4.5,14.4,5.3,15.1C6.4,12.9,7.0,10.1,7.2,6.7z" id="shape23" fill-rule="nonzero" transform="translate(159.501000,488.632800)" stroke="#94b6e0"/><g id="shape24" transform="translate(85.898500,520.931000)"><text xml:space="preserve" style="fill:#7ba9e1;font-family:微软雅黑;font-size:11.00pt;font-weight:bold"><tspan y="21.5" x="21.5">尊敬（PD）</tspan></text></g><g id="shape25" transform="translate(223.150500,476.500000)"><text xml:space="preserve" style="fill:#7ba9e1;font-family:微软雅黑;font-size:11.00pt;font-weight:bold"><tspan y="21.5" x="21.2">赞扬（PH）</tspan></text></g><g id="shape26" transform="translate(353.150500,488.500000)"><text xml:space="preserve" style="fill:#7ba9e1;font-family:微软雅黑;font-size:11.00pt;font-weight:bold"><tspan y="21.5" x="21.7">相信（PG）</tspan></text></g><g id="shape27" transform="translate(494.150500,476.500000)"><text xml:space="preserve" style="fill:#7ba9e1;font-family:微软雅黑;font-size:11.00pt;font-weight:bold"><tspan y="21.5" x="22.2">喜爱（PB）</tspan></text></g><g id="shape28" transform="translate(660.150500,483.500000)"><text xml:space="preserve" style="fill:#7ba9e1;font-family:微软雅黑;font-size:11.00pt;font-weight:bold"><tspan y="21.5" x="22.2">祝愿（PK）</tspan></text></g><g id="shape29" transform="translate(123.126000,603.000000)"><text xml:space="preserve" style="fill:#598d64;font-family:微软雅黑;font-size:10.00pt;font-weight:bold"><tspan y="17.0" x="20.0">献上膝盖</tspan></text></g><g id="shape30" transform="translate(98.138200,555.000000)"><text xml:space="preserve" style="fill:#598d64;font-family:微软雅黑;font-size:10.00pt;font-weight:bold"><tspan y="17.0" x="14.5">收下我的膝盖</tspan></text></g><g id="shape31" transform="translate(208.150500,528.000000)"><text xml:space="preserve" style="fill:#598d64;font-family:微软雅黑;font-size:10.00pt;font-weight:bold"><tspan y="17.0" x="20.5">这是什么神仙</tspan></text></g><g id="shape32" transform="translate(263.126000,571.000000)"><text xml:space="preserve" style="fill:#598d64;font-family:微软雅黑;font-size:10.00pt;font-weight:bold"><tspan y="17.0" x="20.0">盛世美颜</tspan></text></g><g id="shape33" transform="translate(234.126000,626.000000)"><text xml:space="preserve" style="fill:#598d64;font-family:微软雅黑;font-size:10.00pt;font-weight:bold"><tspan y="17.0" x="26.8">不愧是</tspan></text></g><g id="shape34" transform="translate(381.126000,555.000000)"><text xml:space="preserve" style="fill:#598d64;font-family:微软雅黑;font-size:10.00pt;font-weight:bold"><tspan y="17.0" x="6.8">让她/他/它恰</tspan></text></g><g id="shape35" transform="translate(353.126000,599.000000)"><text xml:space="preserve" style="fill:#598d64;font-family:微软雅黑;font-size:10.00pt;font-weight:bold"><tspan y="17.0" x="26.8">对对对</tspan></text></g><g id="shape36" transform="translate(403.126000,635.000000)"><text xml:space="preserve" style="fill:#598d64;font-family:微软雅黑;font-size:10.00pt;font-weight:bold"><tspan y="17.0" x="26.8">是我了</tspan></text></g><g id="shape37" transform="translate(487.126000,528.000000)"><text xml:space="preserve" style="fill:#598d64;font-family:微软雅黑;font-size:10.00pt;font-weight:bold"><tspan y="17.0" x="26.8">我可以</tspan></text></g><g id="shape38" transform="translate(494.126100,577.000000)"><text xml:space="preserve" style="fill:#598d64;font-family:微软雅黑;font-size:10.00pt;font-weight:bold"><tspan y="17.0" x="26.3">鬼知道我看了多少遍</tspan></text></g><g id="shape39" transform="translate(536.132300,620.000000)"><text xml:space="preserve" style="fill:#598d64;font-family:微软雅黑;font-size:10.00pt;font-weight:bold"><tspan y="17.0" x="24.5">绝美</tspan></text></g><g id="shape40" transform="translate(640.126000,528.000000)"><text xml:space="preserve" style="fill:#598d64;font-family:微软雅黑;font-size:10.00pt;font-weight:bold"><tspan y="17.0" x="20.0">借你吉言</tspan></text></g><g id="shape41" transform="translate(682.126000,571.000000)"><text xml:space="preserve" style="fill:#598d64;font-family:微软雅黑;font-size:10.00pt;font-weight:bold"><tspan y="17.0" x="20.0">早日康复</tspan></text></g><g id="shape42" transform="translate(661.126000,626.000000)"><text xml:space="preserve" style="fill:#598d64;font-family:微软雅黑;font-size:10.00pt;font-weight:bold"><tspan y="17.0" x="20.0">嘶哈嘶哈</tspan></text></g><path stroke-width="1" fill="#7ba9e1" d="M10.8,11.8L9.8,13.4C8.8,12.8,7.8,12.2,6.8,11.7C5.4,12.8,3.5,13.8,1.1,14.7C.9,14.2,.5,13.6,.2,13.1C2.3,12.5,4.0,11.8,5.3,10.8C3.9,10.1,2.5,9.5,1.1,8.9C1.7,7.5,2.3,6.1,2.8,4.5L.4,4.5L.4,2.9L3.4,2.9C3.6,2.0,3.9,1.0,4.2,.0L6.0,.4C5.7,1.3,5.4,2.1,5.1,2.9L10.6,2.9L10.6,4.5C10.1,6.9,9.3,8.9,8.1,10.4C9.0,10.9,9.9,11.3,10.8,11.8zM12.0,4.4L13.5,3.7C14.4,5.8,15.4,7.5,16.8,8.8C18.0,7.4,19.0,5.6,19.7,3.2L12.0,3.2L12.0,1.6L21.5,1.6L21.5,3.2C20.7,6.1,19.6,8.3,18.0,10.0C19.5,11.2,21.3,12.0,23.2,12.5C22.8,13.1,22.5,13.7,22.3,14.2C20.2,13.5,18.4,12.5,16.8,11.2C15.4,12.4,13.8,13.3,11.9,14.1C11.6,13.6,11.3,13.1,10.8,12.5C12.7,11.8,14.3,11.0,15.5,10.0C14.1,8.5,12.9,6.6,12.0,4.4zM5.9,15.5L7.7,15.5L7.7,19.7C7.7,20.7,8.3,21.2,9.5,21.2L13.4,21.2C14.9,21.2,15.7,20.8,15.8,20.0C15.9,19.4,16.1,18.5,16.3,17.3C16.8,17.5,17.4,17.7,18.1,18.0C17.9,18.9,17.7,19.8,17.5,20.6C17.1,22.1,15.9,22.8,13.9,22.8L9.2,22.8C7.0,22.8,5.9,21.8,5.9,19.9L5.9,15.5zM8.9,4.5L4.5,4.5C4.1,5.7,3.6,6.9,3.2,8.0C4.2,8.5,5.4,9.1,6.6,9.7C7.7,8.3,8.5,6.6,8.9,4.5zM2.3,15.5L4.0,16.1C3.4,18.1,2.6,20.0,1.7,21.7C1.3,21.4,.7,21.1,.0,20.8C.9,19.2,1.6,17.5,2.3,15.5zM18.9,15.9L20.4,15.1C21.4,16.7,22.2,18.3,23.0,19.9L21.2,20.8C20.4,19.0,19.7,17.4,18.9,15.9zM9.7,14.9L11.0,13.8C12.1,15.0,13.0,16.1,13.9,17.2L12.4,18.4C11.5,17.1,10.6,15.9,9.7,14.9z" id="shape43" fill-rule="nonzero" transform="translate(963.512700,288.597700)" stroke="#94b6e0"/><g id="shape44" transform="translate(890.150500,316.500000)"><text xml:space="preserve" style="fill:#7ba9e1;font-family:微软雅黑;font-size:11.00pt;font-weight:bold"><tspan y="21.5" x="20.2">愤怒（NA）</tspan></text></g><g id="shape45" transform="translate(910.126000,354.000000)"><text xml:space="preserve" style="fill:#5769bc;font-family:微软雅黑;font-size:10.00pt;font-weight:bold"><tspan y="17.0" x="20.0">突如其来</tspan></text></g><g id="shape46" transform="translate(1005.130000,376.000000)"><text xml:space="preserve" style="fill:#5769bc;font-family:微软雅黑;font-size:10.00pt;font-weight:bold"><tspan y="17.0" x="26.8">戏太足</tspan></text></g><g id="shape47" transform="translate(904.126000,413.000000)"><text xml:space="preserve" style="fill:#5769bc;font-family:微软雅黑;font-size:10.00pt;font-weight:bold"><tspan y="17.0" x="33.5">真狠</tspan></text></g><g id="shape48" transform="translate(1043.130000,419.000000)"><text xml:space="preserve" style="fill:#5769bc;font-family:微软雅黑;font-size:10.00pt;font-weight:bold"><tspan y="17.0" x="33.5">低配</tspan></text></g><g id="shape49" transform="translate(1051.130000,336.000000)"><text xml:space="preserve" style="fill:#5769bc;font-family:微软雅黑;font-size:10.00pt;font-weight:bold"><tspan y="17.0" x="20.0">闷闷不乐</tspan></text></g><path stroke-width="1" fill="#7ba9e1" d="M20.5,13.6L21.8,15.2C19.9,16.1,18.2,17.0,16.5,17.8C18.3,19.2,20.6,20.2,23.4,20.7C22.9,21.4,22.4,22.0,22.1,22.6C17.0,21.3,13.5,18.3,11.3,13.4C10.3,14.5,9.2,15.5,8.0,16.5L8.0,20.8C9.9,20.2,11.8,19.5,13.7,18.7C13.6,19.5,13.6,20.2,13.7,20.8C9.9,22.0,7.6,22.9,6.7,23.4L5.6,21.8C6.0,21.4,6.3,21.0,6.3,20.4L6.3,17.7C4.7,18.7,3.0,19.6,1.1,20.4C.8,19.8,.4,19.2,.0,18.7C3.7,17.4,6.8,15.5,9.3,13.1L4.9,13.1L4.9,14.1L3.2,14.1L3.2,6.4L20.3,6.4L20.3,13.7L18.5,13.7L18.5,13.1L13.0,13.1C13.6,14.4,14.4,15.6,15.3,16.7C16.9,15.9,18.6,14.9,20.5,13.6zM18.5,11.6L18.5,7.9L4.9,7.9L4.9,11.6L18.5,11.6zM.6,2.8L11.4,2.8C11.0,2.2,10.6,1.5,10.1,.9L11.6,.0C12.4,.9,13.0,1.7,13.4,2.3L12.5,2.8L22.9,2.8L22.9,4.4L.6,4.4L.6,2.8z" id="shape50" fill-rule="nonzero" transform="translate(455.430700,289.293000)" stroke="#94b6e0"/><path stroke-width="1" fill="#7ba9e1" d="M8.8,7.0L21.0,7.0L21.0,14.8L19.3,14.8L19.3,14.1L15.7,14.1L15.7,20.1C15.7,22.0,14.8,23.0,13.1,23.0C12.3,23.0,11.5,23.0,10.5,23.0C10.4,22.4,10.3,21.7,10.1,21.1C10.9,21.2,11.7,21.2,12.5,21.2C13.4,21.2,13.9,20.7,13.9,19.8L13.9,14.1L10.5,14.1L10.5,14.8L8.8,14.8L8.8,7.0zM19.3,8.6L10.5,8.6L10.5,12.5L19.3,12.5L19.3,8.6zM7.2,2.9L13.9,2.9C13.5,2.2,13.2,1.5,12.7,.7L14.4,.0C14.9,.9,15.4,1.9,15.9,2.9L22.9,2.9L22.9,4.6L7.2,4.6L7.2,2.9zM5.8,21.1C7.1,19.7,8.5,17.9,9.8,15.7L11.4,16.5C10.0,18.8,8.7,20.7,7.3,22.2C6.9,21.9,6.4,21.5,5.8,21.1zM17.9,16.6L19.3,15.7C20.8,17.6,22.1,19.4,23.3,21.1L21.7,22.2C20.4,20.2,19.2,18.3,17.9,16.6zM2.1,5.7C2.0,7.9,1.8,9.8,1.6,11.3C1.1,11.2,.5,11.1,.0,11.0C.3,9.2,.5,7.4,.6,5.6L2.1,5.7zM2.9,.3L4.6,.3L4.6,5.4L5.6,4.7C6.4,5.7,7.2,6.8,7.8,7.9L6.4,8.8C5.9,7.8,5.3,6.8,4.6,5.9L4.6,23.3L2.9,23.3L2.9,.3z" id="shape51" fill-rule="nonzero" transform="translate(868.501000,494.363300)" stroke="#94b6e0"/><g id="shape52" transform="translate(391.150500,314.500000)"><text xml:space="preserve" style="fill:#7ba9e1;font-family:微软雅黑;font-size:11.00pt;font-weight:bold"><tspan y="21.5" x="20.7">悲伤（NB）</tspan></text></g><g id="shape53" transform="translate(514.150500,288.500000)"><text xml:space="preserve" style="fill:#7ba9e1;font-family:微软雅黑;font-size:11.00pt;font-weight:bold"><tspan y="21.5" x="22.2">失望（NJ）</tspan></text></g><g id="shape54" transform="translate(634.150500,302.500000)"><text xml:space="preserve" style="fill:#7ba9e1;font-family:微软雅黑;font-size:11.00pt;font-weight:bold"><tspan y="21.5" x="27.0">疚（NH）</tspan></text></g><g id="shape55" transform="translate(755.150500,289.500000)"><text xml:space="preserve" style="fill:#7ba9e1;font-family:微软雅黑;font-size:11.00pt;font-weight:bold"><tspan y="21.5" x="30.5">思（PF）</tspan></text></g><g id="shape56" transform="translate(431.126000,354.000000)"><text xml:space="preserve" style="fill:#0099cd;font-family:微软雅黑;font-size:10.00pt;font-weight:bold"><tspan y="17.0" x="33.5">穷得</tspan></text></g><g id="shape57" transform="translate(395.126000,387.000000)"><text xml:space="preserve" style="fill:#0099cd;font-family:微软雅黑;font-size:10.00pt;font-weight:bold"><tspan y="17.0" x="26.8">买不起</tspan></text></g><g id="shape58" transform="translate(431.126000,421.000000)"><text xml:space="preserve" style="fill:#0099cd;font-family:微软雅黑;font-size:10.00pt;font-weight:bold"><tspan y="17.0" x="33.5">我错</tspan></text></g><g id="shape59" transform="translate(538.126000,336.000000)"><text xml:space="preserve" style="fill:#0099cd;font-family:微软雅黑;font-size:10.00pt;font-weight:bold"><tspan y="17.0" x="13.3">看不下去了</tspan></text></g><g id="shape60" transform="translate(517.126000,387.000000)"><text xml:space="preserve" style="fill:#0099cd;font-family:微软雅黑;font-size:10.00pt;font-weight:bold"><tspan y="17.0" x="33.5">快跑</tspan></text></g><g id="shape61" transform="translate(634.126000,376.000000)"><text xml:space="preserve" style="fill:#0099cd;font-family:微软雅黑;font-size:10.00pt;font-weight:bold"><tspan y="17.0" x="33.5">难受</tspan></text></g><g id="shape62" transform="translate(668.126000,336.000000)"><text xml:space="preserve" style="fill:#0099cd;font-family:微软雅黑;font-size:10.00pt;font-weight:bold"><tspan y="17.0" x="33.5">心疼</tspan></text></g><g id="shape63" transform="translate(668.126000,421.000000)"><text xml:space="preserve" style="fill:#0099cd;font-family:微软雅黑;font-size:10.00pt;font-weight:bold"><tspan y="17.0" x="33.5">冻死</tspan></text></g><g id="shape64" transform="translate(783.126000,347.000000)"><text xml:space="preserve" style="fill:#0099cd;font-family:微软雅黑;font-size:10.00pt;font-weight:bold"><tspan y="17.0" x="33.5">超凡</tspan></text></g><g id="shape65" transform="translate(760.126000,393.000000)"><text xml:space="preserve" style="fill:#0099cd;font-family:微软雅黑;font-size:10.00pt;font-weight:bold"><tspan y="17.0" x="33.5">不服</tspan></text></g><path stroke-width="1" fill="#7ba9e1" d="M6.2,15.4L9.0,15.4L9.0,1.1L20.7,1.1L20.7,15.4L23.4,15.4L23.4,16.9L6.2,16.9L6.2,15.4zM10.7,11.8L19.0,11.8L19.0,9.7L10.7,9.7L10.7,11.8zM10.7,8.2L19.0,8.2L19.0,6.1L10.7,6.1L10.7,8.2zM19.0,2.5L10.7,2.5L10.7,4.6L19.0,4.6L19.0,2.5zM10.7,15.4L19.0,15.4L19.0,13.2L10.7,13.2L10.7,15.4zM11.9,17.6L13.1,18.9C11.4,20.4,9.5,21.8,7.5,23.0C7.2,22.5,6.8,22.1,6.4,21.6C8.4,20.4,10.3,19.1,11.9,17.6zM16.4,18.8L17.5,17.6C19.4,18.9,21.3,20.2,23.0,21.5L21.8,22.9C20.0,21.4,18.2,20.0,16.4,18.8zM1.0,5.4L2.6,5.6C2.4,7.5,2.0,9.5,1.6,11.6C1.1,11.5,.6,11.4,.0,11.3C.4,9.6,.7,7.7,1.0,5.4zM5.0,5.4L6.0,4.8C6.8,5.8,7.6,6.8,8.3,7.7L6.9,8.7C6.3,7.7,5.7,6.8,5.0,6.0L5.0,22.9L3.4,22.9L3.4,.0L5.0,.0L5.0,5.4z" id="shape66" fill-rule="nonzero" transform="translate(455.418900,64.515600)" stroke="#94b6e0"/><g id="shape67" transform="translate(371.150500,95.500000)"><text xml:space="preserve" style="fill:#7ba9e1;font-family:微软雅黑;font-size:11.00pt;font-weight:bold"><tspan y="21.5" x="30.5">慌（NI）</tspan></text></g><g id="shape68" transform="translate(514.150500,58.500000)"><text xml:space="preserve" style="fill:#7ba9e1;font-family:微软雅黑;font-size:11.00pt;font-weight:bold"><tspan y="21.5" x="20.7">恐惧（NC）</tspan></text></g><g id="shape69" transform="translate(620.198500,85.500000)"><text xml:space="preserve" style="fill:#7ba9e1;font-family:微软雅黑;font-size:11.00pt;font-weight:bold"><tspan y="21.5" x="27.5">羞（NG）</tspan></text></g><g id="shape70" transform="translate(424.126000,127.000000)"><text xml:space="preserve" style="fill:#6e8882;font-family:微软雅黑;font-size:10.00pt;font-weight:bold"><tspan y="17.0" x="33.5">救命</tspan></text></g><g id="shape71" transform="translate(395.126000,167.000000)"><text xml:space="preserve" style="fill:#6e8882;font-family:微软雅黑;font-size:10.00pt;font-weight:bold"><tspan y="17.0" x="40.3">土</tspan></text></g><g id="shape72" transform="translate(446.126000,199.000000)"><text xml:space="preserve" style="fill:#6e8882;font-family:微软雅黑;font-size:10.00pt;font-weight:bold"><tspan y="17.0" x="26.8">救救我</tspan></text></g><g id="shape73" transform="translate(538.126000,104.000000)"><text xml:space="preserve" style="fill:#6e8882;font-family:微软雅黑;font-size:10.00pt;font-weight:bold"><tspan y="17.0" x="20.0">四脸惊恐</tspan></text></g><g id="shape74" transform="translate(517.126000,157.000000)"><text xml:space="preserve" style="fill:#6e8882;font-family:微软雅黑;font-size:10.00pt;font-weight:bold"><tspan y="17.0" x="13.3">支配的恐惧</tspan></text></g><g id="shape75" transform="translate(634.126000,137.000000)"><text xml:space="preserve" style="fill:#6e8882;font-family:微软雅黑;font-size:10.00pt;font-weight:bold"><tspan y="17.0" x="40.3">呆</tspan></text></g><g id="shape76" transform="translate(627.126000,195.000000)"><text xml:space="preserve" style="fill:#6e8882;font-family:微软雅黑;font-size:10.00pt;font-weight:bold"><tspan y="17.0" x="33.5">浮夸</tspan></text></g><path stroke-width="1" fill="#7ba9e1" d="M.4,9.9L7.7,9.9L7.7,1.6L1.3,1.6L1.3,.0L22.0,.0L22.0,1.6L15.2,1.6L15.2,9.9L23.0,9.9L23.0,11.6L.4,11.6L.4,9.9zM5.7,13.4L7.5,13.4L7.5,17.8C7.5,19.0,8.1,19.5,9.3,19.5L14.0,19.5C15.1,19.5,15.7,19.0,15.9,18.0C16.1,17.3,16.2,16.4,16.3,15.4C17.0,15.7,17.6,16.0,18.1,16.1C17.9,17.1,17.7,18.1,17.5,18.9C17.1,20.4,16.0,21.2,14.2,21.2L8.9,21.2C6.8,21.2,5.7,20.2,5.7,18.1L5.7,13.4zM9.5,9.9L13.4,9.9L13.4,1.6L9.5,1.6L9.5,9.9zM2.2,13.4L4.1,14.0C3.5,15.9,2.7,17.9,1.7,19.8C1.1,19.5,.5,19.2,.0,19.0C.9,17.1,1.7,15.3,2.2,13.4zM18.3,14.3L19.7,13.3C20.8,14.7,22.1,16.2,23.4,17.8L21.8,19.1C20.6,17.3,19.4,15.7,18.3,14.3zM16.4,7.6C17.7,6.0,18.9,4.4,19.8,2.9L21.4,3.9C20.4,5.4,19.2,7.0,17.9,8.7L16.4,7.6zM1.7,3.9L3.1,2.9C4.3,4.3,5.3,5.8,6.4,7.4L4.8,8.6C3.8,6.9,2.7,5.3,1.7,3.9zM9.6,12.9L11.0,11.9C12.3,13.3,13.3,14.5,14.1,15.4L12.5,16.6C11.8,15.6,10.8,14.3,9.6,12.9z" id="shape77" fill-rule="nonzero" transform="translate(804.430700,64.406200)" stroke="#94b6e0"/><g id="shape78" transform="translate(732.150500,97.500000)"><text xml:space="preserve" style="fill:#7ba9e1;font-family:微软雅黑;font-size:11.00pt;font-weight:bold"><tspan y="21.5" x="21.5">烦闷（NE）</tspan></text></g><g id="shape79" transform="translate(861.150500,57.500000)"><text xml:space="preserve" style="fill:#7ba9e1;font-family:微软雅黑;font-size:11.00pt;font-weight:bold"><tspan y="21.5" x="20.0">憎恶（ND）</tspan></text></g><g id="shape80" transform="translate(977.154500,71.500000)"><text xml:space="preserve" style="fill:#7ba9e1;font-family:微软雅黑;font-size:11.00pt;font-weight:bold"><tspan y="21.5" x="19.5">贬责（NN）</tspan></text></g><g id="shape81" transform="translate(1078.154500,58.500000)"><text xml:space="preserve" style="fill:#7ba9e1;font-family:微软雅黑;font-size:11.00pt;font-weight:bold"><tspan y="21.5" x="20.7">妒忌（NK）</tspan></text></g><g id="shape82" transform="translate(732.150500,157.500000)"><text xml:space="preserve" style="fill:#7ba9e1;font-family:微软雅黑;font-size:11.00pt;font-weight:bold"><tspan y="21.5" x="21.7">怀疑（NL）</tspan></text></g><g id="shape83" transform="translate(796.191600,127.000000)"><text xml:space="preserve" style="fill:#5769bc;font-family:微软雅黑;font-size:10.00pt;font-weight:bold"><tspan y="17.0" x="28.2">天</tspan></text></g><g id="shape84" transform="translate(897.126000,104.000000)"><text xml:space="preserve" style="fill:#5769bc;font-family:微软雅黑;font-size:10.00pt;font-weight:bold"><tspan y="17.0" x="33.5">乱创</tspan></text></g><g id="shape85" transform="translate(882.191600,152.000000)"><text xml:space="preserve" style="fill:#5769bc;font-family:微软雅黑;font-size:10.00pt;font-weight:bold"><tspan y="17.0" x="28.2">救</tspan></text></g><g id="shape86" transform="translate(909.638500,207.000000)"><text xml:space="preserve" style="fill:#5769bc;font-family:微软雅黑;font-size:10.00pt;font-weight:bold"><tspan y="17.0" x="27.7">淦</tspan></text></g><g id="shape87" transform="translate(984.130000,176.000000)"><text xml:space="preserve" style="fill:#5769bc;font-family:微软雅黑;font-size:10.00pt;font-weight:bold"><tspan y="17.0" x="13.3">还是太年轻</tspan></text></g><g id="shape88" transform="translate(1069.130000,207.000000)"><text xml:space="preserve" style="fill:#5769bc;font-family:微软雅黑;font-size:10.00pt;font-weight:bold"><tspan y="17.0" x="20.0">语无伦次</tspan></text></g><g id="shape89" transform="translate(1105.361600,152.000000)"><text xml:space="preserve" style="fill:#5769bc;font-family:微软雅黑;font-size:10.00pt;font-weight:bold"><tspan y="17.0" x="28.0">咋</tspan></text></g><g id="shape90" transform="translate(999.130000,127.000000)"><text xml:space="preserve" style="fill:#5769bc;font-family:微软雅黑;font-size:10.00pt;font-weight:bold"><tspan y="17.0" x="20.0">你礼貌吗</tspan></text></g><g id="shape91" transform="translate(1092.130000,97.000000)"><text xml:space="preserve" style="fill:#5769bc;font-family:微软雅黑;font-size:10.00pt;font-weight:bold"><tspan y="17.0" x="26.8">穿不起</tspan></text></g><g id="shape92" transform="translate(772.126000,195.000000)"><text xml:space="preserve" style="fill:#5769bc;font-family:微软雅黑;font-size:10.00pt;font-weight:bold"><tspan y="17.0" x="20.0">看不出来</tspan></text></g><g id="shape93" transform="translate(796.150500,527.500000)"><text xml:space="preserve" style="fill:#7ba9e1;font-family:微软雅黑;font-size:11.00pt;font-weight:bold"><tspan y="21.5" x="22.2">惊奇（PC）</tspan></text></g><g id="shape94" transform="translate(840.126000,571.000000)"><text xml:space="preserve" style="fill:#0099cd;font-family:微软雅黑;font-size:10.00pt;font-weight:bold"><tspan y="17.0" x="20.0">心脏骤停</tspan></text></g><g id="shape95" transform="translate(904.005300,635.000000)"><text xml:space="preserve" style="fill:#0099cd;font-family:微软雅黑;font-size:10.00pt;font-weight:bold"><tspan y="17.0" x="16.9">眼睛瞪得像铜铃</tspan></text></g><g id="shape96" transform="translate(977.130000,571.000000)"><text xml:space="preserve" style="fill:#0099cd;font-family:微软雅黑;font-size:10.00pt;font-weight:bold"><tspan y="17.0" x="20.0">前方高能</tspan></text></g><g id="shape97" transform="translate(1070.130000,610.000000)"><text xml:space="preserve" style="fill:#0099cd;font-family:微软雅黑;font-size:10.00pt;font-weight:bold"><tspan y="17.0" x="20.0">猝不及防</tspan></text></g><g id="shape98" transform="translate(1080.130000,531.000000)"><text xml:space="preserve" style="fill:#0099cd;font-family:微软雅黑;font-size:10.00pt;font-weight:bold"><tspan y="17.0" x="26.8">不至于</tspan></text></g><g id="shape99" transform="translate(928.126000,501.000000)"><text xml:space="preserve" style="fill:#0099cd;font-family:微软雅黑;font-size:10.00pt;font-weight:bold"><tspan y="17.0" x="26.8">好家伙</tspan></text></g><g id="group100" transform="translate(112.847800,56.721800)"><path fill="#fddf6d" d="M30.6,15.3C30.6,23.7,23.7,30.6,15.3,30.6C6.9,30.6,.0,23.7,.0,15.3C.0,6.9,6.8,.0,15.3,.0C23.7,.0,30.6,6.8,30.6,15.3zM30.6,15.3z" id="shape101" fill-rule="nonzero"/><path fill="#fcc56b" d="M18.6,26.6C10.1,26.6,3.3,19.8,3.3,11.3C3.3,6.8,5.2,2.8,8.3,.0C3.4,2.5,.0,7.7,.0,13.6C.0,22.0,6.8,28.9,15.3,28.9C19.2,28.9,22.8,27.4,25.5,25.0C23.4,26.0,21.1,26.6,18.6,26.6zM18.6,26.6z" id="shape102" fill-rule="nonzero" transform="translate(0.030100,1.654100)"/><path fill="#7f184c" d="M4.8,3.3C4.5,3.3,4.2,3.1,4.2,2.7C4.2,1.9,3.5,1.3,2.7,1.3C1.9,1.3,1.3,1.9,1.3,2.7C1.3,3.0,1.0,3.3,.6,3.3C.3,3.3,.0,3.1,.0,2.7C.0,1.2,1.2,.0,2.7,.0C4.2,.0,5.4,1.2,5.4,2.7C5.4,3.1,5.1,3.3,4.8,3.3zM15.3,3.3C14.9,3.3,14.6,3.1,14.6,2.7C14.6,1.9,14.0,1.3,13.2,1.3C12.4,1.3,11.7,1.9,11.7,2.7C11.7,3.0,11.5,3.3,11.1,3.3C10.8,3.3,10.5,3.1,10.5,2.7C10.5,1.2,11.7,.0,13.2,.0C14.6,.0,15.9,1.2,15.9,2.7C15.9,3.1,15.6,3.3,15.3,3.3zM15.3,3.3z" id="shape103" fill-rule="nonzero" transform="translate(9.924850,7.819550)"/><path fill="#ffffff" d="M8.0,8.0C3.6,8.0,.0,4.4,.0,.0L16.0,.0C16.0,4.4,12.4,8.0,8.0,8.0zM8.0,8.0z" id="shape104" fill-rule="nonzero" transform="translate(9.533840,18.406000)"/><path fill="#e6e6e6" d="M.0,.0C.2,.5,.5,.8,.8,1.2L13.7,1.2C14.0,.8,14.2,.4,14.4,.0L.0,.0zM.0,.0z" id="shape105" fill-rule="nonzero" transform="translate(10.315750,21.894759)"/><path fill="#f9a880" d="M2.0,.0C.9,.0,.0,.9,.0,2.0L4.1,2.0C4.1,.9,3.2,.0,2.0,.0zM19.9,.0C18.8,.0,17.9,.9,17.9,2.0L22.0,2.0C22.0,.9,21.1,.0,19.9,.0zM19.9,.0z" id="shape106" fill-rule="nonzero" transform="translate(6.706700,14.315740)"/><path fill="#fceb88" d="M3.6,.2C5.3,.7,6.4,1.8,6.2,2.8C5.9,3.7,4.3,4.1,2.6,3.6C.9,3.1,-0.2,2.0,.0,1.0C.3,.1,1.9,-0.3,3.6,.2zM3.6,.2z" id="shape107" fill-rule="nonzero" transform="translate(14.397260,2.453140)"/></g><g id="group108" transform="translate(903.787700,285.661700)"><path fill="#fc4c59" d="M30.7,15.3C30.7,23.8,23.8,30.7,15.3,30.7C6.9,30.7,.0,23.8,.0,15.3C.0,6.9,6.9,.0,15.3,.0C23.8,.0,30.7,6.9,30.7,15.3zM30.7,15.3z" id="shape109" fill-rule="nonzero"/><path fill="#bc3b4a" d="M18.6,26.7C10.2,26.7,3.3,19.9,3.3,11.4C3.3,6.9,5.3,2.8,8.4,.0C3.4,2.6,.0,7.7,.0,13.7C.0,22.1,6.9,29.0,15.3,29.0C19.3,29.0,22.9,27.5,25.6,25.1C23.5,26.1,21.1,26.7,18.6,26.7zM18.6,26.7z" id="shape110" fill-rule="nonzero" transform="translate(0.000000,1.684300)"/><path fill="#7c152e" d="M9.3,3.8C9.1,3.8,8.8,3.7,8.7,3.5C8.0,2.1,6.5,1.3,5.0,1.3C3.4,1.3,2.0,2.1,1.1,3.5C1.0,3.8,.6,3.9,.3,3.7C.0,3.5,-0.1,3.1,.1,2.9C1.1,1.1,3.0,.0,5.0,.0C7.0,.0,8.8,1.1,9.8,2.9C10.0,3.2,9.9,3.5,9.6,3.7C9.5,3.8,9.4,3.8,9.3,3.8zM9.3,3.8z" id="shape111" fill-rule="nonzero" transform="translate(15.155530,20.902230)"/><path fill="#ffffff" d="M3.4,2.2C3.4,3.1,2.7,3.9,1.7,3.9C.8,3.9,.0,3.1,.0,2.2C.0,1.2,.8,.5,1.7,.5C2.7,.5,3.4,1.2,3.4,2.2zM12.5,1.7C12.5,2.6,11.8,3.4,10.8,3.4C9.9,3.4,9.1,2.7,9.1,1.7C9.1,.8,9.9,.0,10.8,.0C11.8,.0,12.5,.8,12.5,1.7zM12.5,1.7z" id="shape112" fill-rule="nonzero" transform="translate(13.594020,12.842150)"/><path fill="#7c152e" d="M4.7,7.4C4.5,7.4,4.2,7.3,3.9,7.2C3.3,7.0,2.8,6.6,2.5,6.0C2.3,5.3,2.3,4.7,2.5,4.0C2.7,3.7,2.9,3.4,3.2,3.1C3.0,3.1,3.0,3.0,2.8,2.9C2.4,2.7,2.0,2.5,1.7,2.3C1.3,2.1,.9,1.8,.3,1.6C.0,1.4,-0.1,1.0,.1,.7C.2,.4,.6,.3,.9,.4C1.5,.7,1.9,1.0,2.4,1.3C2.7,1.5,3.0,1.6,3.4,1.8C3.7,2.0,3.9,2.1,4.2,2.2C5.2,2.8,6.2,3.2,6.8,3.7C6.8,3.8,6.9,3.9,7.0,3.9C7.2,4.5,7.3,5.2,7.0,5.8C6.8,6.4,6.4,6.9,5.7,7.1C5.4,7.3,5.1,7.4,4.7,7.4zM4.4,3.8C4.1,3.9,3.8,4.1,3.7,4.5C3.6,4.8,3.6,5.1,3.7,5.4C3.8,5.7,4.1,6.0,4.4,6.0C4.7,6.2,5.0,6.1,5.3,6.0C5.5,5.9,5.8,5.6,5.9,5.3C6.0,5.1,6.0,4.8,5.9,4.6C5.5,4.3,5.0,4.1,4.4,3.8zM13.9,6.9C13.6,6.9,13.2,6.9,12.9,6.7C12.3,6.4,11.9,6.0,11.6,5.3C11.4,4.7,11.4,4.1,11.7,3.5C11.7,3.4,11.8,3.3,11.9,3.3C12.6,2.8,13.4,2.3,14.5,1.8C16.1,1.0,16.2,1.0,17.5,.2L17.7,.1C18.0,-0.1,18.4,.0,18.5,.3C18.7,.6,18.6,1.0,18.3,1.1L18.1,1.3C17.0,1.9,16.7,2.1,15.6,2.6C15.8,2.8,16.0,3.1,16.1,3.4C16.4,4.1,16.4,4.8,16.1,5.5C15.9,6.1,15.4,6.5,14.8,6.8C14.5,6.9,14.2,6.9,13.9,6.9zM12.8,4.2C12.7,4.4,12.7,4.7,12.8,4.9C12.9,5.2,13.1,5.4,13.4,5.6C13.7,5.7,14.0,5.7,14.3,5.6C14.6,5.5,14.8,5.3,15.0,5.0C15.1,4.7,15.1,4.3,15.0,3.9C14.9,3.7,14.7,3.5,14.3,3.3C13.7,3.6,13.2,3.9,12.8,4.2zM12.8,4.2z" id="shape113" fill-rule="nonzero" transform="translate(10.611980,9.989400)"/><path fill="#f76b6b" d="M3.6,.2C5.3,.7,6.5,1.9,6.2,2.8C5.9,3.8,4.3,4.1,2.6,3.6C.9,3.2,-0.2,2.0,.0,1.0C.3,.1,1.9,-0.3,3.6,.2zM3.6,.2z" id="shape114" fill-rule="nonzero" transform="translate(15.118250,2.921150)"/></g><g id="group115" transform="translate(814.787700,492.661700)"><path fill="#fddf6d" d="M30.7,15.3C30.7,23.8,23.8,30.7,15.3,30.7C6.9,30.7,.0,23.8,.0,15.3C.0,6.9,6.9,.0,15.3,.0C23.8,.0,30.7,6.9,30.7,15.3zM30.7,15.3z" id="shape116" fill-rule="nonzero"/><path fill="#fcc56b" d="M18.6,26.7C10.1,26.7,3.3,19.9,3.3,11.4C3.3,6.9,5.2,2.8,8.4,.0C3.4,2.5,.0,7.7,.0,13.7C.0,22.1,6.9,29.0,15.3,29.0C19.3,29.0,22.9,27.5,25.6,25.1C23.5,26.1,21.1,26.7,18.6,26.7zM18.6,26.7z" id="shape117" fill-rule="nonzero" transform="translate(0.030100,1.684300)"/><path fill="#ffffff" d="M8.8,4.4C8.8,6.9,6.9,8.8,4.4,8.8C2.0,8.8,.0,6.9,.0,4.4C.0,2.0,2.0,.0,4.4,.0C6.9,.0,8.8,2.0,8.8,4.4zM17.9,4.4C17.9,6.0,16.7,7.2,15.1,7.2C13.6,7.2,12.4,6.0,12.4,4.4C12.4,2.9,13.6,1.7,15.1,1.7C16.6,1.7,17.9,2.9,17.9,4.4zM17.9,4.4z" id="shape118" fill-rule="nonzero" transform="translate(8.812030,6.165450)"/><path fill="#7f184c" d="M7.8,12.5C7.8,13.7,6.9,14.6,5.7,14.6C4.6,14.6,3.6,13.7,3.6,12.5C3.6,11.4,4.6,10.5,5.7,10.5C6.9,10.5,7.8,11.4,7.8,12.5zM2.5,1.2C2.5,1.9,1.9,2.5,1.2,2.5C.5,2.5,.0,1.9,.0,1.2C.0,.6,.6,.0,1.2,.0C1.9,.0,2.5,.5,2.5,1.2zM12.2,1.2C12.2,1.9,11.7,2.5,11.0,2.5C10.3,2.5,9.8,1.9,9.8,1.2C9.8,.6,10.3,.0,11.0,.0C11.7,.0,12.2,.5,12.2,1.2zM12.2,1.2z" id="shape119" fill-rule="nonzero" transform="translate(13.353400,9.353430)"/><path fill="#fceb88" d="M3.6,.2C5.3,.7,6.5,1.9,6.2,2.8C5.9,3.8,4.3,4.1,2.6,3.6C.9,3.2,-0.2,2.0,.0,1.0C.3,.1,1.9,-0.3,3.6,.2zM3.6,.2z" id="shape120" fill-rule="nonzero" transform="translate(15.779950,2.770770)"/></g><g id="group121" transform="translate(104.787700,484.661700)"><path fill="#fddf6d" d="M30.7,15.3C30.7,23.8,23.8,30.7,15.3,30.7C6.9,30.7,.0,23.8,.0,15.3C.0,6.9,6.9,.0,15.3,.0C23.8,.0,30.7,6.9,30.7,15.3zM30.7,15.3z" id="shape122" fill-rule="nonzero"/><path fill="#fcc56b" d="M18.6,26.7C10.1,26.7,3.3,19.9,3.3,11.4C3.3,6.9,5.2,2.8,8.4,.0C3.4,2.6,.0,7.7,.0,13.7C.0,22.2,6.9,29.0,15.3,29.0C19.3,29.0,22.9,27.5,25.6,25.1C23.5,26.1,21.1,26.7,18.6,26.7zM18.6,26.7z" id="shape123" fill-rule="nonzero" transform="translate(0.000000,1.654100)"/><path fill="#7f184c" d="M3.7,1.9C3.7,2.9,2.9,3.7,1.9,3.7C.8,3.7,.0,2.9,.0,1.9C.0,.8,.8,.0,1.9,.0C2.9,.0,3.7,.8,3.7,1.9zM14.3,1.9C14.3,2.9,13.4,3.7,12.4,3.7C11.4,3.7,10.5,2.9,10.5,1.9C10.5,.8,11.4,.0,12.4,.0C13.4,.0,14.3,.8,14.3,1.9zM14.3,1.9z" id="shape124" fill-rule="nonzero" transform="translate(10.827080,8.721840)"/><path fill="#f9a880" d="M2.1,.3C.9,.3,.0,1.2,.0,2.3L4.1,2.3C4.1,1.2,3.2,.3,2.1,.3zM20.1,.0C18.9,.0,18.0,.9,18.0,2.1L22.1,2.1C22.1,.9,21.2,.0,20.1,.0zM20.1,.0z" id="shape125" fill-rule="nonzero" transform="translate(6.676700,14.105270)"/><path fill="#7f184c" d="M4.1,3.3C2.4,3.3,.9,2.4,.1,.9C-0.1,.6,.0,.2,.3,.1C.6,-0.1,1.0,.0,1.2,.3C1.7,1.4,2.9,2.0,4.1,2.0C5.2,2.0,6.3,1.4,7.0,.3C7.2,.0,7.5,-0.1,7.8,.1C8.1,.3,8.2,.7,8.0,1.0C7.2,2.4,5.7,3.3,4.1,3.3zM4.1,3.3z" id="shape126" fill-rule="nonzero" transform="translate(14.140790,20.426520)"/><path fill="#fceb88" d="M3.6,.2C5.3,.7,6.5,1.9,6.2,2.8C5.9,3.8,4.3,4.1,2.6,3.6C.9,3.2,-0.2,2.0,.0,1.0C.3,.1,1.9,-0.3,3.6,.2zM3.6,.2z" id="shape127" fill-rule="nonzero" transform="translate(14.606950,2.319640)"/></g><g id="group128" transform="translate(753.150500,58.661654)"><path fill="#cdcdcd" d="M30.7,15.3C30.7,23.8,23.8,30.7,15.3,30.7C6.9,30.7,.0,23.8,.0,15.3C.0,6.9,6.9,.0,15.3,.0C23.8,.0,30.7,6.9,30.7,15.3zM30.7,15.3z" id="shape129" fill-rule="nonzero" transform="translate(0.000000,0.000000)"/><path fill="#bfbfbf" d="M18.6,26.7C10.1,26.7,3.3,19.9,3.3,11.4C3.3,6.9,5.2,2.8,8.4,.0C3.4,2.5,.0,7.7,.0,13.7C.0,22.1,6.9,29.0,15.3,29.0C19.3,29.0,22.9,27.5,25.6,25.1C23.5,26.1,21.1,26.7,18.6,26.7zM18.6,26.7z" id="shape130" fill-rule="nonzero" transform="translate(0.000000,1.684211)"/><path fill="#ffffff" d="M13.6,.0C13.6,1.1,14.5,2.1,15.6,2.1C16.8,2.1,17.7,1.1,17.7,.0L10.7,.0M2.9,.0C2.9,1.1,3.8,2.1,5.0,2.1C6.1,2.1,7.0,1.1,7.0,.0L.0,.0" id="shape131" fill-rule="nonzero" transform="translate(9.353383,10.586466)"/><path fill="#f9a880" d="M2.1,.3C.9,.3,.0,1.2,.0,2.3L4.1,2.3C4.1,1.2,3.2,.3,2.1,.3zM20.1,.0C18.9,.0,18.0,.9,18.0,2.1L22.1,2.1C22.1,.9,21.2,.0,20.1,.0zM20.1,.0z" id="shape132" fill-rule="nonzero" transform="translate(6.676692,14.135338)"/><path fill="#7f184c" d="M5.2,13.7C5.0,13.7,4.8,13.7,4.7,13.5C4.5,13.3,4.5,12.9,4.8,12.7C5.8,11.7,7.6,11.1,9.5,11.1C11.5,11.1,13.3,11.7,14.3,12.7C14.5,12.9,14.5,13.3,14.3,13.5C14.0,13.8,13.6,13.8,13.4,13.5C12.6,12.8,11.2,12.3,9.5,12.3C7.9,12.3,6.4,12.8,5.6,13.6C5.5,13.7,5.3,13.7,5.2,13.7zM18.3,.0L11.3,.0C11.0,.0,10.7,.3,10.7,.7C10.7,1.0,10.9,1.3,11.3,1.3L13.7,1.3C13.9,2.5,15.0,3.4,16.3,3.4C17.8,3.4,19.0,2.2,19.0,.7C19.0,.3,18.7,.0,18.3,.0zM16.3,2.1C15.7,2.1,15.2,1.8,14.9,1.3L17.6,1.3C17.4,1.8,16.8,2.1,16.3,2.1zM8.3,.6C8.3,.3,8.1,.0,7.7,.0L.6,.0C.3,.0,.0,.3,.0,.6C.0,1.0,.3,1.3,.6,1.3L3.0,1.3C3.2,2.5,4.3,3.3,5.6,3.3C7.1,3.3,8.3,2.1,8.3,.6zM4.3,1.3L6.9,1.3C6.7,1.7,6.2,2.1,5.6,2.1C5.0,2.1,4.5,1.8,4.3,1.3zM4.3,1.3z" id="shape133" fill-rule="nonzero" transform="translate(8.721805,9.954887)"/><path fill="#e6e6e6" d="M3.6,.2C5.3,.7,6.5,1.9,6.2,2.8C5.9,3.8,4.3,4.1,2.6,3.6C.9,3.2,-0.2,2.0,.0,1.0C.3,.1,1.9,-0.3,3.6,.2zM3.6,.2z" id="shape134" fill-rule="nonzero" transform="translate(15.088173,2.770770)"/></g><g id="group135" transform="translate(407.787708,284.661704)"><path fill="#75d1f6" d="M30.7,15.3C30.7,23.8,23.8,30.7,15.3,30.7C6.9,30.7,.0,23.8,.0,15.3C.0,6.9,6.9,.0,15.3,.0C23.8,.0,30.7,6.9,30.7,15.3zM30.7,15.3z" id="shape136" fill-rule="nonzero" transform="translate(0.000000,0.000000)"/><path fill="#7dc5eb" d="M18.6,26.7C10.1,26.7,3.3,19.9,3.3,11.4C3.3,6.9,5.2,2.8,8.4,.0C3.4,2.5,.0,7.7,.0,13.7C.0,22.1,6.9,29.0,15.3,29.0C19.3,29.0,22.9,27.5,25.6,25.1C23.5,26.1,21.1,26.7,18.6,26.7zM18.6,26.7z" id="shape137" fill-rule="nonzero" transform="translate(0.000000,1.684211)"/><path fill="#7f184c" d="M13.2,12.6L5.7,12.6C5.4,12.6,5.1,12.3,5.1,12.0C5.1,11.6,5.4,11.3,5.7,11.3L13.2,11.3C13.5,11.3,13.8,11.6,13.8,12.0C13.8,12.3,13.5,12.6,13.2,12.6zM4.1,6.2C2.6,6.2,1.2,5.8,.4,5.1C.1,4.9,.1,4.5,.3,4.3C.5,4.0,.9,4.0,1.2,4.2C1.7,4.6,2.9,4.9,4.0,4.9C5.2,4.9,6.3,4.6,7.0,4.2C7.2,4.0,7.6,4.0,7.8,4.3C8.0,4.6,8.0,5.0,7.7,5.2C6.9,5.8,5.5,6.2,4.1,6.2zM14.9,6.2C13.4,6.2,12.0,5.8,11.2,5.1C10.9,4.9,10.9,4.5,11.1,4.3C11.3,4.0,11.7,4.0,12.0,4.2C12.5,4.6,13.7,4.9,14.8,4.9C16.0,4.9,17.1,4.6,17.7,4.2C18.0,4.0,18.4,4.0,18.6,4.3C18.8,4.6,18.8,5.0,18.5,5.2C17.7,5.8,16.3,6.2,14.9,6.2zM1.1,3.0C.8,3.0,.6,3.0,.5,2.9C.1,2.8,-0.1,2.5,.0,2.1C.1,1.8,.5,1.6,.8,1.7C1.1,1.8,1.7,1.7,2.5,1.4C3.2,1.1,3.6,.6,3.8,.3C3.9,.0,4.3,-0.1,4.6,.1C4.9,.2,5.1,.6,4.9,.9C4.6,1.5,3.9,2.1,3.0,2.5C2.3,2.9,1.7,3.0,1.1,3.0zM17.7,3.0C17.1,3.0,16.4,2.9,15.8,2.6C14.9,2.2,14.2,1.6,13.9,.9C13.7,.6,13.8,.2,14.1,.1C14.4,-0.1,14.8,.1,15.0,.4C15.1,.7,15.6,1.1,16.3,1.4C17.0,1.8,17.7,1.8,18.0,1.7C18.3,1.7,18.6,1.8,18.7,2.2C18.8,2.5,18.7,2.8,18.3,3.0C18.1,3.0,17.9,3.0,17.7,3.0zM17.7,3.0z" id="shape138" fill-rule="nonzero" transform="translate(9.108658,12.777367)"/><path fill="#c8eaf7" d="M3.6,.2C5.3,.7,6.5,1.9,6.2,2.8C5.9,3.8,4.3,4.1,2.6,3.6C.9,3.2,-0.2,2.0,.0,1.1C.3,.1,1.9,-0.3,3.6,.2zM3.6,.2z" id="shape139" fill-rule="nonzero" transform="translate(14.847572,4.088536)"/></g><g id="group140" transform="translate(407.787708,59.661604)"><path fill="#8992c8" d="M30.7,15.3C30.7,23.8,23.8,30.7,15.3,30.7C6.9,30.7,.0,23.8,.0,15.3C.0,6.9,6.9,.0,15.3,.0C23.8,.0,30.7,6.9,30.7,15.3zM30.7,15.3z" id="shape141" fill-rule="nonzero"/><path fill="#7389c9" d="M18.6,26.7C10.1,26.7,3.3,19.9,3.3,11.4C3.3,6.9,5.2,2.8,8.4,.0C3.4,2.5,.0,7.7,.0,13.7C.0,22.1,6.9,29.0,15.3,29.0C19.3,29.0,22.9,27.5,25.6,25.1C23.5,26.1,21.1,26.7,18.6,26.7zM18.6,26.7z" id="shape142" fill-rule="nonzero" transform="translate(0.000000,1.654135)"/><path fill="#ffffff" d="M8.9,4.5C8.9,6.9,6.9,8.9,4.5,8.9C2.0,8.9,.0,6.9,.0,4.5C.0,2.0,2.0,.0,4.5,.0C6.9,.0,8.9,2.0,8.9,4.5zM21.4,4.5C21.4,6.9,19.4,8.9,16.9,8.9C14.5,8.9,12.5,6.9,12.5,4.5C12.5,2.0,14.5,.0,16.9,.0C19.4,.0,21.4,2.0,21.4,4.5zM21.4,4.5z" id="shape143" fill-rule="nonzero" transform="translate(8.210526,6.135338)"/><path fill="#224275" d="M2.5,1.2C2.5,1.9,1.9,2.5,1.2,2.5C.5,2.5,.0,1.9,.0,1.2C.0,.6,.6,.0,1.2,.0C1.9,-0.0,2.5,.5,2.5,1.2zM15.1,1.2C15.1,1.9,14.6,2.5,13.9,2.5C13.2,2.5,12.7,1.9,12.7,1.2C12.7,.6,13.2,.0,13.9,.0C14.6,-0.0,15.1,.5,15.1,1.2zM10.9,14.2C10.7,14.2,10.5,14.0,10.4,13.8C9.6,12.5,8.2,11.6,6.6,11.6C5.1,11.6,3.6,12.5,2.8,13.8C2.6,14.1,2.2,14.2,2.0,14.0C1.7,13.9,1.6,13.5,1.7,13.2C2.8,11.5,4.7,10.3,6.6,10.3C8.6,10.3,10.5,11.4,11.5,13.2C11.7,13.5,11.5,13.9,11.2,14.0C11.1,14.1,11.0,14.2,10.9,14.2zM10.9,14.2z" id="shape144" fill-rule="nonzero" transform="translate(12.210526,9.352248)"/><path fill="#87a7d6" d="M3.6,.2C5.3,.7,6.5,1.9,6.2,2.8C5.9,3.8,4.3,4.1,2.6,3.6C.9,3.2,-0.2,2.0,.0,1.0C.3,.1,1.9,-0.3,3.6,.2zM3.6,.2z" id="shape145" fill-rule="nonzero" transform="translate(14.456594,2.259492)"/></g></g></svg>