<svg xmlns:xlink="http://www.w3.org/1999/xlink" width="1200" height="721" viewBox="0 0 1200 721" xmlns:ev="http://www.w3.org/2001/xml-events" xmlns="http://www.w3.org/2000/svg"><defs><linearGradient y1="0%" x1="0%" y2="100%" id="lg1" x2="0%"><stop stop-opacity="0.50" stop-color="#c0fff6" offset="0.00"/><stop stop-opacity="0.50" stop-color="#acfff4" offset="0.65"/><stop stop-opacity="0.50" stop-color="#acfff4" offset="1.00"/></linearGradient><linearGradient y1="-17" x1="29" gradientUnits="userSpaceOnUse" y2="45" id="lg2" x2="65"><stop stop-opacity="0.50" stop-color="#b6ffc4" offset="0.00"/><stop stop-opacity="0.50" stop-color="#c0ffcc" offset="0.65"/><stop stop-opacity="0.30" stop-color="#e3ffe8" offset="1.00"/></linearGradient><linearGradient y1="-20" x1="35" gradientUnits="userSpaceOnUse" y2="48" id="lg3" x2="75"><stop stop-opacity="0.50" stop-color="#b6ffc4" offset="0.00"/><stop stop-opacity="0.50" stop-color="#c0ffcc" offset="0.65"/><stop stop-opacity="0.30" stop-color="#e3ffe8" offset="1.00"/></linearGradient><linearGradient y1="-23" x1="40" gradientUnits="userSpaceOnUse" y2="51" id="lg4" x2="82"><stop stop-opacity="0.50" stop-color="#b6ffc4" offset="0.00"/><stop stop-opacity="0.50" stop-color="#c0ffcc" offset="0.65"/><stop stop-opacity="0.30" stop-color="#e3ffe8" offset="1.00"/></linearGradient><linearGradient y1="-34" x1="59" gradientUnits="userSpaceOnUse" y2="62" id="lg5" x2="115"><stop stop-opacity="0.50" stop-color="#b6ffc4" offset="0.00"/><stop stop-opacity="0.50" stop-color="#c0ffcc" offset="0.65"/><stop stop-opacity="0.30" stop-color="#e3ffe8" offset="1.00"/></linearGradient><linearGradient y1="-13" x1="22" gradientUnits="userSpaceOnUse" y2="41" id="lg6" x2="54"><stop stop-opacity="0.50" stop-color="#b6ffc4" offset="0.00"/><stop stop-opacity="0.50" stop-color="#c0ffcc" offset="0.65"/><stop stop-opacity="0.30" stop-color="#e3ffe8" offset="1.00"/></linearGradient><linearGradient y1="-17" x1="29" gradientUnits="userSpaceOnUse" y2="45" id="lg7" x2="65"><stop stop-opacity="0.44" stop-color="#e4eaf7" offset="0.00"/><stop stop-opacity="0.62" stop-color="#d5e0f3" offset="0.65"/><stop stop-opacity="0.83" stop-color="#c4d3ef" offset="1.00"/></linearGradient><linearGradient y1="-17" x1="29" gradientUnits="userSpaceOnUse" y2="45" id="lg8" x2="65"><stop stop-opacity="0.50" stop-color="#c6e6ff" offset="0.00"/><stop stop-opacity="0.50" stop-color="#cee9ff" offset="0.65"/><stop stop-opacity="0.30" stop-color="#e9f5ff" offset="1.00"/></linearGradient><linearGradient y1="-17" x1="29" gradientUnits="userSpaceOnUse" y2="45" id="lg9" x2="65"><stop stop-opacity="0.88" stop-color="#e5f5f2" offset="0.00"/><stop stop-opacity="0.59" stop-color="#dbf1ec" offset="0.65"/><stop stop-opacity="0.11" stop-color="#f2faf8" offset="0.96"/></linearGradient><linearGradient y1="-12" x1="20" gradientUnits="userSpaceOnUse" y2="40" id="lg10" x2="50"><stop stop-opacity="0.90" stop-color="#e5ddff" offset="0.00"/><stop stop-opacity="0.78" stop-color="#efeaff" offset="0.65"/><stop stop-opacity="0.66" stop-color="#f6f3ff" offset="1.00"/></linearGradient><linearGradient y1="-17" x1="29" gradientUnits="userSpaceOnUse" y2="45" id="lg11" x2="65"><stop stop-opacity="0.90" stop-color="#e5ddff" offset="0.00"/><stop stop-opacity="0.78" stop-color="#efeaff" offset="0.65"/><stop stop-opacity="0.66" stop-color="#f6f3ff" offset="1.00"/></linearGradient><linearGradient y1="-11" x1="20" gradientUnits="userSpaceOnUse" y2="39" id="lg12" x2="49"><stop stop-opacity="0.90" stop-color="#e5ddff" offset="0.00"/><stop stop-opacity="0.78" stop-color="#efeaff" offset="0.65"/><stop stop-opacity="0.66" stop-color="#f6f3ff" offset="1.00"/></linearGradient><linearGradient y1="0%" x1="0%" y2="100%" id="lg13" x2="0%"><stop stop-opacity="0.50" stop-color="#d8f7ff" offset="0.00"/><stop stop-opacity="0.50" stop-color="#c2f3ff" offset="0.65"/><stop stop-opacity="0.50" stop-color="#a5efff" offset="1.00"/></linearGradient></defs><g transform="translate(5.5,5.5)" id="page1"><rect width="1190" x="0" y="0" height="711" fill="none"/><g transform="translate(43.632000,39.000000)" id="group1"><path stroke-width="1.333330035209656" stroke="#94b6e0" d="M.0,.0L345.0,.0L345.0,209.0L.0,209.0L.0,.0z" transform="translate(298.000000,0.000000)" fill="none" id="shape2"/><path stroke-width="1.333330035209656" stroke="#94b6e0" d="M.0,.0L298.0,.0L298.0,432.0L.0,432.0L.0,.0z" fill="none" id="shape3"/><path stroke-width="1.333330035209656" stroke="#94b6e0" d="M.0,.0L499.0,.0L499.0,223.0L.0,223.0L.0,.0z" transform="translate(298.000000,209.000000)" fill="none" id="shape4"/><path stroke-width="1.333330035209656" stroke="#94b6e0" d="M.0,.0L700.0,.0L700.0,201.0L.0,201.0L.0,.0z" transform="translate(0.000000,432.000000)" fill="none" id="shape5"/><path stroke-width="1.333330035209656" stroke="#94b6e0" d="M.0,.0L305.0,.0L305.0,223.0L.0,223.0L.0,.0z" transform="translate(797.000000,209.000000)" fill="none" id="shape6"/><path stroke-width="1.333330035209656" stroke="#94b6e0" d="M.0,.0L402.0,.0L402.0,201.0L.0,201.0L.0,.0z" transform="translate(700.000000,432.000000)" fill="none" id="shape7"/><path stroke-width="1.333330035209656" stroke="#94b6e0" d="M.0,.0L459.0,.0L459.0,209.0L.0,209.0L.0,.0z" transform="translate(643.000000,0.000000)" fill="none" id="shape8"/></g><path fill-rule="nonzero" stroke-width="1" stroke="#94b6e0" d="M11.0,10.1L11.0,8.0C11.0,7.5,10.9,6.3,10.9,4.4L13.3,4.4C13.2,5.9,13.2,7.1,13.2,8.0L13.2,10.1L18.7,10.1C20.1,10.1,21.4,10.1,22.7,10.0L22.7,12.1C20.8,12.1,19.4,12.0,18.5,12.0L13.2,12.0L13.2,21.4C13.2,22.6,12.7,23.3,11.8,23.6C10.9,23.9,9.6,24.1,7.9,24.3C7.7,23.3,7.4,22.5,7.1,21.8C8.4,21.9,9.4,21.9,10.0,21.8C10.7,21.7,11.0,21.3,11.0,20.8L11.0,12.0L5.7,12.0C3.7,12.1,2.4,12.3,1.8,12.7C1.7,12.2,1.3,11.6,.7,10.9C1.3,10.4,1.7,9.9,2.0,9.2C2.2,8.6,2.5,6.2,2.8,2.0C6.2,2.0,9.5,1.8,12.6,1.3C15.7,.9,18.0,.4,19.4,.0C19.9,1.1,20.4,1.9,20.8,2.3C18.5,2.6,15.8,2.9,12.9,3.2C10.0,3.4,7.3,3.7,5.0,3.8C4.6,6.8,4.3,8.9,4.1,10.1L11.0,10.1zM8.1,15.2C7.6,15.7,6.6,16.7,5.2,18.2C3.8,19.7,2.6,20.9,1.7,21.8C1.3,21.4,.8,20.9,.0,20.3C1.1,19.4,2.1,18.4,3.1,17.3C4.1,16.3,5.1,15.0,6.1,13.5C6.9,14.3,7.6,14.8,8.1,15.2zM17.0,14.1C18.0,15.0,19.1,16.0,20.0,16.9C21.0,17.9,22.0,18.9,23.1,19.9C22.1,20.6,21.4,21.2,21.1,21.6C20.1,20.4,18.2,18.4,15.5,15.7C15.9,15.4,16.4,14.8,17.0,14.1z" transform="translate(113.420744,65.628789)" fill="#7ba9e1" id="shape9"/><g transform="translate(43.478400,108.000000)" id="shape10"><text xml:space="preserve" style="fill:#7ba9e1;font-family:微软雅黑;font-size:11.00pt;font-weight:bold"><tspan x="21.7" y="15.0">快乐（PA）</tspan></text></g><g transform="translate(70.454000,148.000000)" id="shape11"><path fill-rule="nonzero" d="M90.2,24.8C92.5,22.6,94.0,19.5,94.0,16.0L94.0,14.0C94.0,12.9,94.1,11.3,93.8,10.0C92.9,4.3,87.9,.0,82.0,.0L21.0,.0C16.0,.0,8.2,-0.9,3.8,3.2C1.5,5.4,.0,8.5,.0,12.0L.0,14.0C.0,15.1,-0.1,16.7,.2,18.0C1.1,23.7,6.1,28.0,12.0,28.0L73.0,28.0C78.0,28.0,85.8,28.9,90.2,24.8z" fill="url(#lg1)"/><text xml:space="preserve" style="fill:#379e90;font-family:微软雅黑;font-size:10.00pt"><tspan x="20.0" y="16.5">笑不活了</tspan></text></g><g transform="translate(209.454000,138.000000)" id="shape12"><path fill-rule="nonzero" d="M90.2,24.8C92.5,22.6,94.0,19.5,94.0,16.0L94.0,14.0C94.0,12.9,94.1,11.3,93.8,10.0C92.9,4.3,87.9,.0,82.0,.0L21.0,.0C16.0,.0,8.2,-0.9,3.8,3.2C1.5,5.4,.0,8.5,.0,12.0L.0,14.0C.0,15.1,-0.1,16.7,.2,18.0C1.1,23.7,6.1,28.0,12.0,28.0L73.0,28.0C78.0,28.0,85.8,28.9,90.2,24.8z" fill="url(#lg1)"/><text xml:space="preserve" style="fill:#379e90;font-family:微软雅黑;font-size:10.00pt"><tspan x="20.0" y="16.5">双厨狂喜</tspan></text></g><g transform="translate(229.454000,220.000000)" id="shape13"><path fill-rule="nonzero" d="M90.2,24.8C92.5,22.6,94.0,19.5,94.0,16.0L94.0,14.0C94.0,12.9,94.1,11.3,93.8,10.0C92.9,4.3,87.9,.0,82.0,.0L21.0,.0C16.0,.0,8.2,-0.9,3.8,3.2C1.5,5.4,.0,8.5,.0,12.0L.0,14.0C.0,15.1,-0.1,16.7,.2,18.0C1.1,23.7,6.1,28.0,12.0,28.0L73.0,28.0C78.0,28.0,85.8,28.9,90.2,24.8z" fill="url(#lg1)"/><text xml:space="preserve" style="fill:#379e90;font-family:微软雅黑;font-size:10.00pt"><tspan x="6.5" y="16.5">已经开始笑了</tspan></text></g><g transform="translate(57.454000,227.000000)" id="shape14"><path fill-rule="nonzero" d="M90.2,24.8C92.5,22.6,94.0,19.5,94.0,16.0L94.0,14.0C94.0,12.9,94.1,11.3,93.8,10.0C92.9,4.3,87.9,.0,82.0,.0L21.0,.0C16.0,.0,8.2,-0.9,3.8,3.2C1.5,5.4,.0,8.5,.0,12.0L.0,14.0C.0,15.1,-0.1,16.7,.2,18.0C1.1,23.7,6.1,28.0,12.0,28.0L73.0,28.0C78.0,28.0,85.8,28.9,90.2,24.8z" fill="url(#lg1)"/><text xml:space="preserve" style="fill:#379e90;font-family:微软雅黑;font-size:10.00pt"><tspan x="13.3" y="16.5">我愿称之为</tspan></text></g><g transform="translate(42.631500,276.121000)" id="shape15"><text xml:space="preserve" style="fill:#7ba9e1;font-family:微软雅黑;font-size:11.00pt;font-weight:bold"><tspan x="23.0" y="21.5">安心（PE）</tspan></text></g><g transform="translate(107.454000,323.000000)" id="shape16"><path fill-rule="nonzero" d="M90.2,24.8C92.5,22.6,94.0,19.5,94.0,16.0L94.0,14.0C94.0,12.9,94.1,11.3,93.8,10.0C92.9,4.3,87.9,.0,82.0,.0L21.0,.0C16.0,.0,8.2,-0.9,3.8,3.2C1.5,5.4,.0,8.5,.0,12.0L.0,14.0C.0,15.1,-0.1,16.7,.2,18.0C1.1,23.7,6.1,28.0,12.0,28.0L73.0,28.0C78.0,28.0,85.8,28.9,90.2,24.8z" fill="url(#lg1)"/><text xml:space="preserve" style="fill:#379e90;font-family:微软雅黑;font-size:10.00pt"><tspan x="33.5" y="16.5">华丽</tspan></text></g><g transform="translate(237.454000,323.000000)" id="shape17"><path fill-rule="nonzero" d="M90.2,24.8C92.5,22.6,94.0,19.5,94.0,16.0L94.0,14.0C94.0,12.9,94.1,11.3,93.8,10.0C92.9,4.3,87.9,.0,82.0,.0L21.0,.0C16.0,.0,8.2,-0.9,3.8,3.2C1.5,5.4,.0,8.5,.0,12.0L.0,14.0C.0,15.1,-0.1,16.7,.2,18.0C1.1,23.7,6.1,28.0,12.0,28.0L73.0,28.0C78.0,28.0,85.8,28.9,90.2,24.8z" fill="url(#lg1)"/><text xml:space="preserve" style="fill:#379e90;font-family:微软雅黑;font-size:10.00pt"><tspan x="33.5" y="16.5">服帖</tspan></text></g><g transform="translate(54.454000,370.000000)" id="shape18"><path fill-rule="nonzero" d="M90.2,24.8C92.5,22.6,94.0,19.5,94.0,16.0L94.0,14.0C94.0,12.9,94.1,11.3,93.8,10.0C92.9,4.3,87.9,.0,82.0,.0L21.0,.0C16.0,.0,8.2,-0.9,3.8,3.2C1.5,5.4,.0,8.5,.0,12.0L.0,14.0C.0,15.1,-0.1,16.7,.2,18.0C1.1,23.7,6.1,28.0,12.0,28.0L73.0,28.0C78.0,28.0,85.8,28.9,90.2,24.8z" fill="url(#lg1)"/><text xml:space="preserve" style="fill:#379e90;font-family:微软雅黑;font-size:10.00pt"><tspan x="33.5" y="16.5">太赞</tspan></text></g><g transform="translate(177.454000,370.000000)" id="shape19"><path fill-rule="nonzero" d="M90.2,24.8C92.5,22.6,94.0,19.5,94.0,16.0L94.0,14.0C94.0,12.9,94.1,11.3,93.8,10.0C92.9,4.3,87.9,.0,82.0,.0L21.0,.0C16.0,.0,8.2,-0.9,3.8,3.2C1.5,5.4,.0,8.5,.0,12.0L.0,14.0C.0,15.1,-0.1,16.7,.2,18.0C1.1,23.7,6.1,28.0,12.0,28.0L73.0,28.0C78.0,28.0,85.8,28.9,90.2,24.8z" fill="url(#lg1)"/><text xml:space="preserve" style="fill:#379e90;font-family:微软雅黑;font-size:10.00pt"><tspan x="33.5" y="16.5">划算</tspan></text></g><g transform="translate(107.454000,416.000000)" id="shape20"><path fill-rule="nonzero" d="M90.2,24.8C92.5,22.6,94.0,19.5,94.0,16.0L94.0,14.0C94.0,12.9,94.1,11.3,93.8,10.0C92.9,4.3,87.9,.0,82.0,.0L21.0,.0C16.0,.0,8.2,-0.9,3.8,3.2C1.5,5.4,.0,8.5,.0,12.0L.0,14.0C.0,15.1,-0.1,16.7,.2,18.0C1.1,23.7,6.1,28.0,12.0,28.0L73.0,28.0C78.0,28.0,85.8,28.9,90.2,24.8z" fill="url(#lg1)"/><text xml:space="preserve" style="fill:#379e90;font-family:微软雅黑;font-size:10.00pt"><tspan x="33.5" y="16.5">精致</tspan></text></g><g transform="translate(237.454000,416.000000)" id="shape21"><path fill-rule="nonzero" d="M90.2,24.8C92.5,22.6,94.0,19.5,94.0,16.0L94.0,14.0C94.0,12.9,94.1,11.3,93.8,10.0C92.9,4.3,87.9,.0,82.0,.0L21.0,.0C16.0,.0,8.2,-0.9,3.8,3.2C1.5,5.4,.0,8.5,.0,12.0L.0,14.0C.0,15.1,-0.1,16.7,.2,18.0C1.1,23.7,6.1,28.0,12.0,28.0L73.0,28.0C78.0,28.0,85.8,28.9,90.2,24.8z" fill="url(#lg1)"/><text xml:space="preserve" style="fill:#379e90;font-family:微软雅黑;font-size:10.00pt"><tspan x="33.5" y="16.5">显白</tspan></text></g><g transform="translate(60.481556,55.269550)" id="group22"><path fill-rule="nonzero" d="M.0,21.5C.0,33.4,9.6,43.1,21.5,43.1C33.4,43.1,43.0,33.4,43.0,21.5C43.0,9.6,33.4,.0,21.5,.0C9.6,.0,.0,9.6,.0,21.5z" transform="translate(0.963911,0.959189)" fill="#75eae4" id="shape23"/><path fill-rule="nonzero" d="M22.5,45.0C19.5,45.0,16.5,44.4,13.7,43.2C11.1,42.1,8.7,40.5,6.6,38.4C4.5,36.3,2.9,33.9,1.8,31.2C.6,28.5,.0,25.5,.0,22.5C.0,19.4,.6,16.5,1.8,13.7C2.9,11.1,4.5,8.6,6.6,6.6C8.7,4.5,11.1,2.9,13.7,1.8C16.5,.6,19.5,.0,22.5,.0C25.5,.0,28.5,.6,31.2,1.8C33.9,2.9,36.3,4.5,38.4,6.6C40.5,8.7,42.1,11.1,43.2,13.7C44.4,16.5,45.0,19.5,45.0,22.5C45.0,25.5,44.4,28.5,43.2,31.2C42.1,33.9,40.5,36.3,38.4,38.4C36.3,40.5,33.9,42.1,31.2,43.2C28.5,44.4,25.5,45.0,22.5,45.0zM22.5,1.9C19.7,1.9,17.0,2.5,14.5,3.5C12.0,4.6,9.8,6.1,8.0,7.9C6.1,9.8,4.6,12.0,3.5,14.5C2.5,17.0,1.9,19.7,1.9,22.5C1.9,25.3,2.5,28.0,3.5,30.5C4.6,32.9,6.1,35.1,8.0,37.0C9.8,38.9,12.0,40.4,14.5,41.4C17.0,42.5,19.7,43.0,22.5,43.0C25.3,43.0,28.0,42.5,30.5,41.4C32.9,40.4,35.1,38.9,37.0,37.0C38.9,35.1,40.4,32.9,41.4,30.5C42.5,28.0,43.0,25.3,43.0,22.5C43.0,19.7,42.5,17.0,41.4,14.5C40.4,12.0,38.9,9.8,37.0,7.9C35.1,6.1,32.9,4.6,30.5,3.5C28.0,2.5,25.3,1.9,22.5,1.9z" fill="#05c4ce" id="shape24"/><path fill-rule="nonzero" d="M.0,20.3C.0,31.5,9.2,40.6,20.6,40.6C32.0,40.6,41.2,31.5,41.2,20.3C41.2,9.1,32.0,.0,20.6,.0C9.2,.0,.0,9.1,.0,20.3z" transform="translate(1.889278,0.964024)" fill="#ffffff" id="shape25"/><path fill-rule="nonzero" d="M.0,1.8C.0,2.9,.9,3.7,2.1,3.7C3.3,3.7,4.2,2.9,4.2,1.8C4.2,.8,3.3,.0,2.1,.0C.9,.0,.0,.8,.0,1.8z" transform="translate(14.776872,6.386616)" fill="#05c4ce" id="shape26"/><path fill-rule="nonzero" d="M.0,1.8C.0,2.9,.9,3.7,2.1,3.7C3.3,3.7,4.2,2.9,4.2,1.8C4.2,.8,3.3,.0,2.1,.0C.9,.0,.0,.8,.0,1.8z" transform="translate(25.958269,6.386616)" fill="#05c4ce" id="shape27"/><path fill-rule="nonzero" d="M.0,1.5C.0,2.2,1.3,2.8,2.9,2.7C4.5,2.6,5.7,2.0,5.7,1.2C5.7,.5,4.4,-0.1,2.8,.0C1.2,.1,-0.0,.7,.0,1.5z" transform="translate(7.366029,12.860847)" fill="#75eae4" id="shape28"/><path fill-rule="nonzero" d="M.0,1.5C.0,2.2,1.3,2.8,2.9,2.7C4.5,2.6,5.7,2.0,5.7,1.2C5.7,.5,4.4,-0.1,2.8,.0C1.2,.1,-0.0,.7,.0,1.5z" transform="translate(31.907479,11.877663)" fill="#75eae4" id="shape29"/><path fill-rule="nonzero" d="M22.5,45.0C19.5,45.0,16.5,44.4,13.7,43.2C11.1,42.1,8.7,40.5,6.6,38.4C4.5,36.3,2.9,33.9,1.8,31.2C.6,28.5,.0,25.5,.0,22.5C.0,19.4,.6,16.5,1.8,13.7C2.9,11.1,4.5,8.6,6.6,6.6C8.7,4.5,11.1,2.9,13.7,1.8C16.5,.6,19.5,.0,22.5,.0C25.5,.0,28.5,.6,31.2,1.8C33.9,2.9,36.3,4.5,38.4,6.6C40.5,8.7,42.1,11.1,43.2,13.7C44.4,16.5,45.0,19.5,45.0,22.5C45.0,25.5,44.4,28.5,43.2,31.2C42.1,33.9,40.5,36.3,38.4,38.4C36.3,40.5,33.9,42.1,31.2,43.2C28.5,44.4,25.5,45.0,22.5,45.0zM22.5,1.9C19.7,1.9,17.0,2.5,14.5,3.5C12.0,4.6,9.8,6.1,8.0,7.9C6.1,9.8,4.6,12.0,3.5,14.5C2.5,17.0,1.9,19.7,1.9,22.5C1.9,25.3,2.5,28.0,3.5,30.5C4.6,32.9,6.1,35.1,8.0,37.0C9.8,38.9,12.0,40.4,14.5,41.4C17.0,42.5,19.7,43.0,22.5,43.0C25.3,43.0,28.0,42.5,30.5,41.4C32.9,40.4,35.1,38.9,37.0,37.0C38.9,35.1,40.4,32.9,41.4,30.5C42.5,28.0,43.0,25.3,43.0,22.5C43.0,19.7,42.5,17.0,41.4,14.5C40.4,12.0,38.9,9.8,37.0,7.9C35.1,6.1,32.9,4.6,30.5,3.5C28.0,2.5,25.3,1.9,22.5,1.9z" fill="#05c4ce" id="shape30"/><path fill-rule="nonzero" d="M.0,.4C.0,.7,-0.0,.9,.0,1.1C.1,4.4,2.9,6.9,6.1,6.8L7.0,6.8C10.2,6.7,12.7,3.9,12.6,.7C12.6,.5,12.6,.2,12.6,.0L.0,.4z" transform="translate(16.204472,11.187469)" fill="#05c4ce" id="shape31"/><path fill-rule="nonzero" d="M3.0,.0C1.7,.1,.6,1.1,.0,2.7C.9,3.2,2.0,3.5,3.1,3.5L4.0,3.4C5.0,3.4,5.9,3.1,6.7,2.6C6.1,1.0,4.9,-0.0,3.5,.0L3.0,.0z" transform="translate(19.186765,14.526509)" fill="#75eae4" id="shape32"/></g><g transform="translate(135.000000,189.000000)" id="shape33"><path fill-rule="nonzero" d="M90.2,24.8C92.5,22.6,94.0,19.5,94.0,16.0L94.0,14.0C94.0,12.9,94.1,11.3,93.8,10.0C92.9,4.3,87.9,.0,82.0,.0L21.0,.0C16.0,.0,8.2,-0.9,3.8,3.2C1.5,5.4,.0,8.5,.0,12.0L.0,14.0C.0,15.1,-0.1,16.7,.2,18.0C1.1,23.7,6.1,28.0,12.0,28.0L73.0,28.0C78.0,28.0,85.8,28.9,90.2,24.8z" fill="url(#lg1)"/><text xml:space="preserve" style="fill:#379e90;font-family:微软雅黑;font-size:10.00pt"><tspan x="20.0" y="16.5">梦幻联动</tspan></text></g><g transform="translate(352.000100,262.000100)" id="group34"><path fill-rule="nonzero" d="M.0,21.5C.0,33.4,9.6,43.1,21.5,43.1C33.4,43.1,43.1,33.4,43.1,21.5C43.1,9.6,33.4,.0,21.5,.0C9.6,.0,.0,9.6,.0,21.5z" transform="translate(0.937500,0.937500)" fill="#75eae4" id="shape35"/><path fill-rule="nonzero" d="M22.5,45.0C19.5,45.0,16.5,44.4,13.7,43.2C11.1,42.1,8.7,40.5,6.6,38.4C4.5,36.3,2.9,33.9,1.8,31.2C.6,28.5,.0,25.5,.0,22.5C.0,19.5,.6,16.5,1.8,13.7C2.9,11.1,4.5,8.7,6.6,6.6C8.6,4.5,11.1,2.9,13.7,1.8C16.5,.6,19.5,.0,22.5,.0C25.5,.0,28.5,.6,31.2,1.8C33.9,2.9,36.3,4.5,38.4,6.6C40.5,8.7,42.1,11.1,43.2,13.7C44.4,16.5,45.0,19.5,45.0,22.5C45.0,25.5,44.4,28.5,43.2,31.2C42.1,33.9,40.5,36.3,38.4,38.4C36.3,40.5,33.9,42.1,31.2,43.2C28.5,44.4,25.5,45.0,22.5,45.0zM22.5,1.9C19.7,1.9,17.0,2.4,14.5,3.5C12.0,4.5,9.8,6.0,7.9,7.9C6.0,9.8,4.5,12.0,3.5,14.5C2.4,17.0,1.9,19.7,1.9,22.5C1.9,25.3,2.4,28.0,3.5,30.5C4.5,33.0,6.0,35.2,7.9,37.1C9.8,38.9,12.0,40.4,14.5,41.5C17.0,42.5,19.7,43.1,22.5,43.1C25.3,43.1,28.0,42.5,30.5,41.5C33.0,40.4,35.2,38.9,37.1,37.1C39.0,35.2,40.4,33.0,41.5,30.5C42.5,28.0,43.1,25.3,43.1,22.5C43.1,19.7,42.5,17.0,41.5,14.5C40.4,12.0,39.0,9.8,37.1,7.9C35.2,6.0,33.0,4.5,30.5,3.5C28.0,2.4,25.3,1.9,22.5,1.9z" fill="#05c4ce" id="shape36"/><path fill-rule="nonzero" d="M.0,20.3C.0,31.5,9.2,40.6,20.6,40.6C32.0,40.6,41.3,31.5,41.3,20.3C41.3,9.1,32.0,.0,20.6,.0C9.2,.0,.0,9.1,.0,20.3z" transform="translate(2.784400,0.942100)" fill="#ffffff" id="shape37"/><path fill-rule="nonzero" d="M.0,2.4C.0,3.7,.9,4.8,2.1,4.8C3.3,4.8,4.2,3.7,4.2,2.4C4.2,1.1,3.3,.0,2.1,.0C.9,.0,.0,1.1,.0,2.4z" transform="translate(14.770350,6.365630)" fill="#05c4ce" id="shape38"/><path fill-rule="nonzero" d="M.0,2.4C.0,3.7,.9,4.8,2.1,4.8C3.3,4.8,4.2,3.7,4.2,2.4C4.2,1.1,3.3,.0,2.1,.0C.9,.0,.0,1.1,.0,2.4z" transform="translate(25.968750,6.365630)" fill="#05c4ce" id="shape39"/><path fill-rule="nonzero" d="M6.4,4.6C5.8,4.6,5.4,4.2,5.4,3.7C5.4,2.7,4.6,1.9,3.7,1.9C2.7,1.9,1.9,2.7,1.9,3.7C1.9,4.2,1.5,4.6,.9,4.6C.4,4.6,.0,4.2,.0,3.7C.0,1.6,1.6,.0,3.7,.0C5.7,.0,7.3,1.6,7.3,3.7C7.3,4.2,6.9,4.6,6.4,4.6z" transform="translate(18.834340,10.406270)" fill="#05c4ce" id="shape40"/><path fill-rule="nonzero" d="M.0,1.5C.0,2.2,1.2,2.8,2.6,2.7C4.1,2.7,5.2,2.0,5.2,1.3C5.1,.5,4.0,-0.1,2.5,.0C1.1,.1,-0.0,.7,.0,1.5z" transform="translate(8.767100,12.803290)" fill="#75eae4" id="shape41"/><path fill-rule="nonzero" d="M.0,1.5C.0,2.2,1.2,2.8,2.6,2.7C4.1,2.7,5.2,2.0,5.2,1.3C5.1,.5,4.0,-0.1,2.5,.0C1.1,.1,-0.0,.7,.0,1.5z" transform="translate(31.037400,11.907990)" fill="#75eae4" id="shape42"/><path fill-rule="nonzero" d="M22.5,45.0C19.5,45.0,16.5,44.4,13.7,43.2C11.1,42.1,8.7,40.5,6.6,38.4C4.5,36.3,2.9,33.9,1.8,31.2C.6,28.5,.0,25.5,.0,22.5C.0,19.5,.6,16.5,1.8,13.7C2.9,11.1,4.5,8.7,6.6,6.6C8.6,4.5,11.1,2.9,13.7,1.8C16.5,.6,19.5,.0,22.5,.0C25.5,.0,28.5,.6,31.2,1.8C33.9,2.9,36.3,4.5,38.4,6.6C40.5,8.7,42.1,11.1,43.2,13.7C44.4,16.5,45.0,19.5,45.0,22.5C45.0,25.5,44.4,28.5,43.2,31.2C42.1,33.9,40.5,36.3,38.4,38.4C36.3,40.5,33.9,42.1,31.2,43.2C28.5,44.4,25.5,45.0,22.5,45.0zM22.5,1.9C19.7,1.9,17.0,2.4,14.5,3.5C12.0,4.5,9.8,6.0,7.9,7.9C6.0,9.8,4.5,12.0,3.5,14.5C2.4,17.0,1.9,19.7,1.9,22.5C1.9,25.3,2.4,28.0,3.5,30.5C4.5,33.0,6.0,35.2,7.9,37.1C9.8,38.9,12.0,40.4,14.5,41.5C17.0,42.5,19.7,43.1,22.5,43.1C25.3,43.1,28.0,42.5,30.5,41.5C33.0,40.4,35.2,38.9,37.1,37.1C39.0,35.2,40.4,33.0,41.5,30.5C42.5,28.0,43.1,25.3,43.1,22.5C43.1,19.7,42.5,17.0,41.5,14.5C40.4,12.0,39.0,9.8,37.1,7.9C35.2,6.0,33.0,4.5,30.5,3.5C28.0,2.4,25.3,1.9,22.5,1.9z" fill="#05c4ce" id="shape43"/></g><g transform="translate(352.000100,54.871100)" id="group44"><path fill-rule="nonzero" d="M.0,21.4C.0,33.2,9.6,42.8,21.4,42.8C33.2,42.8,42.8,33.2,42.8,21.4C42.8,9.6,33.2,.0,21.4,.0C9.6,.0,.0,9.6,.0,21.4z" transform="translate(0.937500,0.937500)" fill="#75eae4" id="shape45"/><path fill-rule="nonzero" d="M22.3,44.7C19.3,44.7,16.4,44.1,13.6,42.9C11.0,41.8,8.6,40.2,6.5,38.1C4.5,36.1,2.9,33.7,1.8,31.0C.6,28.3,.0,25.4,.0,22.3C.0,19.3,.6,16.4,1.8,13.6C2.9,11.0,4.5,8.6,6.5,6.5C8.6,4.5,11.0,2.9,13.6,1.8C16.4,.6,19.3,.0,22.3,.0C25.4,.0,28.3,.6,31.0,1.8C33.7,2.9,36.1,4.5,38.1,6.5C40.2,8.6,41.8,11.0,42.9,13.6C44.1,16.4,44.7,19.3,44.7,22.3C44.7,25.4,44.1,28.3,42.9,31.0C41.8,33.7,40.2,36.1,38.1,38.1C36.1,40.2,33.7,41.8,31.0,42.9C28.3,44.1,25.4,44.7,22.3,44.7zM22.3,1.9C19.6,1.9,16.9,2.4,14.4,3.5C11.9,4.5,9.8,6.0,7.9,7.9C6.0,9.8,4.5,11.9,3.5,14.4C2.4,16.9,1.9,19.6,1.9,22.3C1.9,25.1,2.4,27.8,3.5,30.3C4.5,32.7,6.0,34.9,7.9,36.8C9.8,38.7,11.9,40.2,14.4,41.2C16.9,42.3,19.6,42.8,22.3,42.8C25.1,42.8,27.8,42.3,30.3,41.2C32.7,40.2,34.9,38.7,36.8,36.8C38.7,34.9,40.2,32.7,41.2,30.3C42.3,27.8,42.8,25.1,42.8,22.3C42.8,19.6,42.3,16.9,41.2,14.4C40.2,11.9,38.7,9.8,36.8,7.9C34.9,6.0,32.7,4.5,30.3,3.5C27.8,2.4,25.1,1.9,22.3,1.9z" fill="#05c4ce" id="shape46"/><path fill-rule="nonzero" d="M.0,20.2C.0,31.3,9.2,40.3,20.5,40.3C31.8,40.3,41.0,31.3,41.0,20.2C41.0,9.0,31.8,.0,20.5,.0C9.2,.0,.0,9.0,.0,20.2z" transform="translate(2.775000,0.937500)" fill="#ffffff" id="shape47"/><path fill-rule="nonzero" d="M.0,2.4C.0,3.7,.9,4.7,2.1,4.7C3.3,4.7,4.2,3.7,4.2,2.4C4.2,1.1,3.3,.0,2.1,.0C.9,.0,.0,1.1,.0,2.4z" transform="translate(14.676510,6.332820)" fill="#05c4ce" id="shape48"/><path fill-rule="nonzero" d="M.0,2.4C.0,3.7,.9,4.7,2.1,4.7C3.3,4.7,4.2,3.7,4.2,2.4C4.2,1.1,3.3,.0,2.1,.0C.9,.0,.0,1.1,.0,2.4z" transform="translate(25.800010,6.332820)" fill="#05c4ce" id="shape49"/><path fill-rule="nonzero" d="M.0,1.5C.0,2.2,1.2,2.8,2.6,2.7C4.0,2.6,5.2,2.0,5.1,1.2C5.1,.5,3.9,-0.1,2.5,.0C1.1,.1,-0.0,.7,.0,1.5z" transform="translate(8.715640,12.723590)" fill="#75eae4" id="shape50"/><path fill-rule="nonzero" d="M.0,1.5C.0,2.2,1.2,2.8,2.6,2.7C4.0,2.6,5.2,2.0,5.1,1.2C5.1,.5,3.9,-0.1,2.5,.0C1.1,.1,-0.0,.7,.0,1.5z" transform="translate(30.835840,11.832990)" fill="#75eae4" id="shape51"/><path fill-rule="nonzero" d="M22.3,44.7C19.3,44.7,16.4,44.1,13.6,42.9C11.0,41.8,8.6,40.2,6.5,38.1C4.5,36.1,2.9,33.7,1.8,31.0C.6,28.3,.0,25.4,.0,22.3C.0,19.3,.6,16.4,1.8,13.6C2.9,11.0,4.5,8.6,6.5,6.5C8.6,4.5,11.0,2.9,13.6,1.8C16.4,.6,19.3,.0,22.3,.0C25.4,.0,28.3,.6,31.0,1.8C33.7,2.9,36.1,4.5,38.1,6.5C40.2,8.6,41.8,11.0,42.9,13.6C44.1,16.4,44.7,19.3,44.7,22.3C44.7,25.4,44.1,28.3,42.9,31.0C41.8,33.7,40.2,36.1,38.1,38.1C36.1,40.2,33.7,41.8,31.0,42.9C28.3,44.1,25.4,44.7,22.3,44.7zM22.3,1.9C19.6,1.9,16.9,2.4,14.4,3.5C11.9,4.5,9.8,6.0,7.9,7.9C6.0,9.8,4.5,11.9,3.5,14.4C2.4,16.9,1.9,19.6,1.9,22.3C1.9,25.1,2.4,27.8,3.5,30.3C4.5,32.7,6.0,34.9,7.9,36.8C9.8,38.7,11.9,40.2,14.4,41.2C16.9,42.3,19.6,42.8,22.3,42.8C25.1,42.8,27.8,42.3,30.3,41.2C32.7,40.2,34.9,38.7,36.8,36.8C38.7,34.9,40.2,32.7,41.2,30.3C42.3,27.8,42.8,25.1,42.8,22.3C42.8,19.6,42.3,16.9,41.2,14.4C40.2,11.9,38.7,9.8,36.8,7.9C34.9,6.0,32.7,4.5,30.3,3.5C27.8,2.4,25.1,1.9,22.3,1.9z" fill="#05c4ce" id="shape52"/><path fill-rule="nonzero" d="M13.7,2.9C13.3,2.9,13.1,2.6,12.9,2.3C12.6,1.8,12.4,1.5,12.2,1.4C12.1,1.5,12.0,1.7,11.9,1.8C11.6,2.3,11.1,2.9,10.5,2.9C9.8,2.9,9.5,2.4,9.1,1.9C9.0,1.8,8.9,1.6,8.8,1.5C8.8,1.6,8.7,1.8,8.6,1.9C8.2,2.4,7.8,2.9,7.2,2.9C6.6,2.9,6.2,2.4,5.8,1.9C5.7,1.8,5.7,1.6,5.6,1.5C5.5,1.6,5.4,1.8,5.3,1.9C4.9,2.4,4.6,2.9,4.0,2.9C3.3,2.9,2.9,2.3,2.5,1.8C2.4,1.7,2.3,1.6,2.2,1.5C2.2,1.6,2.1,1.7,2.1,1.8C1.9,2.2,1.5,2.9,.7,2.9C.3,2.9,.0,2.6,.0,2.2C.0,1.8,.3,1.5,.6,1.5C.7,1.4,.7,1.3,.8,1.2C1.0,.8,1.4,.0,2.3,.0C2.9,.0,3.3,.5,3.6,1.0C3.7,1.1,3.8,1.3,3.9,1.4C4.0,1.3,4.1,1.2,4.2,1.1C4.5,.6,4.9,.0,5.6,.0C6.2,.0,6.6,.6,6.9,1.0C7.0,1.1,7.1,1.3,7.2,1.4C7.3,1.3,7.4,1.1,7.4,1.0C7.8,.6,8.2,.0,8.8,.0C9.5,.0,9.9,.6,10.2,1.1C10.3,1.2,10.4,1.3,10.5,1.4C10.6,1.3,10.7,1.1,10.8,1.0C11.1,.5,11.5,.0,12.1,.0C13.1,.0,13.8,1.1,14.1,1.6C14.1,1.6,14.2,1.7,14.2,1.7C14.3,1.8,14.4,2.0,14.4,2.2C14.4,2.6,14.1,2.9,13.7,2.9z" transform="translate(15.646840,12.656230)" fill="#05c4ce" id="shape53"/></g><g transform="translate(55.563600,480.114100)" id="group54"><path fill-rule="nonzero" d="M.0,20.9C.0,32.5,9.4,41.9,20.9,41.9C32.5,41.9,41.9,32.5,41.9,20.9C41.9,9.4,32.5,.0,20.9,.0C9.4,.0,.0,9.4,.0,20.9z" transform="translate(0.937500,0.937500)" fill="#75eae4" id="shape55"/><path fill-rule="nonzero" d="M21.9,43.8C18.9,43.8,16.1,43.2,13.4,42.1C10.8,41.0,8.4,39.4,6.4,37.4C4.4,35.4,2.8,33.0,1.7,30.4C.6,27.7,.0,24.8,.0,21.9C.0,18.9,.6,16.1,1.7,13.4C2.8,10.8,4.4,8.4,6.4,6.4C8.4,4.4,10.8,2.8,13.4,1.7C16.1,.6,18.9,.0,21.9,.0C24.8,.0,27.7,.6,30.4,1.7C33.0,2.8,35.4,4.4,37.4,6.4C39.4,8.4,41.0,10.8,42.1,13.4C43.2,16.1,43.8,18.9,43.8,21.9C43.8,24.8,43.2,27.7,42.1,30.4C41.0,33.0,39.4,35.4,37.4,37.4C35.4,39.4,33.0,41.0,30.4,42.1C27.7,43.2,24.8,43.8,21.9,43.8zM21.9,1.9C19.2,1.9,16.6,2.4,14.1,3.4C11.7,4.5,9.6,5.9,7.7,7.7C5.9,9.6,4.5,11.7,3.4,14.1C2.4,16.6,1.9,19.2,1.9,21.9C1.9,24.6,2.4,27.2,3.4,29.7C4.5,32.1,5.9,34.2,7.7,36.0C9.6,37.9,11.7,39.3,14.1,40.3C16.6,41.4,19.2,41.9,21.9,41.9C24.6,41.9,27.2,41.4,29.7,40.3C32.1,39.3,34.2,37.9,36.0,36.0C37.9,34.2,39.3,32.1,40.3,29.7C41.4,27.2,41.9,24.6,41.9,21.9C41.9,19.2,41.4,16.6,40.3,14.1C39.3,11.7,37.9,9.6,36.0,7.7C34.2,5.9,32.1,4.5,29.7,3.4C27.2,2.4,24.6,1.9,21.9,1.9z" fill="#05c4ce" id="shape56"/><path fill-rule="nonzero" d="M.0,19.7C.0,30.6,9.0,39.5,20.1,39.5C31.1,39.5,40.1,30.6,40.1,19.7C40.1,8.8,31.1,.0,20.1,.0C9.0,.0,.0,8.8,.0,19.7z" transform="translate(1.832800,0.937500)" fill="#ffffff" id="shape57"/><path fill-rule="nonzero" d="M.0,2.3C.0,3.6,.9,4.6,2.1,4.6C3.2,4.6,4.1,3.6,4.1,2.3C4.1,1.0,3.2,.0,2.1,.0C.9,.0,.0,1.0,.0,2.3z" transform="translate(14.381200,6.215620)" fill="#05c4ce" id="shape58"/><path fill-rule="nonzero" d="M.0,2.3C.0,3.6,.9,4.6,2.1,4.6C3.2,4.6,4.1,3.6,4.1,2.3C4.1,1.0,3.2,.0,2.1,.0C.9,.0,.0,1.0,.0,2.3z" transform="translate(25.270300,6.215620)" fill="#05c4ce" id="shape59"/><path fill-rule="nonzero" d="M.0,1.4C.0,2.2,1.2,2.7,2.6,2.6C4.0,2.6,5.1,2.0,5.0,1.2C5.0,.5,3.9,-0.1,2.5,.0C1.1,.1,-0.0,.7,.0,1.4z" transform="translate(8.546670,12.470570)" fill="#75eae4" id="shape60"/><path fill-rule="nonzero" d="M.0,1.4C.0,2.2,1.2,2.7,2.6,2.6C4.0,2.6,5.1,2.0,5.0,1.2C5.0,.5,3.9,-0.1,2.5,.0C1.1,.1,-0.0,.7,.0,1.4z" transform="translate(30.198360,11.603200)" fill="#75eae4" id="shape61"/><path fill-rule="nonzero" d="M21.9,43.8C18.9,43.8,16.1,43.2,13.4,42.1C10.8,41.0,8.4,39.4,6.4,37.4C4.4,35.4,2.8,33.0,1.7,30.4C.6,27.7,.0,24.8,.0,21.9C.0,18.9,.6,16.1,1.7,13.4C2.8,10.8,4.4,8.4,6.4,6.4C8.4,4.4,10.8,2.8,13.4,1.7C16.1,.6,18.9,.0,21.9,.0C24.8,.0,27.7,.6,30.4,1.7C33.0,2.8,35.4,4.4,37.4,6.4C39.4,8.4,41.0,10.8,42.1,13.4C43.2,16.1,43.8,18.9,43.8,21.9C43.8,24.8,43.2,27.7,42.1,30.4C41.0,33.0,39.4,35.4,37.4,37.4C35.4,39.4,33.0,41.0,30.4,42.1C27.7,43.2,24.8,43.8,21.9,43.8zM21.9,1.9C19.2,1.9,16.6,2.4,14.1,3.4C11.7,4.5,9.6,5.9,7.7,7.7C5.9,9.6,4.5,11.7,3.4,14.1C2.4,16.6,1.9,19.2,1.9,21.9C1.9,24.6,2.4,27.2,3.4,29.7C4.5,32.1,5.9,34.2,7.7,36.0C9.6,37.9,11.7,39.3,14.1,40.3C16.6,41.4,19.2,41.9,21.9,41.9C24.6,41.9,27.2,41.4,29.7,40.3C32.1,39.3,34.2,37.9,36.0,36.0C37.9,34.2,39.3,32.1,40.3,29.7C41.4,27.2,41.9,24.6,41.9,21.9C41.9,19.2,41.4,16.6,40.3,14.1C39.3,11.7,37.9,9.6,36.0,7.7C34.2,5.9,32.1,4.5,29.7,3.4C27.2,2.4,24.6,1.9,21.9,1.9z" fill="#05c4ce" id="shape62"/><path fill-rule="nonzero" d="M.0,.2C.0,.3,.0,.5,.0,.6C.1,2.2,1.5,3.5,3.1,3.5L3.5,3.5C5.2,3.4,6.5,2.0,6.4,.4C6.4,.2,6.4,.1,6.4,.0L.0,.2z" transform="translate(18.701270,12.464040)" fill="#05c4ce" id="shape63"/><path fill-rule="nonzero" d="M1.5,.0C.9,.0,.3,.6,.0,1.4C.5,1.6,1.0,1.8,1.6,1.8L2.0,1.7C2.5,1.7,3.0,1.6,3.4,1.3C3.1,.5,2.5,-0.0,1.8,.0L1.5,.0z" transform="translate(20.217230,14.164889)" fill="#75eae4" id="shape64"/></g><g transform="translate(698.644400,55.269550)" id="group65"><path fill-rule="nonzero" d="M.0,2.3C.0,3.5,1.0,4.5,2.1,4.5C3.3,4.5,4.3,3.5,4.3,2.3C4.3,1.0,3.3,.0,2.1,.0C1.0,.0,.0,1.0,.0,2.3z" transform="translate(19.809390,11.596900)" fill="#05c4ce" id="shape66"/><path fill-rule="nonzero" d="M1.6,.0C.9,.0,.3,.4,.0,.9C.4,1.3,.9,1.6,1.6,1.6C2.2,1.6,2.7,1.3,3.1,.9C2.8,.4,2.3,.0,1.6,.0z" transform="translate(20.390640,14.484406)" fill="#75eae4" id="shape67"/><path fill-rule="nonzero" d="M.0,21.0C.0,32.6,9.4,42.0,21.0,42.0C32.6,42.0,42.0,32.6,42.0,21.0C42.0,9.4,32.6,.0,21.0,.0C9.4,.0,.0,9.4,.0,21.0z" transform="translate(0.942200,0.942200)" fill="#75eae4" id="shape68"/><path fill-rule="nonzero" d="M21.9,43.9C19.0,43.9,16.1,43.3,13.4,42.2C10.8,41.0,8.4,39.5,6.4,37.5C4.4,35.4,2.8,33.1,1.7,30.5C.6,27.8,.0,24.9,.0,21.9C.0,19.0,.6,16.1,1.7,13.4C2.8,10.8,4.4,8.4,6.4,6.4C8.4,4.4,10.8,2.8,13.4,1.7C16.1,.6,19.0,.0,21.9,.0C24.9,.0,27.8,.6,30.5,1.7C33.1,2.8,35.4,4.4,37.5,6.4C39.5,8.4,41.1,10.8,42.2,13.4C43.3,16.1,43.9,19.0,43.9,21.9C43.9,24.9,43.3,27.8,42.2,30.5C41.0,33.1,39.5,35.4,37.5,37.5C35.4,39.5,33.1,41.1,30.5,42.2C27.8,43.3,24.9,43.9,21.9,43.9zM21.9,1.9C19.2,1.9,16.6,2.4,14.1,3.5C11.7,4.5,9.6,5.9,7.8,7.8C5.9,9.6,4.5,11.7,3.5,14.1C2.4,16.6,1.9,19.2,1.9,21.9C1.9,24.7,2.4,27.3,3.5,29.8C4.5,32.1,5.9,34.3,7.8,36.1C9.6,38.0,11.7,39.4,14.1,40.4C16.6,41.5,19.2,42.0,21.9,42.0C24.7,42.0,27.3,41.5,29.8,40.4C32.1,39.4,34.3,38.0,36.1,36.1C38.0,34.3,39.4,32.1,40.4,29.8C41.5,27.3,42.0,24.7,42.0,21.9C42.0,19.2,41.5,16.6,40.4,14.1C39.4,11.7,38.0,9.6,36.1,7.8C34.3,5.9,32.1,4.5,29.8,3.5C27.3,2.4,24.7,1.9,21.9,1.9z" fill="#05c4ce" id="shape69"/><path fill-rule="nonzero" d="M.0,19.8C.0,30.7,9.0,39.6,20.1,39.6C31.2,39.6,40.2,30.7,40.2,19.8C40.2,8.9,31.2,.0,20.1,.0C9.0,.0,.0,8.9,.0,19.8z" transform="translate(2.742200,0.946900)" fill="#ffffff" id="shape70"/><path fill-rule="nonzero" d="M21.9,43.9C19.0,43.9,16.1,43.3,13.4,42.2C10.8,41.0,8.4,39.5,6.4,37.5C4.4,35.4,2.8,33.1,1.7,30.5C.6,27.8,.0,24.9,.0,21.9C.0,19.0,.6,16.1,1.7,13.4C2.8,10.8,4.4,8.4,6.4,6.4C8.4,4.4,10.8,2.8,13.4,1.7C16.1,.6,19.0,.0,21.9,.0C24.9,.0,27.8,.6,30.5,1.7C33.1,2.8,35.4,4.4,37.5,6.4C39.5,8.4,41.1,10.8,42.2,13.4C43.3,16.1,43.9,19.0,43.9,21.9C43.9,24.9,43.3,27.8,42.2,30.5C41.0,33.1,39.5,35.4,37.5,37.5C35.4,39.5,33.1,41.1,30.5,42.2C27.8,43.3,24.9,43.9,21.9,43.9zM21.9,1.9C19.2,1.9,16.6,2.4,14.1,3.5C11.7,4.5,9.6,5.9,7.8,7.8C5.9,9.6,4.5,11.7,3.5,14.1C2.4,16.6,1.9,19.2,1.9,21.9C1.9,24.7,2.4,27.3,3.5,29.8C4.5,32.1,5.9,34.3,7.8,36.1C9.6,38.0,11.7,39.4,14.1,40.4C16.6,41.5,19.2,42.0,21.9,42.0C24.7,42.0,27.3,41.5,29.8,40.4C32.1,39.4,34.3,38.0,36.1,36.1C38.0,34.3,39.4,32.1,40.4,29.8C41.5,27.3,42.0,24.7,42.0,21.9C42.0,19.2,41.5,16.6,40.4,14.1C39.4,11.7,38.0,9.6,36.1,7.8C34.3,5.9,32.1,4.5,29.8,3.5C27.3,2.4,24.7,1.9,21.9,1.9z" fill="#05c4ce" id="shape71"/><path fill-rule="nonzero" d="M5.0,3.9C4.4,3.9,4.0,3.5,4.0,3.0L4.0,1.9L.9,1.9C.4,1.9,.0,1.5,.0,.9C.0,.4,.4,.0,.9,.0L5.0,.0C5.5,.0,5.9,.4,5.9,.9L5.9,3.0C5.9,3.5,5.5,3.9,5.0,3.9zM16.9,3.9C16.4,3.9,16.0,3.5,16.0,3.0L16.0,1.9L12.9,1.9C12.4,1.9,12.0,1.5,12.0,.9C12.0,.4,12.4,.0,12.9,.0L16.9,.0C17.4,.0,17.9,.4,17.9,.9L17.9,3.0C17.9,3.5,17.4,3.9,16.9,3.9zM14.4,8.1L4.6,8.1C4.0,8.1,3.6,7.7,3.6,7.2C3.6,6.7,4.0,6.2,4.6,6.2L14.4,6.2C14.9,6.2,15.3,6.7,15.3,7.2C15.3,7.7,14.9,8.1,14.4,8.1z" transform="translate(12.257860,7.298480)" fill="#05c4ce" id="shape72"/></g><path fill-rule="nonzero" stroke-width="1" stroke="#94b6e0" d="M9.8,18.8L8.4,20.2C7.5,19.4,6.6,18.6,5.8,17.8C4.6,19.6,3.1,21.2,1.1,22.7C.8,22.3,.4,21.7,.0,21.2C1.9,19.9,3.4,18.3,4.5,16.7C3.2,15.6,2.1,14.6,.9,13.6C1.5,11.7,2.0,9.3,2.5,6.7L.0,6.7L.0,4.9L2.8,4.9C3.0,3.4,3.3,1.8,3.5,.0L5.4,.3C5.1,2.0,4.8,3.5,4.6,4.9L9.0,4.9L9.0,6.5C8.7,10.7,7.9,14.0,6.7,16.2C7.8,17.1,8.8,17.9,9.8,18.8zM9.0,10.5L15.4,10.5L15.4,6.9C17.0,5.6,18.4,4.4,19.7,3.3L9.8,3.3L9.8,1.6L22.3,1.6L22.3,3.5C20.6,4.9,18.9,6.3,17.3,7.7L17.3,10.5L23.3,10.5L23.3,12.3L17.3,12.3L17.3,19.8C17.3,21.7,16.3,22.6,14.3,22.6C13.6,22.6,12.6,22.6,11.2,22.6C11.1,22.0,11.0,21.3,10.9,20.7C12.3,20.8,13.3,20.9,14.0,20.9C15.0,20.9,15.4,20.4,15.4,19.5L15.4,12.3L9.0,12.3L9.0,10.5zM7.2,6.7L4.3,6.7C3.7,9.7,3.2,11.8,2.8,13.1C3.7,13.8,4.5,14.4,5.3,15.1C6.4,12.9,7.0,10.1,7.2,6.7z" transform="translate(112.829000,489.632800)" fill="#7ba9e1" id="shape73"/><g transform="translate(38.024500,521.931000)" id="shape74"><text xml:space="preserve" style="fill:#7ba9e1;font-family:微软雅黑;font-size:11.00pt;font-weight:bold"><tspan x="21.5" y="21.5">尊敬（PD）</tspan></text></g><g transform="translate(177.454500,477.367000)" id="shape75"><text xml:space="preserve" style="fill:#7ba9e1;font-family:微软雅黑;font-size:11.00pt;font-weight:bold"><tspan x="21.2" y="21.5">赞扬（PH）</tspan></text></g><g transform="translate(309.000500,489.633000)" id="shape76"><text xml:space="preserve" style="fill:#7ba9e1;font-family:微软雅黑;font-size:11.00pt;font-weight:bold"><tspan x="21.7" y="21.5">相信（PG）</tspan></text></g><g transform="translate(452.478500,477.367000)" id="shape77"><text xml:space="preserve" style="fill:#7ba9e1;font-family:微软雅黑;font-size:11.00pt;font-weight:bold"><tspan x="22.2" y="21.5">喜爱（PB）</tspan></text></g><g transform="translate(620.582500,484.045000)" id="shape78"><text xml:space="preserve" style="fill:#7ba9e1;font-family:微软雅黑;font-size:11.00pt;font-weight:bold"><tspan x="22.2" y="21.5">祝愿（PK）</tspan></text></g><g transform="translate(76.000000,603.862000)" id="shape79"><path fill-rule="nonzero" d="M90.2,24.8C92.5,22.6,94.0,19.5,94.0,16.0L94.0,14.0C94.0,12.9,94.1,11.3,93.8,10.0C92.9,4.3,87.9,.0,82.0,.0L21.0,.0C16.0,.0,8.2,-0.9,3.8,3.2C1.5,5.4,.0,8.5,.0,12.0L.0,14.0C.0,15.1,-0.1,16.7,.2,18.0C1.1,23.7,6.1,28.0,12.0,28.0L73.0,28.0C78.0,28.0,85.8,28.9,90.2,24.8z" fill="url(#lg2)"/><text xml:space="preserve" style="fill:#598d64;font-family:微软雅黑;font-size:10.00pt"><tspan x="20.0" y="16.5">献上膝盖</tspan></text></g><g transform="translate(50.000000,555.862000)" id="shape80"><path fill-rule="nonzero" d="M106.2,24.8C108.5,22.6,110.0,19.5,110.0,16.0L110.0,14.0C110.0,12.9,110.0,11.3,109.8,10.0C108.9,4.3,103.9,.0,98.0,.0L21.0,.0C16.0,.0,8.2,-0.9,3.8,3.2C1.5,5.4,.0,8.5,.0,12.0L.0,14.0C.0,15.1,-0.1,16.7,.2,18.0C1.1,23.7,6.1,28.0,12.0,28.0L89.0,28.0C93.9,28.0,101.7,28.9,106.2,24.8z" fill="url(#lg3)"/><text xml:space="preserve" style="fill:#598d64;font-family:微软雅黑;font-size:10.00pt"><tspan x="14.5" y="16.5">收下我的膝盖</tspan></text></g><g transform="translate(162.000000,528.931000)" id="shape81"><path fill-rule="nonzero" d="M118.1,24.8C120.5,22.6,122.0,19.5,122.0,16.0L122.0,14.0C122.0,12.9,122.0,11.3,121.8,10.0C120.8,4.3,115.9,.0,110.0,.0L21.0,.0C16.0,.0,8.2,-0.9,3.8,3.2C1.5,5.4,.0,8.5,.0,12.0L.0,14.0C.0,15.1,-0.1,16.7,.2,18.0C1.1,23.7,6.1,28.0,12.0,28.0L101.0,28.0C105.9,28.0,113.7,28.9,118.1,24.8z" fill="url(#lg4)"/><text xml:space="preserve" style="fill:#598d64;font-family:微软雅黑;font-size:10.00pt"><tspan x="20.5" y="16.5">这是什么神仙</tspan></text></g><g transform="translate(218.000000,571.862000)" id="shape82"><path fill-rule="nonzero" d="M90.2,24.8C92.5,22.6,94.0,19.5,94.0,16.0L94.0,14.0C94.0,12.9,94.1,11.3,93.8,10.0C92.9,4.3,87.9,.0,82.0,.0L21.0,.0C16.0,.0,8.2,-0.9,3.8,3.2C1.5,5.4,.0,8.5,.0,12.0L.0,14.0C.0,15.1,-0.1,16.7,.2,18.0C1.1,23.7,6.1,28.0,12.0,28.0L73.0,28.0C78.0,28.0,85.8,28.9,90.2,24.8z" fill="url(#lg2)"/><text xml:space="preserve" style="fill:#598d64;font-family:微软雅黑;font-size:10.00pt"><tspan x="20.0" y="16.5">盛世美颜</tspan></text></g><g transform="translate(188.000000,626.862000)" id="shape83"><path fill-rule="nonzero" d="M90.2,24.8C92.5,22.6,94.0,19.5,94.0,16.0L94.0,14.0C94.0,12.9,94.1,11.3,93.8,10.0C92.9,4.3,87.9,.0,82.0,.0L21.0,.0C16.0,.0,8.2,-0.9,3.8,3.2C1.5,5.4,.0,8.5,.0,12.0L.0,14.0C.0,15.1,-0.1,16.7,.2,18.0C1.1,23.7,6.1,28.0,12.0,28.0L73.0,28.0C78.0,28.0,85.8,28.9,90.2,24.8z" fill="url(#lg2)"/><text xml:space="preserve" style="fill:#598d64;font-family:微软雅黑;font-size:10.00pt"><tspan x="26.8" y="16.5">不愧是</tspan></text></g><g transform="translate(337.000000,555.862000)" id="shape84"><path fill-rule="nonzero" d="M90.2,24.8C92.5,22.6,94.0,19.5,94.0,16.0L94.0,14.0C94.0,12.9,94.1,11.3,93.8,10.0C92.9,4.3,87.9,.0,82.0,.0L21.0,.0C16.0,.0,8.2,-0.9,3.8,3.2C1.5,5.4,.0,8.5,.0,12.0L.0,14.0C.0,15.1,-0.1,16.7,.2,18.0C1.1,23.7,6.1,28.0,12.0,28.0L73.0,28.0C78.0,28.0,85.8,28.9,90.2,24.8z" fill="url(#lg2)"/><text xml:space="preserve" style="fill:#598d64;font-family:微软雅黑;font-size:10.00pt"><tspan x="7.3" y="16.5">让她/他/它恰</tspan></text></g><g transform="translate(309.000000,600.000000)" id="shape85"><path fill-rule="nonzero" d="M90.2,24.8C92.5,22.6,94.0,19.5,94.0,16.0L94.0,14.0C94.0,12.9,94.1,11.3,93.8,10.0C92.9,4.3,87.9,.0,82.0,.0L21.0,.0C16.0,.0,8.2,-0.9,3.8,3.2C1.5,5.4,.0,8.5,.0,12.0L.0,14.0C.0,15.1,-0.1,16.7,.2,18.0C1.1,23.7,6.1,28.0,12.0,28.0L73.0,28.0C78.0,28.0,85.8,28.9,90.2,24.8z" fill="url(#lg2)"/><text xml:space="preserve" style="fill:#598d64;font-family:微软雅黑;font-size:10.00pt"><tspan x="26.8" y="16.5">对对对</tspan></text></g><g transform="translate(360.000000,636.000000)" id="shape86"><path fill-rule="nonzero" d="M90.2,24.8C92.5,22.6,94.0,19.5,94.0,16.0L94.0,14.0C94.0,12.9,94.1,11.3,93.8,10.0C92.9,4.3,87.9,.0,82.0,.0L21.0,.0C16.0,.0,8.2,-0.9,3.8,3.2C1.5,5.4,.0,8.5,.0,12.0L.0,14.0C.0,15.1,-0.1,16.7,.2,18.0C1.1,23.7,6.1,28.0,12.0,28.0L73.0,28.0C78.0,28.0,85.8,28.9,90.2,24.8z" fill="url(#lg2)"/><text xml:space="preserve" style="fill:#598d64;font-family:微软雅黑;font-size:10.00pt"><tspan x="26.8" y="16.5">是我了</tspan></text></g><g transform="translate(445.000000,528.931000)" id="shape87"><path fill-rule="nonzero" d="M90.2,24.8C92.5,22.6,94.0,19.5,94.0,16.0L94.0,14.0C94.0,12.9,94.1,11.3,93.8,10.0C92.9,4.3,87.9,.0,82.0,.0L21.0,.0C16.0,.0,8.2,-0.9,3.8,3.2C1.5,5.4,.0,8.5,.0,12.0L.0,14.0C.0,15.1,-0.1,16.7,.2,18.0C1.1,23.7,6.1,28.0,12.0,28.0L73.0,28.0C78.0,28.0,85.8,28.9,90.2,24.8z" fill="url(#lg2)"/><text xml:space="preserve" style="fill:#598d64;font-family:微软雅黑;font-size:10.00pt"><tspan x="26.8" y="16.5">我可以</tspan></text></g><g transform="translate(466.454000,578.000000)" id="shape88"><path fill-rule="nonzero" d="M170.2,24.8C172.5,22.6,174.0,19.5,174.0,16.0L174.0,14.0C174.0,12.9,174.1,11.3,173.8,10.0C172.9,4.3,167.9,.0,162.0,.0L21.0,.0C16.0,.0,8.2,-0.9,3.8,3.2C1.5,5.4,.0,8.5,.0,12.0L.0,14.0C.0,15.1,-0.1,16.7,.2,18.0C1.1,23.7,6.1,28.0,12.0,28.0L153.0,28.0C158.0,28.0,165.8,28.9,170.2,24.8z" fill="url(#lg5)"/><text xml:space="preserve" style="fill:#598d64;font-family:微软雅黑;font-size:10.00pt"><tspan x="26.2" y="16.5">鬼知道我看了多少遍</tspan></text></g><g transform="translate(495.012300,621.069000)" id="shape89"><path fill-rule="nonzero" d="M72.2,24.8C74.5,22.6,76.0,19.5,76.0,16.0L76.0,14.0C76.0,12.9,76.0,11.3,75.8,10.0C74.9,4.3,69.9,.0,64.0,.0L21.0,.0C16.0,.0,8.2,-0.9,3.8,3.2C1.5,5.4,.0,8.5,.0,12.0L.0,14.0C.0,15.1,-0.1,16.7,.2,18.0C1.1,23.7,6.1,28.0,12.0,28.0L55.0,28.0C60.0,28.0,67.7,28.9,72.2,24.8z" fill="url(#lg6)"/><text xml:space="preserve" style="fill:#598d64;font-family:微软雅黑;font-size:10.00pt"><tspan x="24.5" y="16.5">绝美</tspan></text></g><g transform="translate(600.000000,529.000000)" id="shape90"><path fill-rule="nonzero" d="M90.2,24.8C92.5,22.6,94.0,19.5,94.0,16.0L94.0,14.0C94.0,12.9,94.1,11.3,93.8,10.0C92.9,4.3,87.9,.0,82.0,.0L21.0,.0C16.0,.0,8.2,-0.9,3.8,3.2C1.5,5.4,.0,8.5,.0,12.0L.0,14.0C.0,15.1,-0.1,16.7,.2,18.0C1.1,23.7,6.1,28.0,12.0,28.0L73.0,28.0C78.0,28.0,85.8,28.9,90.2,24.8z" fill="url(#lg2)"/><text xml:space="preserve" style="fill:#598d64;font-family:微软雅黑;font-size:10.00pt"><tspan x="20.0" y="16.5">借你吉言</tspan></text></g><g transform="translate(642.816000,571.931000)" id="shape91"><path fill-rule="nonzero" d="M90.2,24.8C92.5,22.6,94.0,19.5,94.0,16.0L94.0,14.0C94.0,12.9,94.1,11.3,93.8,10.0C92.9,4.3,87.9,.0,82.0,.0L21.0,.0C16.0,.0,8.2,-0.9,3.8,3.2C1.5,5.4,.0,8.5,.0,12.0L.0,14.0C.0,15.1,-0.1,16.7,.2,18.0C1.1,23.7,6.1,28.0,12.0,28.0L73.0,28.0C78.0,28.0,85.8,28.9,90.2,24.8z" fill="url(#lg2)"/><text xml:space="preserve" style="fill:#598d64;font-family:微软雅黑;font-size:10.00pt"><tspan x="20.0" y="16.5">早日康复</tspan></text></g><g transform="translate(621.000000,627.000000)" id="shape92"><path fill-rule="nonzero" d="M90.2,24.8C92.5,22.6,94.0,19.5,94.0,16.0L94.0,14.0C94.0,12.9,94.1,11.3,93.8,10.0C92.9,4.3,87.9,.0,82.0,.0L21.0,.0C16.0,.0,8.2,-0.9,3.8,3.2C1.5,5.4,.0,8.5,.0,12.0L.0,14.0C.0,15.1,-0.1,16.7,.2,18.0C1.1,23.7,6.1,28.0,12.0,28.0L73.0,28.0C78.0,28.0,85.8,28.9,90.2,24.8z" fill="url(#lg2)"/><text xml:space="preserve" style="fill:#598d64;font-family:微软雅黑;font-size:10.00pt"><tspan x="20.0" y="16.5">嘶哈嘶哈</tspan></text></g><g transform="translate(856.050000,262.000000)" id="group93"><path fill-rule="nonzero" d="M.0,21.0C.0,32.7,9.4,42.1,21.0,42.1C32.7,42.1,42.1,32.7,42.1,21.0C42.1,9.4,32.7,.0,21.0,.0C9.4,.0,.0,9.4,.0,21.0z" transform="translate(0.937500,0.937500)" fill="#75eae4" id="shape94"/><path fill-rule="nonzero" d="M22.0,44.0C19.0,44.0,16.1,43.4,13.4,42.2C10.8,41.1,8.5,39.5,6.4,37.5C4.4,35.5,2.8,33.1,1.7,30.5C.6,27.8,.0,24.9,.0,22.0C.0,19.0,.6,16.1,1.7,13.4C2.8,10.8,4.4,8.5,6.4,6.4C8.5,4.4,10.8,2.8,13.4,1.7C16.1,.6,19.0,.0,22.0,.0C24.9,.0,27.8,.6,30.5,1.7C33.1,2.8,35.5,4.4,37.5,6.4C39.5,8.5,41.1,10.8,42.2,13.4C43.4,16.1,44.0,19.0,44.0,22.0C44.0,24.9,43.4,27.8,42.2,30.5C41.1,33.1,39.5,35.5,37.5,37.5C35.5,39.5,33.1,41.1,30.5,42.2C27.8,43.4,24.9,44.0,22.0,44.0zM22.0,1.9C19.3,1.9,16.6,2.4,14.2,3.5C11.8,4.5,9.6,5.9,7.8,7.8C5.9,9.6,4.5,11.8,3.5,14.2C2.4,16.6,1.9,19.3,1.9,22.0C1.9,24.7,2.4,27.3,3.5,29.8C4.5,32.2,5.9,34.3,7.8,36.2C9.6,38.0,11.8,39.5,14.2,40.5C16.6,41.5,19.3,42.1,22.0,42.1C24.7,42.1,27.3,41.5,29.8,40.5C32.2,39.5,34.3,38.0,36.2,36.2C38.0,34.3,39.5,32.2,40.5,29.8C41.5,27.3,42.1,24.7,42.1,22.0C42.1,19.3,41.5,16.6,40.5,14.2C39.5,11.8,38.0,9.6,36.2,7.8C34.3,5.9,32.2,4.5,29.8,3.5C27.3,2.4,24.7,1.9,22.0,1.9z" fill="#05c4ce" id="shape95"/><path fill-rule="nonzero" d="M.0,19.8C.0,30.8,9.0,39.6,20.1,39.6C31.3,39.6,40.3,30.8,40.3,19.8C40.3,8.9,31.3,.0,20.1,.0C9.0,.0,.0,8.9,.0,19.8z" transform="translate(2.742200,0.937500)" fill="#ffffff" id="shape96"/><path fill-rule="nonzero" d="M.0,2.3C.0,3.6,.9,4.6,2.1,4.6C3.2,4.6,4.1,3.6,4.1,2.3C4.1,1.0,3.2,.0,2.1,.0C.9,.0,.0,1.0,.0,2.3z" transform="translate(14.437530,7.898490)" fill="#05c4ce" id="shape97"/><path fill-rule="nonzero" d="M.0,2.3C.0,3.6,.9,4.6,2.1,4.6C3.2,4.6,4.1,3.6,4.1,2.3C4.1,1.0,3.2,.0,2.1,.0C.9,.0,.0,1.0,.0,2.3z" transform="translate(25.368720,7.898490)" fill="#05c4ce" id="shape98"/><path fill-rule="nonzero" d="M.9,4.6C.4,4.6,.0,4.2,.0,3.7C-0.0,2.7,.3,1.8,1.0,1.1C1.7,.4,2.6,.0,3.5,.0C5.5,-0.0,7.1,1.5,7.2,3.5C7.2,4.0,6.8,4.5,6.3,4.5C5.7,4.5,5.3,4.1,5.3,3.6C5.3,2.6,4.5,1.9,3.6,1.9C3.1,1.9,2.7,2.1,2.4,2.4C2.0,2.7,1.9,3.2,1.9,3.6C1.9,4.1,1.5,4.6,1.0,4.6C.9,4.6,.9,4.6,.9,4.6z" transform="translate(18.411790,11.816710)" fill="#05c4ce" id="shape99"/><path fill-rule="nonzero" d="M.0,1.4C.0,2.2,1.2,2.7,2.6,2.7C4.0,2.6,5.1,2.0,5.0,1.2C5.0,.5,3.9,-0.1,2.5,.0C1.1,.1,-0.0,.7,.0,1.4z" transform="translate(8.579700,11.697080)" fill="#75eae4" id="shape100"/><path fill-rule="nonzero" d="M.0,1.4C.0,2.2,1.2,2.7,2.6,2.7C4.0,2.6,5.1,2.0,5.0,1.2C5.0,.5,3.9,-0.1,2.5,.0C1.1,.1,-0.0,.7,.0,1.4z" transform="translate(30.324900,10.820370)" fill="#75eae4" id="shape101"/><path fill-rule="nonzero" d="M22.0,44.0C19.0,44.0,16.1,43.4,13.4,42.2C10.8,41.1,8.5,39.5,6.4,37.5C4.4,35.5,2.8,33.1,1.7,30.5C.6,27.8,.0,24.9,.0,22.0C.0,19.0,.6,16.1,1.7,13.4C2.8,10.8,4.4,8.5,6.4,6.4C8.5,4.4,10.8,2.8,13.4,1.7C16.1,.6,19.0,.0,22.0,.0C24.9,.0,27.8,.6,30.5,1.7C33.1,2.8,35.5,4.4,37.5,6.4C39.5,8.5,41.1,10.8,42.2,13.4C43.4,16.1,44.0,19.0,44.0,22.0C44.0,24.9,43.4,27.8,42.2,30.5C41.1,33.1,39.5,35.5,37.5,37.5C35.5,39.5,33.1,41.1,30.5,42.2C27.8,43.4,24.9,44.0,22.0,44.0zM22.0,1.9C19.3,1.9,16.6,2.4,14.2,3.5C11.8,4.5,9.6,5.9,7.8,7.8C5.9,9.6,4.5,11.8,3.5,14.2C2.4,16.6,1.9,19.3,1.9,22.0C1.9,24.7,2.4,27.3,3.5,29.8C4.5,32.2,5.9,34.3,7.8,36.2C9.6,38.0,11.8,39.5,14.2,40.5C16.6,41.5,19.3,42.1,22.0,42.1C24.7,42.1,27.3,41.5,29.8,40.5C32.2,39.5,34.3,38.0,36.2,36.2C38.0,34.3,39.5,32.2,40.5,29.8C41.5,27.3,42.1,24.7,42.1,22.0C42.1,19.3,41.5,16.6,40.5,14.2C39.5,11.8,38.0,9.6,36.2,7.8C34.3,5.9,32.2,4.5,29.8,3.5C27.3,2.4,24.7,1.9,22.0,1.9z" fill="#05c4ce" id="shape102"/><path fill-rule="nonzero" d="M5.9,3.0C5.8,3.0,5.7,3.0,5.7,3.0L.7,1.9C.2,1.7,-0.1,1.2,.0,.7C.1,.2,.6,-0.1,1.1,.0L6.1,1.2C6.6,1.3,6.9,1.8,6.8,2.3C6.7,2.7,6.3,3.0,5.9,3.0zM12.5,3.0C12.1,3.0,11.7,2.7,11.6,2.3C11.5,1.8,11.8,1.3,12.3,1.2L17.3,.0C17.8,-0.1,18.3,.2,18.4,.7C18.5,1.2,18.2,1.7,17.7,1.8L12.7,3.0C12.7,3.0,12.6,3.0,12.5,3.0z" transform="translate(12.692390,5.080160)" fill="#05c4ce" id="shape103"/></g><path fill-rule="nonzero" stroke-width="1" stroke="#94b6e0" d="M10.8,11.8L9.8,13.4C8.8,12.8,7.8,12.2,6.8,11.7C5.4,12.8,3.5,13.8,1.1,14.7C.9,14.2,.5,13.6,.2,13.1C2.3,12.5,4.0,11.8,5.3,10.8C3.9,10.1,2.5,9.5,1.1,8.9C1.7,7.5,2.3,6.1,2.8,4.5L.4,4.5L.4,2.9L3.4,2.9C3.6,2.0,3.9,1.0,4.2,.0L6.0,.4C5.7,1.3,5.4,2.1,5.1,2.9L10.6,2.9L10.6,4.5C10.1,6.9,9.3,8.9,8.1,10.4C9.0,10.9,9.9,11.3,10.8,11.8zM12.0,4.4L13.5,3.7C14.4,5.8,15.4,7.5,16.8,8.8C18.0,7.4,19.0,5.6,19.7,3.2L12.0,3.2L12.0,1.6L21.5,1.6L21.5,3.2C20.7,6.1,19.6,8.3,18.0,10.0C19.5,11.2,21.3,12.0,23.2,12.5C22.8,13.1,22.5,13.7,22.3,14.2C20.2,13.5,18.4,12.5,16.8,11.2C15.4,12.4,13.8,13.3,11.9,14.1C11.6,13.6,11.3,13.1,10.8,12.5C12.7,11.8,14.3,11.0,15.5,10.0C14.1,8.5,12.9,6.6,12.0,4.4zM5.9,15.5L7.7,15.5L7.7,19.7C7.7,20.7,8.3,21.2,9.5,21.2L13.4,21.2C14.9,21.2,15.7,20.8,15.8,20.0C15.9,19.4,16.1,18.5,16.3,17.3C16.8,17.5,17.4,17.7,18.1,18.0C17.9,18.9,17.7,19.8,17.5,20.6C17.1,22.1,15.9,22.8,13.9,22.8L9.2,22.8C7.0,22.8,5.9,21.8,5.9,19.9L5.9,15.5zM8.9,4.5L4.5,4.5C4.1,5.7,3.6,6.9,3.2,8.0C4.2,8.5,5.4,9.1,6.6,9.7C7.7,8.3,8.5,6.6,8.9,4.5zM2.3,15.5L4.0,16.1C3.4,18.1,2.6,20.0,1.7,21.7C1.3,21.4,.7,21.1,.0,20.8C.9,19.2,1.6,17.5,2.3,15.5zM18.9,15.9L20.4,15.1C21.4,16.7,22.2,18.3,23.0,19.9L21.2,20.8C20.4,19.0,19.7,17.4,18.9,15.9zM9.7,14.9L11.0,13.8C12.1,15.0,13.0,16.1,13.9,17.2L12.4,18.4C11.5,17.1,10.6,15.9,9.7,14.9z" transform="translate(915.450700,271.845700)" fill="#7ba9e1" id="shape104"/><g transform="translate(838.000500,306.000000)" id="shape105"><text xml:space="preserve" style="fill:#7ba9e1;font-family:微软雅黑;font-size:11.00pt;font-weight:bold"><tspan x="20.2" y="21.5">愤怒（NA）</tspan></text></g><g transform="translate(865.951000,341.500000)" id="shape106"><path fill-rule="nonzero" d="M90.2,24.8C92.5,22.6,94.0,19.5,94.0,16.0L94.0,14.0C94.0,12.9,94.1,11.3,93.8,10.0C92.9,4.3,87.9,.0,82.0,.0L21.0,.0C16.0,.0,8.2,-0.9,3.8,3.2C1.5,5.4,.0,8.5,.0,12.0L.0,14.0C.0,15.1,-0.1,16.7,.2,18.0C1.1,23.7,6.1,28.0,12.0,28.0L73.0,28.0C78.0,28.0,85.8,28.9,90.2,24.8z" fill="url(#lg7)"/><text xml:space="preserve" style="fill:#5769bc;font-family:微软雅黑;font-size:10.00pt"><tspan x="20.0" y="16.5">突如其来</tspan></text></g><g transform="translate(957.000000,376.060000)" id="shape107"><path fill-rule="nonzero" d="M90.2,24.8C92.5,22.6,94.0,19.5,94.0,16.0L94.0,14.0C94.0,12.9,94.1,11.3,93.8,10.0C92.9,4.3,87.9,.0,82.0,.0L21.0,.0C16.0,.0,8.2,-0.9,3.8,3.2C1.5,5.4,.0,8.5,.0,12.0L.0,14.0C.0,15.1,-0.1,16.7,.2,18.0C1.1,23.7,6.1,28.0,12.0,28.0L73.0,28.0C78.0,28.0,85.8,28.9,90.2,24.8z" fill="url(#lg7)"/><text xml:space="preserve" style="fill:#5769bc;font-family:微软雅黑;font-size:10.00pt"><tspan x="26.8" y="16.5">戏太足</tspan></text></g><g transform="translate(856.050000,419.130000)" id="shape108"><path fill-rule="nonzero" d="M90.2,24.8C92.5,22.6,94.0,19.5,94.0,16.0L94.0,14.0C94.0,12.9,94.1,11.3,93.8,10.0C92.9,4.3,87.9,.0,82.0,.0L21.0,.0C16.0,.0,8.2,-0.9,3.8,3.2C1.5,5.4,.0,8.5,.0,12.0L.0,14.0C.0,15.1,-0.1,16.7,.2,18.0C1.1,23.7,6.1,28.0,12.0,28.0L73.0,28.0C78.0,28.0,85.8,28.9,90.2,24.8z" fill="url(#lg7)"/><text xml:space="preserve" style="fill:#5769bc;font-family:微软雅黑;font-size:10.00pt"><tspan x="33.5" y="16.5">真狠</tspan></text></g><g transform="translate(995.000000,427.000000)" id="shape109"><path fill-rule="nonzero" d="M90.2,24.8C92.5,22.6,94.0,19.5,94.0,16.0L94.0,14.0C94.0,12.9,94.1,11.3,93.8,10.0C92.9,4.3,87.9,.0,82.0,.0L21.0,.0C16.0,.0,8.2,-0.9,3.8,3.2C1.5,5.4,.0,8.5,.0,12.0L.0,14.0C.0,15.1,-0.1,16.7,.2,18.0C1.1,23.7,6.1,28.0,12.0,28.0L73.0,28.0C78.0,28.0,85.8,28.9,90.2,24.8z" fill="url(#lg7)"/><text xml:space="preserve" style="fill:#5769bc;font-family:微软雅黑;font-size:10.00pt"><tspan x="33.5" y="16.5">低配</tspan></text></g><g transform="translate(1004.000000,325.120000)" id="shape110"><path fill-rule="nonzero" d="M90.2,24.8C92.5,22.6,94.0,19.5,94.0,16.0L94.0,14.0C94.0,12.9,94.1,11.3,93.8,10.0C92.9,4.3,87.9,.0,82.0,.0L21.0,.0C16.0,.0,8.2,-0.9,3.8,3.2C1.5,5.4,.0,8.5,.0,12.0L.0,14.0C.0,15.1,-0.1,16.7,.2,18.0C1.1,23.7,6.1,28.0,12.0,28.0L73.0,28.0C78.0,28.0,85.8,28.9,90.2,24.8z" fill="url(#lg7)"/><text xml:space="preserve" style="fill:#5769bc;font-family:微软雅黑;font-size:10.00pt"><tspan x="20.0" y="16.5">闷闷不乐</tspan></text></g><path fill-rule="nonzero" stroke-width="1" stroke="#94b6e0" d="M20.5,13.6L21.8,15.2C19.9,16.1,18.2,17.0,16.5,17.8C18.3,19.2,20.6,20.2,23.4,20.7C22.9,21.4,22.4,22.0,22.1,22.6C17.0,21.3,13.5,18.3,11.3,13.4C10.3,14.5,9.2,15.5,8.0,16.5L8.0,20.8C9.9,20.2,11.8,19.5,13.7,18.7C13.6,19.5,13.6,20.2,13.7,20.8C9.9,22.0,7.6,22.9,6.7,23.4L5.6,21.8C6.0,21.4,6.3,21.0,6.3,20.4L6.3,17.7C4.7,18.7,3.0,19.6,1.1,20.4C.8,19.8,.4,19.2,.0,18.7C3.7,17.4,6.8,15.5,9.3,13.1L4.9,13.1L4.9,14.1L3.2,14.1L3.2,6.4L20.3,6.4L20.3,13.7L18.5,13.7L18.5,13.1L13.0,13.1C13.6,14.4,14.4,15.6,15.3,16.7C16.9,15.9,18.6,14.9,20.5,13.6zM18.5,11.6L18.5,7.9L4.9,7.9L4.9,11.6L18.5,11.6zM.6,2.8L11.4,2.8C11.0,2.2,10.6,1.5,10.1,.9L11.6,.0C12.4,.9,13.0,1.7,13.4,2.3L12.5,2.8L22.9,2.8L22.9,4.4L.6,4.4L.6,2.8z" transform="translate(407.560700,272.779000)" fill="#7ba9e1" id="shape111"/><g transform="translate(761.079687,484.672844)" id="group112"><path fill-rule="nonzero" d="M.0,21.5C.0,33.4,9.6,43.0,21.5,43.0C33.4,43.0,43.0,33.4,43.0,21.5C43.0,9.6,33.4,.0,21.5,.0C9.6,.0,.0,9.6,.0,21.5z" transform="translate(0.937500,0.942188)" fill="#75eae4" id="shape113"/><path fill-rule="nonzero" d="M22.5,44.9C19.4,44.9,16.5,44.3,13.7,43.2C11.0,42.0,8.6,40.4,6.6,38.3C4.5,36.3,2.9,33.9,1.8,31.2C.6,28.4,.0,25.5,.0,22.5C.0,19.4,.6,16.5,1.8,13.7C2.9,11.0,4.5,8.6,6.6,6.6C8.6,4.5,11.0,2.9,13.7,1.8C16.5,.6,19.4,.0,22.5,.0C25.5,.0,28.4,.6,31.2,1.8C33.9,2.9,36.3,4.5,38.3,6.6C40.4,8.6,42.0,11.0,43.2,13.7C44.3,16.5,44.9,19.4,44.9,22.5C44.9,25.5,44.3,28.4,43.2,31.2C42.0,33.9,40.4,36.3,38.3,38.3C36.3,40.4,33.9,42.0,31.2,43.2C28.4,44.3,25.5,44.9,22.5,44.9zM22.5,1.9C19.7,1.9,17.0,2.4,14.4,3.5C12.0,4.5,9.8,6.0,7.9,7.9C6.0,9.8,4.5,12.0,3.5,14.5C2.4,17.0,1.9,19.7,1.9,22.5C1.9,25.2,2.4,27.9,3.5,30.5C4.5,32.9,6.0,35.1,7.9,37.0C9.8,38.9,12.0,40.4,14.4,41.4C17.0,42.5,19.7,43.0,22.5,43.0C25.2,43.0,27.9,42.5,30.5,41.4C32.9,40.4,35.1,38.9,37.0,37.0C38.9,35.1,40.4,32.9,41.4,30.5C42.5,27.9,43.0,25.2,43.0,22.5C43.0,19.7,42.5,17.0,41.4,14.5C40.4,12.0,38.9,9.8,37.0,7.9C35.1,6.0,32.9,4.5,30.5,3.5C27.9,2.4,25.2,1.9,22.5,1.9z" fill="#05c4ce" id="shape114"/><path fill-rule="nonzero" d="M.0,20.3C.0,31.5,9.2,40.6,20.6,40.6C32.0,40.6,41.2,31.5,41.2,20.3C41.2,9.1,32.0,.0,20.6,.0C9.2,.0,.0,9.1,.0,20.3z" transform="translate(2.784375,0.942188)" fill="#ffffff" id="shape115"/><path fill-rule="nonzero" d="M22.5,44.9C19.4,44.9,16.5,44.3,13.7,43.2C11.0,42.0,8.6,40.4,6.6,38.3C4.5,36.3,2.9,33.9,1.8,31.2C.6,28.4,.0,25.5,.0,22.5C.0,19.4,.6,16.5,1.8,13.7C2.9,11.0,4.5,8.6,6.6,6.6C8.6,4.5,11.0,2.9,13.7,1.8C16.5,.6,19.4,.0,22.5,.0C25.5,.0,28.4,.6,31.2,1.8C33.9,2.9,36.3,4.5,38.3,6.6C40.4,8.6,42.0,11.0,43.2,13.7C44.3,16.5,44.9,19.4,44.9,22.5C44.9,25.5,44.3,28.4,43.2,31.2C42.0,33.9,40.4,36.3,38.3,38.3C36.3,40.4,33.9,42.0,31.2,43.2C28.4,44.3,25.5,44.9,22.5,44.9zM22.5,1.9C19.7,1.9,17.0,2.4,14.4,3.5C12.0,4.5,9.8,6.0,7.9,7.9C6.0,9.8,4.5,12.0,3.5,14.5C2.4,17.0,1.9,19.7,1.9,22.5C1.9,25.2,2.4,27.9,3.5,30.5C4.5,32.9,6.0,35.1,7.9,37.0C9.8,38.9,12.0,40.4,14.4,41.4C17.0,42.5,19.7,43.0,22.5,43.0C25.2,43.0,27.9,42.5,30.5,41.4C32.9,40.4,35.1,38.9,37.0,37.0C38.9,35.1,40.4,32.9,41.4,30.5C42.5,27.9,43.0,25.2,43.0,22.5C43.0,19.7,42.5,17.0,41.4,14.5C40.4,12.0,38.9,9.8,37.0,7.9C35.1,6.0,32.9,4.5,30.5,3.5C27.9,2.4,25.2,1.9,22.5,1.9z" fill="#05c4ce" id="shape116"/><path fill-rule="nonzero" d="M.0,2.4C.0,3.7,.9,4.7,2.1,4.7C3.3,4.7,4.2,3.7,4.2,2.4C4.2,1.1,3.3,.0,2.1,.0C.9,.0,.0,1.1,.0,2.4z" transform="translate(14.746875,5.685938)" fill="#05c4ce" id="shape117"/><path fill-rule="nonzero" d="M.0,2.4C.0,3.7,.9,4.7,2.1,4.7C3.3,4.7,4.2,3.7,4.2,2.4C4.2,1.1,3.3,.0,2.1,.0C.9,.0,.0,1.1,.0,2.4z" transform="translate(25.931250,5.685938)" fill="#05c4ce" id="shape118"/><path fill-rule="nonzero" d="M.0,4.4C.0,5.9,1.2,7.0,2.7,7.0C4.1,7.0,5.3,5.9,5.3,4.4C5.3,2.9,2.7,.0,2.7,.0C2.7,.0,.0,2.9,.0,4.4z" transform="translate(31.818750,4.537500)" fill="#75eae4" id="shape119"/><path fill-rule="nonzero" d="M.0,2.3C.0,3.6,1.0,4.6,2.2,4.6C3.4,4.6,4.4,3.6,4.4,2.3C4.4,1.0,3.4,.0,2.2,.0C1.0,.0,.0,1.0,.0,2.3z" transform="translate(20.273438,10.429688)" fill="#05c4ce" id="shape120"/><path fill-rule="nonzero" d="M1.6,.0C.9,.0,.3,.4,.0,.9C.4,1.4,1.0,1.7,1.6,1.7C2.2,1.7,2.8,1.4,3.2,.9C2.9,.4,2.3,.0,1.6,.0z" transform="translate(20.864063,13.387500)" fill="#75eae4" id="shape121"/></g><path fill-rule="nonzero" stroke-width="1" stroke="#94b6e0" d="M8.8,7.0L21.0,7.0L21.0,14.8L19.3,14.8L19.3,14.1L15.7,14.1L15.7,20.1C15.7,22.0,14.8,23.0,13.1,23.0C12.3,23.0,11.5,23.0,10.5,23.0C10.4,22.4,10.3,21.7,10.1,21.1C10.9,21.2,11.7,21.2,12.5,21.2C13.4,21.2,13.9,20.7,13.9,19.8L13.9,14.1L10.5,14.1L10.5,14.8L8.8,14.8L8.8,7.0zM19.3,8.6L10.5,8.6L10.5,12.5L19.3,12.5L19.3,8.6zM7.2,2.9L13.9,2.9C13.5,2.2,13.2,1.5,12.7,.7L14.4,.0C14.9,.9,15.4,1.9,15.9,2.9L22.9,2.9L22.9,4.6L7.2,4.6L7.2,2.9zM5.8,21.1C7.1,19.7,8.5,17.9,9.8,15.7L11.4,16.5C10.0,18.8,8.7,20.7,7.3,22.2C6.9,21.9,6.4,21.5,5.8,21.1zM17.9,16.6L19.3,15.7C20.8,17.6,22.1,19.4,23.3,21.1L21.7,22.2C20.4,20.2,19.2,18.3,17.9,16.6zM2.1,5.7C2.0,7.9,1.8,9.8,1.6,11.3C1.1,11.2,.5,11.1,.0,11.0C.3,9.2,.5,7.4,.6,5.6L2.1,5.7zM2.9,.3L4.6,.3L4.6,5.4L5.6,4.7C6.4,5.7,7.2,6.8,7.8,7.9L6.4,8.8C5.9,7.8,5.3,6.8,4.6,5.9L4.6,23.3L2.9,23.3L2.9,.3z" transform="translate(820.546187,495.425950)" fill="#7ba9e1" id="shape122"/><g transform="translate(337.000000,311.000000)" id="shape123"><text xml:space="preserve" style="fill:#7ba9e1;font-family:微软雅黑;font-size:11.00pt;font-weight:bold"><tspan x="20.7" y="21.5">悲伤（NB）</tspan></text></g><g transform="translate(466.454000,270.950000)" id="shape124"><text xml:space="preserve" style="fill:#7ba9e1;font-family:微软雅黑;font-size:11.00pt;font-weight:bold"><tspan x="22.2" y="21.5">失望（NJ）</tspan></text></g><g transform="translate(586.024500,288.000000)" id="shape125"><text xml:space="preserve" style="fill:#7ba9e1;font-family:微软雅黑;font-size:11.00pt;font-weight:bold"><tspan x="27.0" y="21.5">疚（NH）</tspan></text></g><g transform="translate(707.000000,272.779000)" id="shape126"><text xml:space="preserve" style="fill:#7ba9e1;font-family:微软雅黑;font-size:11.00pt;font-weight:bold"><tspan x="30.5" y="21.5">思（PF）</tspan></text></g><g transform="translate(383.000000,349.000000)" id="shape127"><path fill-rule="nonzero" d="M90.2,24.8C92.5,22.6,94.0,19.5,94.0,16.0L94.0,14.0C94.0,12.9,94.1,11.3,93.8,10.0C92.9,4.3,87.9,.0,82.0,.0L21.0,.0C16.0,.0,8.2,-0.9,3.8,3.2C1.5,5.4,.0,8.5,.0,12.0L.0,14.0C.0,15.1,-0.1,16.7,.2,18.0C1.1,23.7,6.1,28.0,12.0,28.0L73.0,28.0C78.0,28.0,85.8,28.9,90.2,24.8z" fill="url(#lg8)"/><text xml:space="preserve" style="fill:#0099cd;font-family:微软雅黑;font-size:10.00pt"><tspan x="33.5" y="16.5">穷得</tspan></text></g><g transform="translate(347.000000,389.000000)" id="shape128"><path fill-rule="nonzero" d="M90.2,24.8C92.5,22.6,94.0,19.5,94.0,16.0L94.0,14.0C94.0,12.9,94.1,11.3,93.8,10.0C92.9,4.3,87.9,.0,82.0,.0L21.0,.0C16.0,.0,8.2,-0.9,3.8,3.2C1.5,5.4,.0,8.5,.0,12.0L.0,14.0C.0,15.1,-0.1,16.7,.2,18.0C1.1,23.7,6.1,28.0,12.0,28.0L73.0,28.0C78.0,28.0,85.8,28.9,90.2,24.8z" fill="url(#lg8)"/><text xml:space="preserve" style="fill:#0099cd;font-family:微软雅黑;font-size:10.00pt"><tspan x="26.8" y="16.5">买不起</tspan></text></g><g transform="translate(383.000000,429.000000)" id="shape129"><path fill-rule="nonzero" d="M90.2,24.8C92.5,22.6,94.0,19.5,94.0,16.0L94.0,14.0C94.0,12.9,94.1,11.3,93.8,10.0C92.9,4.3,87.9,.0,82.0,.0L21.0,.0C16.0,.0,8.2,-0.9,3.8,3.2C1.5,5.4,.0,8.5,.0,12.0L.0,14.0C.0,15.1,-0.1,16.7,.2,18.0C1.1,23.7,6.1,28.0,12.0,28.0L73.0,28.0C78.0,28.0,85.8,28.9,90.2,24.8z" fill="url(#lg8)"/><text xml:space="preserve" style="fill:#0099cd;font-family:微软雅黑;font-size:10.00pt"><tspan x="33.5" y="16.5">我错</tspan></text></g><g transform="translate(490.000000,328.000000)" id="shape130"><path fill-rule="nonzero" d="M90.2,24.8C92.5,22.6,94.0,19.5,94.0,16.0L94.0,14.0C94.0,12.9,94.1,11.3,93.8,10.0C92.9,4.3,87.9,.0,82.0,.0L21.0,.0C16.0,.0,8.2,-0.9,3.8,3.2C1.5,5.4,.0,8.5,.0,12.0L.0,14.0C.0,15.1,-0.1,16.7,.2,18.0C1.1,23.7,6.1,28.0,12.0,28.0L73.0,28.0C78.0,28.0,85.8,28.9,90.2,24.8z" fill="url(#lg8)"/><text xml:space="preserve" style="fill:#0099cd;font-family:微软雅黑;font-size:10.00pt"><tspan x="13.3" y="16.5">看不下去了</tspan></text></g><g transform="translate(469.000300,389.000000)" id="shape131"><path fill-rule="nonzero" d="M90.2,24.8C92.5,22.6,94.0,19.5,94.0,16.0L94.0,14.0C94.0,12.9,94.1,11.3,93.8,10.0C92.9,4.3,87.9,.0,82.0,.0L21.0,.0C16.0,.0,8.2,-0.9,3.8,3.2C1.5,5.4,.0,8.5,.0,12.0L.0,14.0C.0,15.1,-0.1,16.7,.2,18.0C1.1,23.7,6.1,28.0,12.0,28.0L73.0,28.0C78.0,28.0,85.8,28.9,90.2,24.8z" fill="url(#lg8)"/><text xml:space="preserve" style="fill:#0099cd;font-family:微软雅黑;font-size:10.00pt"><tspan x="33.5" y="16.5">快跑</tspan></text></g><g transform="translate(586.024500,376.060000)" id="shape132"><path fill-rule="nonzero" d="M90.2,24.8C92.5,22.6,94.0,19.5,94.0,16.0L94.0,14.0C94.0,12.9,94.1,11.3,93.8,10.0C92.9,4.3,87.9,.0,82.0,.0L21.0,.0C16.0,.0,8.2,-0.9,3.8,3.2C1.5,5.4,.0,8.5,.0,12.0L.0,14.0C.0,15.1,-0.1,16.7,.2,18.0C1.1,23.7,6.1,28.0,12.0,28.0L73.0,28.0C78.0,28.0,85.8,28.9,90.2,24.8z" fill="url(#lg8)"/><text xml:space="preserve" style="fill:#0099cd;font-family:微软雅黑;font-size:10.00pt"><tspan x="33.5" y="16.5">难受</tspan></text></g><g transform="translate(620.582500,328.000000)" id="shape133"><path fill-rule="nonzero" d="M90.2,24.8C92.5,22.6,94.0,19.5,94.0,16.0L94.0,14.0C94.0,12.9,94.1,11.3,93.8,10.0C92.9,4.3,87.9,.0,82.0,.0L21.0,.0C16.0,.0,8.2,-0.9,3.8,3.2C1.5,5.4,.0,8.5,.0,12.0L.0,14.0C.0,15.1,-0.1,16.7,.2,18.0C1.1,23.7,6.1,28.0,12.0,28.0L73.0,28.0C78.0,28.0,85.8,28.9,90.2,24.8z" fill="url(#lg8)"/><text xml:space="preserve" style="fill:#0099cd;font-family:微软雅黑;font-size:10.00pt"><tspan x="33.5" y="16.5">心疼</tspan></text></g><g transform="translate(620.582500,429.000000)" id="shape134"><path fill-rule="nonzero" d="M90.2,24.8C92.5,22.6,94.0,19.5,94.0,16.0L94.0,14.0C94.0,12.9,94.1,11.3,93.8,10.0C92.9,4.3,87.9,.0,82.0,.0L21.0,.0C16.0,.0,8.2,-0.9,3.8,3.2C1.5,5.4,.0,8.5,.0,12.0L.0,14.0C.0,15.1,-0.1,16.7,.2,18.0C1.1,23.7,6.1,28.0,12.0,28.0L73.0,28.0C78.0,28.0,85.8,28.9,90.2,24.8z" fill="url(#lg8)"/><text xml:space="preserve" style="fill:#0099cd;font-family:微软雅黑;font-size:10.00pt"><tspan x="33.5" y="16.5">冻死</tspan></text></g><g transform="translate(734.951000,341.500000)" id="shape135"><path fill-rule="nonzero" d="M90.2,24.8C92.5,22.6,94.0,19.5,94.0,16.0L94.0,14.0C94.0,12.9,94.1,11.3,93.8,10.0C92.9,4.3,87.9,.0,82.0,.0L21.0,.0C16.0,.0,8.2,-0.9,3.8,3.2C1.5,5.4,.0,8.5,.0,12.0L.0,14.0C.0,15.1,-0.1,16.7,.2,18.0C1.1,23.7,6.1,28.0,12.0,28.0L73.0,28.0C78.0,28.0,85.8,28.9,90.2,24.8z" fill="url(#lg8)"/><text xml:space="preserve" style="fill:#0099cd;font-family:微软雅黑;font-size:10.00pt"><tspan x="33.5" y="16.5">超凡</tspan></text></g><g transform="translate(712.000000,396.000000)" id="shape136"><path fill-rule="nonzero" d="M90.2,24.8C92.5,22.6,94.0,19.5,94.0,16.0L94.0,14.0C94.0,12.9,94.1,11.3,93.8,10.0C92.9,4.3,87.9,.0,82.0,.0L21.0,.0C16.0,.0,8.2,-0.9,3.8,3.2C1.5,5.4,.0,8.5,.0,12.0L.0,14.0C.0,15.1,-0.1,16.7,.2,18.0C1.1,23.7,6.1,28.0,12.0,28.0L73.0,28.0C78.0,28.0,85.8,28.9,90.2,24.8z" fill="url(#lg8)"/><text xml:space="preserve" style="fill:#0099cd;font-family:微软雅黑;font-size:10.00pt"><tspan x="33.5" y="16.5">不服</tspan></text></g><path fill-rule="nonzero" stroke-width="1" stroke="#94b6e0" d="M6.2,15.4L9.0,15.4L9.0,1.1L20.7,1.1L20.7,15.4L23.4,15.4L23.4,16.9L6.2,16.9L6.2,15.4zM10.7,11.8L19.0,11.8L19.0,9.7L10.7,9.7L10.7,11.8zM10.7,8.2L19.0,8.2L19.0,6.1L10.7,6.1L10.7,8.2zM19.0,2.5L10.7,2.5L10.7,4.6L19.0,4.6L19.0,2.5zM10.7,15.4L19.0,15.4L19.0,13.2L10.7,13.2L10.7,15.4zM11.9,17.6L13.1,18.9C11.4,20.4,9.5,21.8,7.5,23.0C7.2,22.5,6.8,22.1,6.4,21.6C8.4,20.4,10.3,19.1,11.9,17.6zM16.4,18.8L17.5,17.6C19.4,18.9,21.3,20.2,23.0,21.5L21.8,22.9C20.0,21.4,18.2,20.0,16.4,18.8zM1.0,5.4L2.6,5.6C2.4,7.5,2.0,9.5,1.6,11.6C1.1,11.5,.6,11.4,.0,11.3C.4,9.6,.7,7.7,1.0,5.4zM5.0,5.4L6.0,4.8C6.8,5.8,7.6,6.8,8.3,7.7L6.9,8.7C6.3,7.7,5.7,6.8,5.0,6.0L5.0,22.9L3.4,22.9L3.4,.0L5.0,.0L5.0,5.4z" transform="translate(407.560700,65.502350)" fill="#7ba9e1" id="shape137"/><g transform="translate(337.000000,98.000000)" id="shape138"><text xml:space="preserve" style="fill:#7ba9e1;font-family:微软雅黑;font-size:11.00pt;font-weight:bold"><tspan x="30.5" y="21.5">慌（NI）</tspan></text></g><g transform="translate(466.454000,59.709400)" id="shape139"><text xml:space="preserve" style="fill:#7ba9e1;font-family:微软雅黑;font-size:11.00pt;font-weight:bold"><tspan x="20.7" y="21.5">恐惧（NC）</tspan></text></g><g transform="translate(579.000000,85.000000)" id="shape140"><text xml:space="preserve" style="fill:#7ba9e1;font-family:微软雅黑;font-size:11.00pt;font-weight:bold"><tspan x="27.5" y="21.5">羞（NG）</tspan></text></g><g transform="translate(376.000000,128.000000)" id="shape141"><path fill-rule="nonzero" d="M90.2,24.8C92.5,22.6,94.0,19.5,94.0,16.0L94.0,14.0C94.0,12.9,94.1,11.3,93.8,10.0C92.9,4.3,87.9,.0,82.0,.0L21.0,.0C16.0,.0,8.2,-0.9,3.8,3.2C1.5,5.4,.0,8.5,.0,12.0L.0,14.0C.0,15.1,-0.1,16.7,.2,18.0C1.1,23.7,6.1,28.0,12.0,28.0L73.0,28.0C78.0,28.0,85.8,28.9,90.2,24.8z" fill="url(#lg9)"/><text xml:space="preserve" style="fill:#6e8882;font-family:微软雅黑;font-size:10.00pt"><tspan x="33.5" y="16.5">救命</tspan></text></g><g transform="translate(347.000000,168.000000)" id="shape142"><path fill-rule="nonzero" d="M90.2,24.8C92.5,22.6,94.0,19.5,94.0,16.0L94.0,14.0C94.0,12.9,94.1,11.3,93.8,10.0C92.9,4.3,87.9,.0,82.0,.0L21.0,.0C16.0,.0,8.2,-0.9,3.8,3.2C1.5,5.4,.0,8.5,.0,12.0L.0,14.0C.0,15.1,-0.1,16.7,.2,18.0C1.1,23.7,6.1,28.0,12.0,28.0L73.0,28.0C78.0,28.0,85.8,28.9,90.2,24.8z" fill="url(#lg9)"/><text xml:space="preserve" style="fill:#6e8882;font-family:微软雅黑;font-size:10.00pt"><tspan x="40.3" y="16.5">土</tspan></text></g><g transform="translate(383.000000,208.000000)" id="shape143"><path fill-rule="nonzero" d="M90.2,24.8C92.5,22.6,94.0,19.5,94.0,16.0L94.0,14.0C94.0,12.9,94.1,11.3,93.8,10.0C92.9,4.3,87.9,.0,82.0,.0L21.0,.0C16.0,.0,8.2,-0.9,3.8,3.2C1.5,5.4,.0,8.5,.0,12.0L.0,14.0C.0,15.1,-0.1,16.7,.2,18.0C1.1,23.7,6.1,28.0,12.0,28.0L73.0,28.0C78.0,28.0,85.8,28.9,90.2,24.8z" fill="url(#lg9)"/><text xml:space="preserve" style="fill:#6e8882;font-family:微软雅黑;font-size:10.00pt"><tspan x="26.8" y="16.5">救救我</tspan></text></g><g transform="translate(490.000000,105.000000)" id="shape144"><path fill-rule="nonzero" d="M90.2,24.8C92.5,22.6,94.0,19.5,94.0,16.0L94.0,14.0C94.0,12.9,94.1,11.3,93.8,10.0C92.9,4.3,87.9,.0,82.0,.0L21.0,.0C16.0,.0,8.2,-0.9,3.8,3.2C1.5,5.4,.0,8.5,.0,12.0L.0,14.0C.0,15.1,-0.1,16.7,.2,18.0C1.1,23.7,6.1,28.0,12.0,28.0L73.0,28.0C78.0,28.0,85.8,28.9,90.2,24.8z" fill="url(#lg9)"/><text xml:space="preserve" style="fill:#6e8882;font-family:微软雅黑;font-size:10.00pt"><tspan x="20.0" y="16.5">四脸惊恐</tspan></text></g><g transform="translate(469.000300,158.000000)" id="shape145"><path fill-rule="nonzero" d="M90.2,24.8C92.5,22.6,94.0,19.5,94.0,16.0L94.0,14.0C94.0,12.9,94.1,11.3,93.8,10.0C92.9,4.3,87.9,.0,82.0,.0L21.0,.0C16.0,.0,8.2,-0.9,3.8,3.2C1.5,5.4,.0,8.5,.0,12.0L.0,14.0C.0,15.1,-0.1,16.7,.2,18.0C1.1,23.7,6.1,28.0,12.0,28.0L73.0,28.0C78.0,28.0,85.8,28.9,90.2,24.8z" fill="url(#lg9)"/><text xml:space="preserve" style="fill:#6e8882;font-family:微软雅黑;font-size:10.00pt"><tspan x="13.3" y="16.5">支配的恐惧</tspan></text></g><g transform="translate(586.024500,138.000000)" id="shape146"><path fill-rule="nonzero" d="M90.2,24.8C92.5,22.6,94.0,19.5,94.0,16.0L94.0,14.0C94.0,12.9,94.1,11.3,93.8,10.0C92.9,4.3,87.9,.0,82.0,.0L21.0,.0C16.0,.0,8.2,-0.9,3.8,3.2C1.5,5.4,.0,8.5,.0,12.0L.0,14.0C.0,15.1,-0.1,16.7,.2,18.0C1.1,23.7,6.1,28.0,12.0,28.0L73.0,28.0C78.0,28.0,85.8,28.9,90.2,24.8z" fill="url(#lg9)"/><text xml:space="preserve" style="fill:#6e8882;font-family:微软雅黑;font-size:10.00pt"><tspan x="40.3" y="16.5">呆</tspan></text></g><g transform="translate(579.000000,196.000000)" id="shape147"><path fill-rule="nonzero" d="M90.2,24.8C92.5,22.6,94.0,19.5,94.0,16.0L94.0,14.0C94.0,12.9,94.1,11.3,93.8,10.0C92.9,4.3,87.9,.0,82.0,.0L21.0,.0C16.0,.0,8.2,-0.9,3.8,3.2C1.5,5.4,.0,8.5,.0,12.0L.0,14.0C.0,15.1,-0.1,16.7,.2,18.0C1.1,23.7,6.1,28.0,12.0,28.0L73.0,28.0C78.0,28.0,85.8,28.9,90.2,24.8z" fill="url(#lg9)"/><text xml:space="preserve" style="fill:#6e8882;font-family:微软雅黑;font-size:10.00pt"><tspan x="33.5" y="16.5">浮夸</tspan></text></g><path fill-rule="nonzero" stroke-width="1" stroke="#94b6e0" d="M.4,9.9L7.7,9.9L7.7,1.6L1.3,1.6L1.3,.0L22.0,.0L22.0,1.6L15.2,1.6L15.2,9.9L23.0,9.9L23.0,11.6L.4,11.6L.4,9.9zM5.7,13.4L7.5,13.4L7.5,17.8C7.5,19.0,8.1,19.5,9.3,19.5L14.0,19.5C15.1,19.5,15.7,19.0,15.9,18.0C16.1,17.3,16.2,16.4,16.3,15.4C17.0,15.7,17.6,16.0,18.1,16.1C17.9,17.1,17.7,18.1,17.5,18.9C17.1,20.4,16.0,21.2,14.2,21.2L8.9,21.2C6.8,21.2,5.7,20.2,5.7,18.1L5.7,13.4zM9.5,9.9L13.4,9.9L13.4,1.6L9.5,1.6L9.5,9.9zM2.2,13.4L4.1,14.0C3.5,15.9,2.7,17.9,1.7,19.8C1.1,19.5,.5,19.2,.0,19.0C.9,17.1,1.7,15.3,2.2,13.4zM18.3,14.3L19.7,13.3C20.8,14.7,22.1,16.2,23.4,17.8L21.8,19.1C20.6,17.3,19.4,15.7,18.3,14.3zM16.4,7.6C17.7,6.0,18.9,4.4,19.8,2.9L21.4,3.9C20.4,5.4,19.2,7.0,17.9,8.7L16.4,7.6zM1.7,3.9L3.1,2.9C4.3,4.3,5.3,5.8,6.4,7.4L4.8,8.6C3.8,6.9,2.7,5.3,1.7,3.9zM9.6,12.9L11.0,11.9C12.3,13.3,13.3,14.5,14.1,15.4L12.5,16.6C11.8,15.6,10.8,14.3,9.6,12.9z" transform="translate(756.280150,65.628789)" fill="#7ba9e1" id="shape148"/><g transform="translate(684.049000,98.000000)" id="shape149"><text xml:space="preserve" style="fill:#7ba9e1;font-family:微软雅黑;font-size:11.00pt;font-weight:bold"><tspan x="21.5" y="21.5">烦闷（NE）</tspan></text></g><g transform="translate(813.498581,58.722556)" id="shape150"><text xml:space="preserve" style="fill:#7ba9e1;font-family:微软雅黑;font-size:11.00pt;font-weight:bold"><tspan x="20.0" y="21.5">憎恶（ND）</tspan></text></g><g transform="translate(929.049000,72.000000)" id="shape151"><text xml:space="preserve" style="fill:#7ba9e1;font-family:微软雅黑;font-size:11.00pt;font-weight:bold"><tspan x="19.5" y="21.5">贬责（NN）</tspan></text></g><g transform="translate(1030.525919,59.709400)" id="shape152"><text xml:space="preserve" style="fill:#7ba9e1;font-family:微软雅黑;font-size:11.00pt;font-weight:bold"><tspan x="20.7" y="21.5">妒忌（NK）</tspan></text></g><g transform="translate(684.049000,158.000000)" id="shape153"><text xml:space="preserve" style="fill:#7ba9e1;font-family:微软雅黑;font-size:11.00pt;font-weight:bold"><tspan x="21.7" y="21.5">怀疑（NL）</tspan></text></g><g transform="translate(748.605400,128.000000)" id="shape154"><path fill-rule="nonzero" d="M66.0,24.8C68.4,22.6,69.9,19.5,69.9,16.0L69.9,14.0C69.9,12.9,69.9,11.3,69.7,10.0C68.8,4.3,63.8,.0,57.9,.0L21.0,.0C16.0,.0,8.2,-0.9,3.8,3.2C1.5,5.4,.0,8.5,.0,12.0L.0,14.0C.0,15.1,-0.1,16.7,.2,18.0C1.1,23.7,6.1,28.0,12.0,28.0L48.9,28.0C53.8,28.0,61.6,28.9,66.0,24.8z" fill="url(#lg10)"/><text xml:space="preserve" style="fill:#5769bc;font-family:微软雅黑;font-size:10.00pt"><tspan x="28.2" y="16.5">天</tspan></text></g><g transform="translate(849.501419,105.000000)" id="shape155"><path fill-rule="nonzero" d="M90.2,24.8C92.5,22.6,94.0,19.5,94.0,16.0L94.0,14.0C94.0,12.9,94.1,11.3,93.8,10.0C92.9,4.3,87.9,.0,82.0,.0L21.0,.0C16.0,.0,8.2,-0.9,3.8,3.2C1.5,5.4,.0,8.5,.0,12.0L.0,14.0C.0,15.1,-0.1,16.7,.2,18.0C1.1,23.7,6.1,28.0,12.0,28.0L73.0,28.0C78.0,28.0,85.8,28.9,90.2,24.8z" fill="url(#lg11)"/><text xml:space="preserve" style="fill:#5769bc;font-family:微软雅黑;font-size:10.00pt"><tspan x="33.5" y="16.5">乱创</tspan></text></g><g transform="translate(834.566975,153.000000)" id="shape156"><path fill-rule="nonzero" d="M66.0,24.8C68.4,22.6,69.9,19.5,69.9,16.0L69.9,14.0C69.9,12.9,69.9,11.3,69.7,10.0C68.8,4.3,63.8,.0,57.9,.0L21.0,.0C16.0,.0,8.2,-0.9,3.8,3.2C1.5,5.4,.0,8.5,.0,12.0L.0,14.0C.0,15.1,-0.1,16.7,.2,18.0C1.1,23.7,6.1,28.0,12.0,28.0L48.9,28.0C53.8,28.0,61.6,28.9,66.0,24.8z" fill="url(#lg10)"/><text xml:space="preserve" style="fill:#5769bc;font-family:微软雅黑;font-size:10.00pt"><tspan x="28.2" y="16.5">救</tspan></text></g><g transform="translate(862.013919,208.000000)" id="shape157"><path fill-rule="nonzero" d="M65.2,24.8C67.5,22.6,69.0,19.5,69.0,16.0L69.0,14.0C69.0,12.9,69.0,11.3,68.8,10.0C67.9,4.3,62.9,.0,57.0,.0L21.0,.0C16.0,.0,8.2,-0.9,3.8,3.2C1.5,5.4,.0,8.5,.0,12.0L.0,14.0C.0,15.1,-0.1,16.7,.2,18.0C1.1,23.7,6.1,28.0,12.0,28.0L48.0,28.0C52.9,28.0,60.7,28.9,65.2,24.8z" fill="url(#lg12)"/><text xml:space="preserve" style="fill:#5769bc;font-family:微软雅黑;font-size:10.00pt"><tspan x="27.7" y="16.5">淦</tspan></text></g><g transform="translate(936.501419,177.000000)" id="shape158"><path fill-rule="nonzero" d="M90.2,24.8C92.5,22.6,94.0,19.5,94.0,16.0L94.0,14.0C94.0,12.9,94.1,11.3,93.8,10.0C92.9,4.3,87.9,.0,82.0,.0L21.0,.0C16.0,.0,8.2,-0.9,3.8,3.2C1.5,5.4,.0,8.5,.0,12.0L.0,14.0C.0,15.1,-0.1,16.7,.2,18.0C1.1,23.7,6.1,28.0,12.0,28.0L73.0,28.0C78.0,28.0,85.8,28.9,90.2,24.8z" fill="url(#lg11)"/><text xml:space="preserve" style="fill:#5769bc;font-family:微软雅黑;font-size:10.00pt"><tspan x="13.3" y="16.5">还是太年轻</tspan></text></g><g transform="translate(1021.501419,208.000000)" id="shape159"><path fill-rule="nonzero" d="M90.2,24.8C92.5,22.6,94.0,19.5,94.0,16.0L94.0,14.0C94.0,12.9,94.1,11.3,93.8,10.0C92.9,4.3,87.9,.0,82.0,.0L21.0,.0C16.0,.0,8.2,-0.9,3.8,3.2C1.5,5.4,.0,8.5,.0,12.0L.0,14.0C.0,15.1,-0.1,16.7,.2,18.0C1.1,23.7,6.1,28.0,12.0,28.0L73.0,28.0C78.0,28.0,85.8,28.9,90.2,24.8z" fill="url(#lg11)"/><text xml:space="preserve" style="fill:#5769bc;font-family:微软雅黑;font-size:10.00pt"><tspan x="20.0" y="16.5">语无伦次</tspan></text></g><g transform="translate(1057.733044,153.000000)" id="shape160"><path fill-rule="nonzero" d="M65.7,24.8C68.1,22.6,69.5,19.5,69.5,16.0L69.5,14.0C69.5,12.9,69.6,11.3,69.4,10.0C68.4,4.3,63.5,.0,57.5,.0L21.0,.0C16.0,.0,8.2,-0.9,3.8,3.2C1.5,5.4,.0,8.5,.0,12.0L.0,14.0C.0,15.1,-0.1,16.7,.2,18.0C1.1,23.7,6.1,28.0,12.0,28.0L48.5,28.0C53.5,28.0,61.3,28.9,65.7,24.8z" fill="url(#lg10)"/><text xml:space="preserve" style="fill:#5769bc;font-family:微软雅黑;font-size:10.00pt"><tspan x="28.0" y="16.5">咋</tspan></text></g><g transform="translate(951.501419,128.000000)" id="shape161"><path fill-rule="nonzero" d="M90.2,24.8C92.5,22.6,94.0,19.5,94.0,16.0L94.0,14.0C94.0,12.9,94.1,11.3,93.8,10.0C92.9,4.3,87.9,.0,82.0,.0L21.0,.0C16.0,.0,8.2,-0.9,3.8,3.2C1.5,5.4,.0,8.5,.0,12.0L.0,14.0C.0,15.1,-0.1,16.7,.2,18.0C1.1,23.7,6.1,28.0,12.0,28.0L73.0,28.0C78.0,28.0,85.8,28.9,90.2,24.8z" fill="url(#lg11)"/><text xml:space="preserve" style="fill:#5769bc;font-family:微软雅黑;font-size:10.00pt"><tspan x="20.0" y="16.5">你礼貌吗</tspan></text></g><g transform="translate(1044.501419,98.000000)" id="shape162"><path fill-rule="nonzero" d="M90.2,24.8C92.5,22.6,94.0,19.5,94.0,16.0L94.0,14.0C94.0,12.9,94.1,11.3,93.8,10.0C92.9,4.3,87.9,.0,82.0,.0L21.0,.0C16.0,.0,8.2,-0.9,3.8,3.2C1.5,5.4,.0,8.5,.0,12.0L.0,14.0C.0,15.1,-0.1,16.7,.2,18.0C1.1,23.7,6.1,28.0,12.0,28.0L73.0,28.0C78.0,28.0,85.8,28.9,90.2,24.8z" fill="url(#lg11)"/><text xml:space="preserve" style="fill:#5769bc;font-family:微软雅黑;font-size:10.00pt"><tspan x="26.8" y="16.5">穿不起</tspan></text></g><g transform="translate(724.474287,196.000000)" id="shape163"><path fill-rule="nonzero" d="M90.2,24.8C92.5,22.6,94.0,19.5,94.0,16.0L94.0,14.0C94.0,12.9,94.1,11.3,93.8,10.0C92.9,4.3,87.9,.0,82.0,.0L21.0,.0C16.0,.0,8.2,-0.9,3.8,3.2C1.5,5.4,.0,8.5,.0,12.0L.0,14.0C.0,15.1,-0.1,16.7,.2,18.0C1.1,23.7,6.1,28.0,12.0,28.0L73.0,28.0C78.0,28.0,85.8,28.9,90.2,24.8z" fill="url(#lg11)"/><text xml:space="preserve" style="fill:#5769bc;font-family:微软雅黑;font-size:10.00pt"><tspan x="20.0" y="16.5">看不出来</tspan></text></g><g transform="translate(748.049000,528.931000)" id="shape164"><text xml:space="preserve" style="fill:#7ba9e1;font-family:微软雅黑;font-size:11.00pt;font-weight:bold"><tspan x="22.2" y="21.5">惊奇（PC）</tspan></text></g><g transform="translate(792.000000,572.000000)" id="shape165"><path fill-rule="nonzero" d="M90.2,24.8C92.5,22.6,94.0,19.5,94.0,16.0L94.0,14.0C94.0,12.9,94.1,11.3,93.8,10.0C92.9,4.3,87.9,.0,82.0,.0L21.0,.0C16.0,.0,8.2,-0.9,3.8,3.2C1.5,5.4,.0,8.5,.0,12.0L.0,14.0C.0,15.1,-0.1,16.7,.2,18.0C1.1,23.7,6.1,28.0,12.0,28.0L73.0,28.0C78.0,28.0,85.8,28.9,90.2,24.8z" fill="url(#lg13)"/><text xml:space="preserve" style="fill:#0099cd;font-family:微软雅黑;font-size:10.00pt"><tspan x="20.0" y="16.5">心脏骤停</tspan></text></g><g transform="translate(855.879281,636.000000)" id="shape166"><path fill-rule="nonzero" d="M124.4,24.8C126.8,22.6,128.2,19.5,128.2,16.0L128.2,14.0C128.2,12.9,128.3,11.3,128.1,10.0C127.1,4.3,122.2,.0,116.2,.0L21.0,.0C16.0,.0,8.2,-0.9,3.8,3.2C1.5,5.4,.0,8.5,.0,12.0L.0,14.0C.0,15.1,-0.1,16.7,.2,18.0C1.1,23.7,6.1,28.0,12.0,28.0L107.2,28.0C112.2,28.0,120.0,28.9,124.4,24.8z" fill="url(#lg13)"/><text xml:space="preserve" style="fill:#0099cd;font-family:微软雅黑;font-size:10.00pt"><tspan x="16.9" y="16.5">眼睛瞪得像铜铃</tspan></text></g><g transform="translate(929.000000,572.000000)" id="shape167"><path fill-rule="nonzero" d="M90.2,24.8C92.5,22.6,94.0,19.5,94.0,16.0L94.0,14.0C94.0,12.9,94.1,11.3,93.8,10.0C92.9,4.3,87.9,.0,82.0,.0L21.0,.0C16.0,.0,8.2,-0.9,3.8,3.2C1.5,5.4,.0,8.5,.0,12.0L.0,14.0C.0,15.1,-0.1,16.7,.2,18.0C1.1,23.7,6.1,28.0,12.0,28.0L73.0,28.0C78.0,28.0,85.8,28.9,90.2,24.8z" fill="url(#lg13)"/><text xml:space="preserve" style="fill:#0099cd;font-family:微软雅黑;font-size:10.00pt"><tspan x="20.0" y="16.5">前方高能</tspan></text></g><g transform="translate(1022.000000,611.000000)" id="shape168"><path fill-rule="nonzero" d="M90.2,24.8C92.5,22.6,94.0,19.5,94.0,16.0L94.0,14.0C94.0,12.9,94.1,11.3,93.8,10.0C92.9,4.3,87.9,.0,82.0,.0L21.0,.0C16.0,.0,8.2,-0.9,3.8,3.2C1.5,5.4,.0,8.5,.0,12.0L.0,14.0C.0,15.1,-0.1,16.7,.2,18.0C1.1,23.7,6.1,28.0,12.0,28.0L73.0,28.0C78.0,28.0,85.8,28.9,90.2,24.8z" fill="url(#lg13)"/><text xml:space="preserve" style="fill:#0099cd;font-family:微软雅黑;font-size:10.00pt"><tspan x="20.0" y="16.5">猝不及防</tspan></text></g><g transform="translate(1032.000000,532.000000)" id="shape169"><path fill-rule="nonzero" d="M90.2,24.8C92.5,22.6,94.0,19.5,94.0,16.0L94.0,14.0C94.0,12.9,94.1,11.3,93.8,10.0C92.9,4.3,87.9,.0,82.0,.0L21.0,.0C16.0,.0,8.2,-0.9,3.8,3.2C1.5,5.4,.0,8.5,.0,12.0L.0,14.0C.0,15.1,-0.1,16.7,.2,18.0C1.1,23.7,6.1,28.0,12.0,28.0L73.0,28.0C78.0,28.0,85.8,28.9,90.2,24.8z" fill="url(#lg13)"/><text xml:space="preserve" style="fill:#0099cd;font-family:微软雅黑;font-size:10.00pt"><tspan x="26.8" y="16.5">不至于</tspan></text></g><g transform="translate(880.000000,502.000000)" id="shape170"><path fill-rule="nonzero" d="M90.2,24.8C92.5,22.6,94.0,19.5,94.0,16.0L94.0,14.0C94.0,12.9,94.1,11.3,93.8,10.0C92.9,4.3,87.9,.0,82.0,.0L21.0,.0C16.0,.0,8.2,-0.9,3.8,3.2C1.5,5.4,.0,8.5,.0,12.0L.0,14.0C.0,15.1,-0.1,16.7,.2,18.0C1.1,23.7,6.1,28.0,12.0,28.0L73.0,28.0C78.0,28.0,85.8,28.9,90.2,24.8z" fill="url(#lg13)"/><text xml:space="preserve" style="fill:#0099cd;font-family:微软雅黑;font-size:10.00pt"><tspan x="26.8" y="16.5">好家伙</tspan></text></g></g></svg>