<?xml version="1.0" standalone="no"?><!DOCTYPE svg PUBLIC "-//W3C//DTD SVG 1.1//EN" "http://www.w3.org/Graphics/SVG/1.1/DTD/svg11.dtd"><svg t="1679337685656" class="icon" viewBox="0 0 1024 1024" version="1.1" xmlns="http://www.w3.org/2000/svg" p-id="27458" data-spm-anchor-id="a313x.7781069.0.i42" xmlns:xlink="http://www.w3.org/1999/xlink" width="48" height="48"><path d="M538.112 694.272H138.24c-19.968 0-35.84-15.872-35.84-35.84v-8.192c0-19.968 15.872-35.84 35.84-35.84h399.872c19.968 0 35.84 15.872 35.84 35.84v7.68c0 19.968-15.872 36.352-35.84 36.352z" fill="#FFEED5" p-id="27459" data-spm-anchor-id="a313x.7781069.0.i43" class=""></path><path d="M535.552 835.072h-5.632c-38.912 0-70.656-31.744-70.656-70.656 0-38.912 31.744-70.656 70.656-70.656h5.632V614.4H168.96v79.872h133.12c38.912 0 70.656 31.744 70.656 70.656 0 38.912-31.744 70.656-70.656 70.656H168.96v79.872h366.592v-80.384z" fill="#FFEED5" p-id="27460" data-spm-anchor-id="a313x.7781069.0.i46" class=""></path><path d="M557.568 493.568c0-14.336-11.264-26.112-25.6-26.624H268.8c-14.848 0-26.624 11.776-26.624 26.624 0 14.848 11.776 26.624 26.624 26.624h107.008c26.112 0 47.104 20.992 47.104 47.104S401.92 614.4 375.808 614.4H286.72v53.248h244.736V614.4h-4.096c-26.112 0-47.104-20.992-47.104-47.104s20.992-47.104 47.104-47.104h4.096c14.848-0.512 26.112-12.288 26.112-26.624z m146.944 341.504H142.336c-22.016 0-39.936 17.92-39.936 39.936s17.92 39.936 39.936 39.936h562.176v-79.872z m14.336 0h33.792v79.872h-33.792z m74.752 0h21.504v79.872H793.6z m83.456 0H826.88v79.872h50.176c22.016 0 39.936-17.92 39.936-39.936-0.512-22.016-17.92-39.936-39.936-39.936z" fill="#FFEED5" p-id="27461" data-spm-anchor-id="a313x.7781069.0.i41" class=""></path><path d="M908.288 777.216h-36.352c-2.56 0-4.608-2.048-4.608-4.608s2.048-4.608 4.608-4.608h36.352c2.56 0 4.608 2.048 4.608 4.608s-2.048 4.608-4.608 4.608z" fill="#FF9F0D" p-id="27462" data-spm-anchor-id="a313x.7781069.0.i38" class=""></path><path d="M890.368 795.136a4.589 4.589 0 0 1-4.608-4.608v-36.352c0-2.56 2.048-4.608 4.608-4.608s4.608 2.048 4.608 4.608v36.352c-0.512 2.56-2.56 4.608-4.608 4.608z" fill="#FF9F0D" p-id="27463" data-spm-anchor-id="a313x.7781069.0.i40" class=""></path><path d="M205.312 774.144c-17.92 0-33.28-13.824-34.816-31.744-1.024-9.216 2.048-18.432 8.192-25.6 6.144-7.168 14.336-11.776 23.552-12.288 9.216-1.024 18.432 2.048 25.6 8.192 7.168 6.144 11.776 14.336 12.288 23.552 1.024 9.216-2.048 18.432-8.192 25.6-6.144 7.168-14.336 11.776-23.552 12.288h-3.072z m0-60.928h-2.56c-7.168 0.512-13.312 4.096-17.92 9.216-4.608 5.12-6.656 12.288-6.144 18.944 0.512 7.168 4.096 13.312 9.216 17.92 5.12 4.608 12.288 6.656 18.944 6.144 7.168-0.512 13.312-4.096 17.92-9.216 4.608-5.12 6.656-12.288 6.144-18.944-0.512-7.168-4.096-13.312-9.216-17.92-4.096-4.096-10.24-6.144-16.384-6.144zM639.488 240.64c-7.168 0-13.824-2.56-19.456-7.168-6.144-5.12-9.728-12.288-10.752-20.48-0.512-8.192 1.536-15.872 6.656-22.016 5.12-6.144 12.288-9.728 20.48-10.752 8.192-0.512 15.872 1.536 22.016 6.656 6.144 5.12 9.728 12.288 10.752 20.48 0.512 8.192-1.536 15.872-7.168 22.016-5.12 6.144-12.288 9.728-20.48 10.752-0.512 0-1.024 0.512-2.048 0.512z m0-51.2h-2.048c-5.632 0.512-10.752 3.072-14.336 7.68-3.584 4.096-5.632 9.728-5.12 15.36 1.024 11.776 11.264 20.48 23.04 19.456 5.632-0.512 10.752-3.072 14.336-7.68 3.584-4.096 5.632-9.728 5.12-15.36-0.512-5.632-3.072-10.752-7.68-14.336-3.584-3.584-8.192-5.12-13.312-5.12zM184.32 389.12a4.589 4.589 0 0 1-4.608-4.608V358.4l-18.944 18.944c-1.536 1.536-4.608 1.536-6.144 0-1.536-1.536-1.536-4.608 0-6.144l18.944-18.944h-26.624c-2.56 0-4.608-2.048-4.608-4.608s2.048-4.608 4.608-4.608h27.136l-18.944-18.944c-1.536-1.536-1.536-4.608 0-6.144 1.536-1.536 4.608-1.536 6.144 0l18.944 18.944v-26.624c0-2.56 2.048-4.608 4.608-4.608s4.608 2.048 4.608 4.608v26.624l18.944-18.944c1.536-1.536 4.608-1.536 6.144 0 1.536 1.536 1.536 4.608 0 6.144l-18.944 18.944h26.624c2.56 0 4.608 2.048 4.608 4.608s-2.048 4.608-4.608 4.608h-26.624l18.944 18.944c1.536 1.536 1.536 4.608 0 6.144-1.536 1.536-4.608 1.536-6.144 0L188.928 358.4v26.624c0 2.048-2.048 4.096-4.608 4.096zM805.376 690.688a4.589 4.589 0 0 1-4.608-4.608v-26.624L781.824 678.4c-1.536 1.536-4.608 1.536-6.144 0-1.536-1.536-1.536-4.608 0-6.144l18.944-18.944H768c-2.56 0-4.608-2.048-4.608-4.608s2.048-4.608 4.608-4.608h26.624l-18.944-18.944c-1.536-1.536-1.536-4.608 0-6.144 1.536-1.536 4.608-1.536 6.144 0l18.944 18.944v-26.624c0-2.56 2.048-4.608 4.608-4.608s4.608 2.048 4.608 4.608v26.624l18.944-18.944c1.536-1.536 4.608-1.536 6.144 0 1.536 1.536 1.536 4.608 0 6.144l-18.944 18.944h26.624c2.56 0 4.608 2.048 4.608 4.608s-2.048 4.608-4.608 4.608h-26.624l18.944 18.944c1.536 1.536 1.536 4.608 0 6.144-1.536 1.536-4.608 1.536-6.144 0l-18.944-18.944v26.624c-0.512 3.072-2.56 4.608-4.608 4.608z" fill="#FF9F0D" p-id="27464" data-spm-anchor-id="a313x.7781069.0.i36" class=""></path><path d="M883.2 424.448c0 25.088-17.408 46.08-38.4 46.08 21.504 0 38.4 20.48 38.4 46.08 0-25.088 17.408-46.08 38.4-46.08-21.504 0-38.4-20.48-38.4-46.08zM163.84 519.68c0 21.504-14.336 38.4-32.256 38.4 17.92 0 32.256 17.408 32.256 38.4 0-21.504 14.336-38.4 32.256-38.4-17.92 0-32.256-16.896-32.256-38.4z m623.104-269.824c0 18.944-12.8 33.792-28.672 33.792 15.872 0 28.672 15.36 28.672 33.792 0-18.944 12.8-33.792 28.672-33.792-15.872 0-28.672-15.36-28.672-33.792z" fill="#FFC670" p-id="27465" data-spm-anchor-id="a313x.7781069.0.i37" class=""></path><path d="M250.88 877.056c-10.752 0-19.456-8.704-19.456-19.456s8.704-19.456 19.456-19.456 19.456 8.704 19.456 19.456-8.704 19.456-19.456 19.456z m0-30.72c-6.144 0-10.752 5.12-10.752 10.752 0 6.144 5.12 10.752 10.752 10.752 6.144 0 10.752-5.12 10.752-10.752s-5.12-10.752-10.752-10.752z" fill="#FF9F0D" p-id="27466" data-spm-anchor-id="a313x.7781069.0.i39" class=""></path><path d="M363.008 109.056c0 35.84 24.064 64.512 54.272 64.512-30.208 0-54.272 28.672-54.272 64.512 0-35.84-24.064-64.512-54.272-64.512 30.208 0 54.272-28.672 54.272-64.512z" fill="#FFDCA7" p-id="27467" data-spm-anchor-id="a313x.7781069.0.i35" class=""></path><path d="M411.648 611.84L301.056 845.312c-0.512 1.536 0.512 3.584 2.048 3.584 13.312 0.512 61.952 1.536 88.576-21.504 5.12-4.096 12.8-1.536 13.824 4.608 4.096 21.504 14.336 54.784 38.912 64 1.536 0.512 3.072-0.512 3.072-1.536l65.024-246.784c1.024-4.096-1.024-8.704-5.632-10.24l-85.504-29.696c-3.072-1.536-7.68 0-9.728 4.096z" fill="#F68282" p-id="27468"></path><path d="M325.12 838.656L433.664 609.28l-13.824-5.12c-4.096-1.536-8.704 0.512-10.24 4.608L299.008 842.24c-0.512 1.536 0.512 3.584 2.048 3.584 6.144 0.512 6.144 2.048 21.504 0 0-1.024 2.048-6.656 2.56-7.168z" fill="#FFFFFF" p-id="27469"></path><path d="M511.488 670.72s53.248 227.84 59.392 227.328c35.84 0 60.928-56.32 70.656-82.432 2.56-6.656 10.24-9.728 16.384-6.656 28.16 12.8 97.28 40.96 113.152 15.36 1.536-2.56-72.192-190.464-96.768-253.44-2.048-5.12-8.192-7.168-12.288-4.096l-146.944 94.72c-3.072 2.048-4.608 6.144-3.584 9.216z" fill="#F68282" p-id="27470"></path><path d="M674.304 570.88c-2.048-5.12-8.192-7.168-12.288-4.096l-18.432 11.776c0 0.512 0.512 0.512 0.512 1.024 24.576 63.488 98.304 250.88 96.768 253.44-0.512 0.512-1.024 1.024-1.024 1.536 14.336 1.024 26.112-1.536 31.232-10.24 2.048-2.048-72.192-189.952-96.768-253.44z" fill="#DE7575" p-id="27471"></path><path d="M543.232 664.064c-1.024-3.584 0.512-7.168 3.584-9.216l127.488-82.432c0-0.512-0.512-1.024-0.512-2.048-2.048-5.12-8.192-7.168-12.288-4.096l-146.944 94.72c-3.072 2.048-4.608 5.632-3.584 9.216 0 0 53.248 227.84 59.392 227.328 10.752 0 20.48-5.12 29.696-13.312-13.824-35.84-56.832-220.16-56.832-220.16z" fill="#FFFFFF" p-id="27472"></path><path d="M651.776 713.728c1.024-0.512 2.048-1.536 3.072-2.048l-7.168 3.584c1.024-0.512 2.56-1.024 4.096-1.536z" fill="#2B77EF" p-id="27473"></path><path d="M409.6 608.768l-1.536 3.072 1.024 0.512 3.072-6.144c-1.024 0.512-2.048 1.536-2.56 2.56z m95.744 25.6l0.512 5.12-14.848 70.144c-5.12-7.68-10.752-13.824-15.872-14.848-3.072-1.024-7.168 0-11.264 1.536l-46.08 174.592c6.144 10.24 13.824 18.432 24.576 22.528 1.536 0.512 3.072-0.512 3.072-1.536l65.024-246.784c1.536-5.12-1.024-9.728-5.12-10.752z" fill="#DE7575" p-id="27474"></path><path d="M472.064 634.368l-42.496-14.848-36.352 75.264c1.536 8.704 4.608 15.36 11.264 18.944 10.752 6.144 25.6-1.536 39.936-9.216 6.656-3.584 13.312-6.656 19.456-8.704l13.312-51.2c1.536-4.608-1.024-9.216-5.12-10.24z" fill="#F67676" p-id="27475"></path><path d="M409.088 612.352L389.12 655.36c1.024 5.632 1.536 12.288 2.048 18.944 0.512 7.168 1.024 14.336 2.56 20.48l36.352-75.264-20.992-7.168z" fill="#EAE9EE" p-id="27476"></path><path d="M434.176 609.28l-14.336-5.12c-3.072-1.024-5.632-0.512-8.192 1.536l-3.072 6.144 20.48 7.168 5.12-9.728z" fill="#DE7575" p-id="27477"></path><path d="M434.176 609.28l-14.336-5.12c-3.072-1.024-5.632-0.512-8.192 1.536l-3.072 6.144 20.48 7.168 5.12-9.728z" fill="#728CD9" p-id="27478"></path><path d="M475.648 694.272c5.12 1.536 10.24 7.68 15.872 14.848l14.848-70.144-1.024-5.12-71.168-24.576-4.608 9.728 42.496 14.848c4.096 1.536 6.656 5.632 5.632 10.24l-13.312 51.2c4.096-1.024 8.192-1.536 11.264-1.024z" fill="#DE7575" p-id="27479"></path><path d="M475.648 694.272c5.12 1.536 10.24 7.68 15.872 14.848l14.848-70.144-1.024-5.12-71.168-24.576-4.608 9.728 42.496 14.848c4.096 1.536 6.656 5.632 5.632 10.24l-13.312 51.2c4.096-1.024 8.192-1.536 11.264-1.024z" fill="#CF6D6D" p-id="27480"></path><path d="M532.992 465.408l-4.608 71.68-5.12 24.576 35.328 158.72c0.512-1.024 1.024-1.536 1.536-2.56 7.168-10.24 14.336-21.504 20.992-23.04 7.168-2.048 19.456 4.096 30.72 10.24 12.8 6.656 25.6 12.8 35.84 10.752l7.168-3.584c8.192-7.168 9.728-22.528 10.752-37.376 1.024-11.264 1.536-23.04 5.632-29.184l-63.488-175.104-74.752-5.12z" fill="#F67676" p-id="27481"></path><path d="M506.368 639.488l23.552 105.984c11.264-1.024 19.968-12.8 28.16-25.6l-35.328-158.72-16.384 78.336z" fill="#EAE9EE" p-id="27482"></path><path d="M700.416 636.928l-5.12-12.288-32.256-151.552-55.296-3.072 63.488 175.104 1.536-1.536c4.608-5.12 15.872-6.144 27.648-6.656z" fill="#CF6D6D" p-id="27483"></path><path d="M443.392 900.096c-1.024 0-2.048 0-3.072-0.512-27.136-10.24-38.4-43.52-43.52-69.632 0 0 0-1.024-1.024-1.024-0.512 0-1.024 0-1.536 0.512-28.16 24.576-78.848 24.064-93.184 23.552-3.072 0-6.144-2.048-7.68-4.608-1.536-2.56-2.048-6.144-0.512-8.704l24.576-51.712c1.536-3.584 5.632-5.12 9.216-3.072 3.584 1.536 5.12 5.632 3.072 9.216l-21.504 45.568c16.896 0 55.296-1.536 76.8-19.968 4.096-3.584 9.728-4.608 15.36-3.072 5.12 2.048 9.216 6.144 10.24 11.776 3.072 16.896 11.264 46.08 30.208 56.832l63.488-241.664c0-0.512 0-1.536-1.024-2.048l-85.504-29.696c-0.512-0.512-1.536 0-2.048 1.024l-72.704 153.6c-1.536 3.584-5.632 5.12-9.216 3.072-3.584-1.536-5.12-5.632-3.072-9.216l72.704-153.6c3.584-7.168 11.776-10.752 18.944-8.192l85.504 29.696c7.68 2.56 11.776 10.752 9.728 18.432L452.608 893.44c-0.512 2.56-2.56 4.608-4.608 6.144-1.536 0-3.072 0.512-4.608 0.512z" fill="#FF9F0D" p-id="27484" data-spm-anchor-id="a313x.7781069.0.i33" class=""></path><path d="M569.856 905.216c-6.144 0-8.704-4.608-29.696-87.552-1.024-3.584 1.536-7.68 5.12-8.704 3.584-1.024 7.68 1.536 8.704 5.12 13.312 52.224 18.944 70.656 21.504 76.8 30.72-4.608 53.76-59.904 59.904-77.312 2.048-5.12 5.632-9.216 10.752-10.752 5.12-2.048 10.752-2.048 15.36 0.512 51.712 23.552 91.136 31.232 102.912 19.968-6.144-20.48-53.76-142.336-79.872-209.408l-15.872-39.936c0-0.512-0.512-0.512-1.024-1.024h-1.536l-146.944 94.72c-0.512 0.512-1.024 1.024-0.512 1.536 0 0.512 13.824 58.88 27.648 115.2 1.024 3.584-1.536 7.68-5.12 8.704-3.584 1.024-7.68-1.536-8.704-5.12-13.824-56.832-27.648-115.2-27.648-115.712-1.536-6.144 1.024-12.8 6.656-16.384l146.944-94.72c4.096-2.56 8.704-3.072 13.312-1.536 4.608 1.536 7.68 4.608 9.728 9.216l15.872 39.936c83.968 214.528 83.456 215.04 80.384 219.648-17.408 27.648-75.776 8.192-122.368-12.8-1.536-0.512-3.072-0.512-4.096 0-1.536 0.512-2.56 1.536-3.072 3.072-12.288 32.256-38.4 86.528-76.8 86.528h-1.536z" fill="#FF9F0D" p-id="27485" data-spm-anchor-id="a313x.7781069.0.i34" class=""></path><path d="M773.12 479.744c0 19.968-46.592 32.768-51.2 51.2-5.12 18.944 27.648 53.76 17.92 70.144-9.728 16.384-56.32 4.608-70.144 17.92-13.824 13.312-3.072 60.416-19.968 69.632-16.384 9.216-51.2-24.576-70.144-19.456-18.432 4.608-31.744 51.2-51.712 51.2-19.968 0-33.28-46.592-51.712-51.2-18.944-5.12-53.248 28.672-70.144 19.456-16.896-9.728-6.144-56.32-19.968-69.632-13.824-13.312-60.416-1.024-70.144-17.92-9.728-16.384 23.04-51.712 17.92-70.144-5.12-18.432-51.2-31.232-51.2-51.2 0-19.968 46.592-32.768 51.2-51.2 5.12-18.944-27.648-53.76-17.92-70.144 9.728-16.384 56.32-4.608 70.144-17.92 13.824-13.312 3.072-60.416 19.968-69.632 16.384-9.216 51.2 24.576 70.144 19.456 18.432-4.608 31.744-51.2 51.712-51.2 19.968 0 33.28 46.592 51.712 51.2 18.944 5.12 53.248-28.672 70.144-19.456 16.896 9.728 6.144 56.32 19.968 69.632 13.824 13.312 60.416 1.024 70.144 17.92 9.728 16.384-23.04 51.712-17.92 70.144 4.608 18.432 51.2 31.744 51.2 51.2z" fill="#FFFFFF" p-id="27486"></path><path d="M773.12 479.744c0 19.968-46.592 32.768-51.2 51.2-5.12 18.944 27.648 53.76 17.92 70.144-9.728 16.384-56.32 4.608-70.144 17.92-13.824 13.312-3.072 60.416-19.968 69.632-16.384 9.216-51.2-24.576-70.144-19.456-18.432 4.608-31.744 51.2-51.712 51.2-19.968 0-33.28-46.592-51.712-51.2-18.944-5.12-53.248 28.672-70.144 19.456-16.896-9.728-6.144-56.32-19.968-69.632-13.824-13.312-60.416-1.024-70.144-17.92-9.728-16.384 23.04-51.712 17.92-70.144-5.12-18.432-51.2-31.232-51.2-51.2 0-19.968 46.592-32.768 51.2-51.2 5.12-18.944-27.648-53.76-17.92-70.144 9.728-16.384 56.32-4.608 70.144-17.92 13.824-13.312 3.072-60.416 19.968-69.632 16.384-9.216 51.2 24.576 70.144 19.456 18.432-4.608 31.744-51.2 51.712-51.2 19.968 0 33.28 46.592 51.712 51.2 18.944 5.12 53.248-28.672 70.144-19.456 16.896 9.728 6.144 56.32 19.968 69.632 13.824 13.312 60.416 1.024 70.144 17.92 9.728 16.384-23.04 51.712-17.92 70.144 4.608 18.432 51.2 31.744 51.2 51.2z" fill="#FFFFFF" p-id="27487"></path><path d="M437.248 661.504c-10.24-2.56-25.088 6.144-39.424 13.312 1.536 6.656 4.096 11.776 8.704 14.336 10.752 6.144 29.184-6.144 46.08-14.336-4.608-6.656-9.728-12.288-15.36-13.312z" fill="#C7DDFF" p-id="27488"></path><path d="M318.464 603.648c5.632 5.632 16.896 6.656 29.184 7.68-5.632-6.144-16.896-7.168-29.184-7.68z m350.72-263.168c-13.312-13.312-2.56-60.416-19.456-69.632-7.68-4.096-18.944 0.512-30.72 6.144 4.096 17.92 1.024 45.568 11.264 55.296 7.168 7.68 23.552 7.168 38.912 8.192z" fill="#FFFFFF" p-id="27489"></path><path d="M540.16 661.504c-12.8 3.072-23.04 26.624-34.816 40.448 7.168 10.24 14.336 18.432 22.528 18.432 17.92 0 30.72-37.888 46.592-48.64-12.288-6.144-25.088-12.8-34.304-10.24z m232.96-181.76c0-19.968-46.592-32.768-51.2-51.2-5.12-18.944 27.648-53.76 17.92-70.144-5.632-9.728-24.064-9.728-41.472-10.24 0.512 0.512 1.536 1.536 2.048 2.56 9.728 16.384-23.04 51.712-17.92 70.144 5.12 18.432 51.2 31.232 51.2 51.2 0 19.968-46.592 32.768-51.2 51.2-5.12 18.944 27.648 53.76 17.92 70.144-9.728 16.384-56.32 4.096-70.144 17.92-13.312 12.8-4.096 55.808-17.408 68.096 13.824 7.168 28.16 14.848 37.376 9.728 16.896-9.728 6.144-56.32 19.968-69.632 13.824-13.312 60.416-1.024 70.144-17.92 9.728-16.384-23.04-51.712-17.92-70.144 4.096-18.944 50.688-31.744 50.688-51.712z" fill="#C7DDFF" p-id="27490"></path><path d="M715.776 426.496c-5.632-5.632-16.896-6.656-29.184-7.68 6.144 5.632 17.408 7.168 29.184 7.68z" fill="#FFFFFF" p-id="27491"></path><path d="M773.12 479.744c0 19.968-46.592 32.768-51.2 51.2-5.12 18.944 27.648 53.76 17.92 70.144-9.728 16.384-56.32 4.608-70.144 17.92-13.824 13.312-3.072 60.416-19.968 69.632-16.384 9.216-51.2-24.576-70.144-19.456-18.432 4.608-31.744 51.2-51.712 51.2-19.968 0-33.28-46.592-51.712-51.2-18.944-5.12-53.248 28.672-70.144 19.456-16.896-9.728-6.144-56.32-19.968-69.632-13.824-13.312-60.416-1.024-70.144-17.92-9.728-16.384 23.04-51.712 17.92-70.144-5.12-18.432-51.2-31.232-51.2-51.2 0-19.968 46.592-32.768 51.2-51.2 5.12-18.944-27.648-53.76-17.92-70.144 9.728-16.384 56.32-4.608 70.144-17.92 13.824-13.312 3.072-60.416 19.968-69.632 16.384-9.216 51.2 24.576 70.144 19.456 18.432-4.608 31.744-51.2 51.712-51.2 19.968 0 33.28 46.592 51.712 51.2 18.944 5.12 53.248-28.672 70.144-19.456 16.896 9.728 6.144 56.32 19.968 69.632 13.824 13.312 60.416 1.024 70.144 17.92 9.728 16.384-23.04 51.712-17.92 70.144 4.608 18.432 51.2 31.744 51.2 51.2z" fill="#C7DDFF" p-id="27492"></path><path d="M773.12 479.744c0 19.968-46.592 32.768-51.2 51.2-5.12 18.944 27.648 53.76 17.92 70.144-9.728 16.384-56.32 4.608-70.144 17.92-13.824 13.312-3.072 60.416-19.968 69.632-16.384 9.216-51.2-24.576-70.144-19.456-18.432 4.608-31.744 51.2-51.712 51.2-19.968 0-33.28-46.592-51.712-51.2-18.944-5.12-53.248 28.672-70.144 19.456-16.896-9.728-6.144-56.32-19.968-69.632-13.824-13.312-60.416-1.024-70.144-17.92-9.728-16.384 23.04-51.712 17.92-70.144-5.12-18.432-51.2-31.232-51.2-51.2 0-19.968 46.592-32.768 51.2-51.2 5.12-18.944-27.648-53.76-17.92-70.144 9.728-16.384 56.32-4.608 70.144-17.92 13.824-13.312 3.072-60.416 19.968-69.632 16.384-9.216 51.2 24.576 70.144 19.456 18.432-4.608 31.744-51.2 51.712-51.2 19.968 0 33.28 46.592 51.712 51.2 18.944 5.12 53.248-28.672 70.144-19.456 16.896 9.728 6.144 56.32 19.968 69.632 13.824 13.312 60.416 1.024 70.144 17.92 9.728 16.384-23.04 51.712-17.92 70.144 4.608 18.432 51.2 31.744 51.2 51.2z" fill="#FFC670" p-id="27493" data-spm-anchor-id="a313x.7781069.0.i29" class=""></path><path d="M528.384 727.552c-14.336 0-24.064-14.848-33.792-29.184-6.144-9.728-13.824-20.48-19.456-22.016-6.656-1.536-18.432 4.608-29.184 9.728-14.848 7.68-30.72 15.872-42.496 8.704-12.288-6.656-13.312-24.576-14.848-41.472-1.024-11.776-2.048-24.576-6.144-29.184-4.608-4.608-17.92-5.12-29.696-5.632-16.896-1.024-34.816-1.536-41.984-13.824-7.168-11.776 0.512-27.648 8.192-43.008 5.12-10.752 10.752-22.528 9.216-29.184-1.536-6.144-12.288-12.8-22.016-19.456-14.336-9.728-29.696-19.456-29.696-33.792s14.848-24.064 29.696-33.792c9.728-6.144 20.48-13.312 22.016-19.456 1.536-6.144-4.096-18.432-9.216-29.184-7.168-15.36-14.848-31.232-8.192-43.008 7.168-11.776 24.576-12.8 41.984-13.824 11.776-0.512 25.088-1.024 29.696-5.632 4.608-4.608 5.632-17.408 6.144-29.184 1.024-16.896 2.56-34.816 14.848-41.472 11.776-6.656 27.648 1.024 42.496 8.704 10.752 5.632 22.528 11.264 29.184 9.728 6.144-1.536 13.312-12.288 19.456-22.016 9.728-14.336 19.456-29.184 33.792-29.184s24.064 14.848 33.792 29.184c6.144 9.728 13.824 20.48 19.456 22.016 6.656 1.536 18.432-4.608 29.184-9.728 14.848-7.68 30.72-15.872 42.496-8.704 12.288 6.656 13.312 24.576 14.848 41.472 1.024 11.776 2.048 24.576 6.144 29.184 4.608 4.608 17.92 5.12 29.696 5.632 16.896 1.024 34.816 1.536 41.984 13.824 7.168 11.776-0.512 27.648-8.192 43.008-5.12 10.752-10.752 22.528-9.216 29.184 1.536 6.144 12.288 12.8 22.016 19.456 14.336 9.728 29.696 19.456 29.696 33.792s-14.848 24.064-29.696 33.792c-9.728 6.144-20.48 13.312-22.016 19.456-1.536 6.144 4.096 18.432 9.216 29.184 7.68 15.36 15.36 31.232 8.192 43.008-7.168 11.776-24.576 12.8-41.984 13.824-11.776 0.512-25.088 1.024-29.696 5.632-4.608 4.608-5.632 17.408-6.144 29.184-1.024 16.896-2.56 34.816-14.848 41.472-11.776 6.656-27.648-1.024-42.496-8.704-10.752-5.632-22.528-11.264-29.184-9.728-6.144 1.536-13.312 12.288-19.456 22.016-9.728 13.824-19.968 29.184-33.792 29.184z m-55.808-65.536c2.048 0 4.096 0 5.632 0.512 11.264 3.072 18.944 14.848 27.648 27.648 6.656 10.24 15.36 23.04 22.016 23.04s15.36-12.8 22.016-23.04c8.704-12.8 16.384-25.088 27.648-27.648 11.776-3.072 25.6 4.096 38.912 10.752 10.752 5.632 24.064 12.288 29.184 9.216 5.632-3.072 6.656-18.432 7.68-30.72 1.024-15.36 2.048-30.208 10.752-38.4 8.192-8.192 23.04-8.704 38.912-9.728 12.288-0.512 27.136-1.024 30.72-6.656 3.072-5.632-3.072-18.944-8.704-29.696-6.656-13.312-13.312-27.136-10.24-38.912 3.072-10.752 15.36-18.944 28.16-27.136 10.24-6.656 23.04-15.36 23.04-22.016 0-6.656-12.8-15.36-23.04-22.016-12.8-8.192-25.088-16.384-28.16-27.136-3.072-11.264 3.584-25.088 10.24-38.912 5.12-10.752 11.776-24.576 8.704-29.696-3.072-5.632-18.432-6.144-30.72-6.656-15.36-0.512-30.208-1.536-38.912-9.728-8.192-8.192-9.216-22.528-10.752-38.4-1.024-12.288-2.048-27.136-7.68-30.72-5.632-3.072-18.944 3.584-29.696 9.216-13.312 6.656-27.136 13.824-38.912 10.752-11.264-3.072-18.944-14.848-27.648-27.648-6.656-10.24-15.36-23.04-22.016-23.04-6.656 0-15.36 12.8-22.016 23.04-8.704 12.8-16.384 25.088-27.648 27.648-11.776 3.072-25.6-4.096-38.912-10.752-10.752-5.632-24.064-12.288-29.696-9.216-5.632 3.072-6.656 18.432-7.68 30.72-1.024 15.36-2.048 30.208-10.752 38.4-8.192 8.192-23.04 8.704-38.912 9.728-12.288 0.512-27.136 1.024-30.72 6.656-3.072 5.632 3.584 18.944 8.704 29.696 6.656 13.312 13.312 27.136 10.24 38.912-3.072 10.752-15.36 18.944-28.16 27.136-10.24 6.656-23.04 15.36-23.04 22.016 0 6.656 12.8 15.36 23.04 22.016 12.8 8.192 25.088 16.384 28.16 27.136 3.072 11.264-3.584 25.088-10.24 38.912-5.12 10.752-11.776 24.576-8.704 29.696 3.072 5.632 18.432 6.144 30.72 6.656 15.36 0.512 30.208 1.536 38.4 9.728s9.216 22.528 10.752 38.4c1.024 12.288 2.048 27.136 7.68 30.72 5.632 3.072 18.944-3.584 29.696-9.216 12.288-5.632 24.064-11.264 34.304-11.264z" fill="#2B77EF" p-id="27494"></path><path d="M528.384 727.552c-14.336 0-24.064-14.848-33.792-29.184-6.144-9.728-13.824-20.48-19.456-22.016-6.656-1.536-18.432 4.608-29.184 9.728-14.848 7.68-30.72 15.872-42.496 8.704-12.288-6.656-13.312-24.576-14.848-41.472-1.024-11.776-2.048-24.576-6.144-29.184-4.608-4.608-17.92-5.12-29.696-5.632-16.896-1.024-34.816-1.536-41.984-13.824-7.168-11.776 0.512-27.648 8.192-43.008 5.12-10.752 10.752-22.528 9.216-29.184-1.536-6.144-12.288-12.8-22.016-19.456-14.336-9.728-29.696-19.456-29.696-33.792s14.848-24.064 29.696-33.792c9.728-6.144 20.48-13.312 22.016-19.456 1.536-6.144-4.096-18.432-9.216-29.184-7.168-15.36-14.848-31.232-8.192-43.008 7.168-11.776 24.576-12.8 41.984-13.824 11.776-0.512 25.088-1.024 29.696-5.632 4.608-4.608 5.632-17.408 6.144-29.184 1.024-16.896 2.56-34.816 14.848-41.472 11.776-6.656 27.648 1.024 42.496 8.704 10.752 5.632 22.528 11.264 29.184 9.728 6.144-1.536 13.312-12.288 19.456-22.016 9.728-14.336 19.456-29.184 33.792-29.184s24.064 14.848 33.792 29.184c6.144 9.728 13.824 20.48 19.456 22.016 6.656 1.536 18.432-4.608 29.184-9.728 14.848-7.68 30.72-15.872 42.496-8.704 12.288 6.656 13.312 24.576 14.848 41.472 1.024 11.776 2.048 24.576 6.144 29.184 4.608 4.608 17.92 5.12 29.696 5.632 16.896 1.024 34.816 1.536 41.984 13.824 7.168 11.776-0.512 27.648-8.192 43.008-5.12 10.752-10.752 22.528-9.216 29.184 1.536 6.144 12.288 12.8 22.016 19.456 14.336 9.728 29.696 19.456 29.696 33.792s-14.848 24.064-29.696 33.792c-9.728 6.144-20.48 13.312-22.016 19.456-1.536 6.144 4.096 18.432 9.216 29.184 7.68 15.36 15.36 31.232 8.192 43.008-7.168 11.776-24.576 12.8-41.984 13.824-11.776 0.512-25.088 1.024-29.696 5.632-4.608 4.608-5.632 17.408-6.144 29.184-1.024 16.896-2.56 34.816-14.848 41.472-11.776 6.656-27.648-1.024-42.496-8.704-10.752-5.632-22.528-11.264-29.184-9.728-6.144 1.536-13.312 12.288-19.456 22.016-9.728 13.824-19.968 29.184-33.792 29.184z m-55.808-65.536c2.048 0 4.096 0 5.632 0.512 11.264 3.072 18.944 14.848 27.648 27.648 6.656 10.24 15.36 23.04 22.016 23.04s15.36-12.8 22.016-23.04c8.704-12.8 16.384-25.088 27.648-27.648 11.776-3.072 25.6 4.096 38.912 10.752 10.752 5.632 24.064 12.288 29.184 9.216 5.632-3.072 6.656-18.432 7.68-30.72 1.024-15.36 2.048-30.208 10.752-38.4 8.192-8.192 23.04-8.704 38.912-9.728 12.288-0.512 27.136-1.024 30.72-6.656 3.072-5.632-3.072-18.944-8.704-29.696-6.656-13.312-13.312-27.136-10.24-38.912 3.072-10.752 15.36-18.944 28.16-27.136 10.24-6.656 23.04-15.36 23.04-22.016 0-6.656-12.8-15.36-23.04-22.016-12.8-8.192-25.088-16.384-28.16-27.136-3.072-11.264 3.584-25.088 10.24-38.912 5.12-10.752 11.776-24.576 8.704-29.696-3.072-5.632-18.432-6.144-30.72-6.656-15.36-0.512-30.208-1.536-38.912-9.728-8.192-8.192-9.216-22.528-10.752-38.4-1.024-12.288-2.048-27.136-7.68-30.72-5.632-3.072-18.944 3.584-29.696 9.216-13.312 6.656-27.136 13.824-38.912 10.752-11.264-3.072-18.944-14.848-27.648-27.648-6.656-10.24-15.36-23.04-22.016-23.04-6.656 0-15.36 12.8-22.016 23.04-8.704 12.8-16.384 25.088-27.648 27.648-11.776 3.072-25.6-4.096-38.912-10.752-10.752-5.632-24.064-12.288-29.696-9.216-5.632 3.072-6.656 18.432-7.68 30.72-1.024 15.36-2.048 30.208-10.752 38.4-8.192 8.192-23.04 8.704-38.912 9.728-12.288 0.512-27.136 1.024-30.72 6.656-3.072 5.632 3.584 18.944 8.704 29.696 6.656 13.312 13.312 27.136 10.24 38.912-3.072 10.752-15.36 18.944-28.16 27.136-10.24 6.656-23.04 15.36-23.04 22.016 0 6.656 12.8 15.36 23.04 22.016 12.8 8.192 25.088 16.384 28.16 27.136 3.072 11.264-3.584 25.088-10.24 38.912-5.12 10.752-11.776 24.576-8.704 29.696 3.072 5.632 18.432 6.144 30.72 6.656 15.36 0.512 30.208 1.536 38.4 9.728s9.216 22.528 10.752 38.4c1.024 12.288 2.048 27.136 7.68 30.72 5.632 3.072 18.944-3.584 29.696-9.216 12.288-5.632 24.064-11.264 34.304-11.264z" fill="#FF9F0D" p-id="27495" data-spm-anchor-id="a313x.7781069.0.i32" class=""></path><path d="M528.384 364.544c-4.096 0-8.192 0-12.288 0.512 59.392 6.144 105.472 55.296 105.472 114.688s-46.08 108.544-105.472 114.688c4.096 0.512 8.192 0.512 12.288 0.512 65.024 0 117.76-51.712 117.76-115.2s-53.248-115.2-117.76-115.2z" fill="#C7DDFF" p-id="27496"></path><path d="M528.384 602.112c-68.608 0-124.416-54.784-124.416-122.368 0-4.096 3.072-7.168 7.168-7.168s7.168 3.072 7.168 7.168c0 59.904 49.664 108.544 110.592 108.544 4.096 0 7.168 3.072 7.168 7.168-1.024 3.584-4.096 6.656-7.68 6.656z" fill="#2B77EF" p-id="27497"></path><path d="M425.984 422.4c2.56-4.096 5.12-8.192 7.68-11.776 21.504-28.16 55.808-46.592 94.208-46.592 65.024 0 117.76 51.712 117.76 115.2s-52.736 115.2-117.76 115.2-117.76-51.712-117.76-115.2c0-8.704 1.024-16.896 2.56-25.088" fill="#FFFFFF" p-id="27498" data-spm-anchor-id="a313x.7781069.0.i30" class=""></path><path d="M528.384 602.112c-68.608 0-124.416-54.784-124.416-122.368 0-8.704 1.024-17.92 3.072-26.624 1.024-3.584 4.608-6.144 8.192-5.12 3.584 1.024 6.144 4.608 5.12 8.192-1.536 7.68-2.56 15.36-2.56 23.552 0 59.904 49.664 108.544 110.592 108.544s110.592-48.64 110.592-108.544S589.312 371.2 528.384 371.2c-35.328 0-67.584 15.872-88.576 43.52-2.56 3.584-5.12 7.168-7.168 11.264-2.048 3.072-6.144 4.608-9.728 2.56s-4.608-6.144-2.56-9.728c2.56-4.096 5.12-8.704 8.192-12.288 23.552-31.232 60.416-49.152 99.84-49.152 68.608 0 124.416 54.784 124.416 122.368s-55.808 122.368-124.416 122.368z" fill="#FF9F0D" p-id="27499" data-spm-anchor-id="a313x.7781069.0.i31" class=""></path></svg>