<?xml version="1.0" standalone="no"?><!DOCTYPE svg PUBLIC "-//W3C//DTD SVG 1.1//EN" "http://www.w3.org/Graphics/SVG/1.1/DTD/svg11.dtd"><svg t="1679411753539" class="icon" viewBox="0 0 1024 1024" version="1.1" xmlns="http://www.w3.org/2000/svg" p-id="15703" data-spm-anchor-id="a313x.7781069.0.i19" xmlns:xlink="http://www.w3.org/1999/xlink" width="48" height="48"><path d="M446.1 896.3c-1.4 0-2.8-0.1-4.2-0.5-2.3-0.5-227.5-52.5-220.5-304.7 2.8-102.6 75.8-188 129.1-250.4 16.6-19.4 30.9-36.2 40.9-50.7 50.9-73.8 53.3-150.2 53.3-150.9 0.2-7.3 4.3-13.8 10.7-17.2 6.4-3.4 14.2-2.9 20.2 1.1 14.4 9.6 352.8 237 343.1 474.8-9.9 241.9-246.9 297.4-249.3 298-9.2 2-18.5-2.6-22.4-11.1-3.9-8.5-1.4-18.6 6.1-24.2 2.1-1.6 52.1-40.7 52.8-119.2 0.4-43.4-21.4-73.6-44.4-105.5-8.2-11.3-16.6-23.1-23.9-35.3-11.8-19.8-18.2-47.4-21.7-69.3-39.2 30.5-108.5 92.5-120.2 158.1-19.5 108.5 47.8 160.9 59.3 169 6.8 3.2 11.5 10.1 11.5 18 0 11-9.6 20.3-20 19.9-0.2 0.1-0.3 0.1-0.4 0.1zM532 475c3.1 0 6.3 0.7 9.1 2.2 6.3 3.3 10.5 9.7 10.8 16.8 0.7 15.9 5.7 62.3 19.9 86.1 6.4 10.7 14 21.2 22 32.4 24.6 34.1 52.5 72.8 52 129.2-0.4 37.5-9.9 67.9-21.8 91.3 62.5-31.5 149.4-99.7 155-236.8 7.3-178.9-219.4-362.5-298.5-421-6 33.3-20.6 85.7-56.2 137.4-11.2 16.2-26.1 33.7-43.4 54-52.2 61.1-117.1 137.1-119.6 225.6-3.6 128.8 59.3 196.9 113.6 231.6-17.5-33.8-29.3-80.5-18.3-141.6C376 573.4 515.3 482 521.2 478.2c3.3-2.1 7-3.2 10.8-3.2z" p-id="15704" data-spm-anchor-id="a313x.7781069.0.i18" class="" fill="#CB4239"></path></svg>