<?xml version="1.0" standalone="no"?><!DOCTYPE svg PUBLIC "-//W3C//DTD SVG 1.1//EN" "http://www.w3.org/Graphics/SVG/1.1/DTD/svg11.dtd"><svg t="1679159388948" class="icon" viewBox="0 0 1102 1024" version="1.1" xmlns="http://www.w3.org/2000/svg" p-id="2788" xmlns:xlink="http://www.w3.org/1999/xlink" width="51.65625" height="48"><path d="M127.291077 0h860.317538a107.52 107.52 0 0 1 107.559385 107.52v645.277538a107.52 107.52 0 0 1-107.52 107.52H449.890462l-215.11877 161.35877v-161.319385h-107.52a107.52 107.52 0 0 1-107.52-107.52V107.52A107.52 107.52 0 0 1 127.251692 0z m53.76 268.839385a53.76 53.76 0 0 0 0-107.52 53.76 53.76 0 0 0 0 107.52z m161.319385-107.52a53.76 53.76 0 1 0 0 107.52h322.638769a53.76 53.76 0 0 0 0-107.52H342.370462zM181.051077 699.037538a53.76 53.76 0 0 0 0-107.52 53.76 53.76 0 0 0 0 107.52z m161.319385-107.52a53.76 53.76 0 0 0 0 107.52h322.638769a53.76 53.76 0 0 0 0-107.52H342.370462z m53.76-107.559384a53.76 53.76 0 0 0 0-107.52 53.76 53.76 0 0 0 0 107.52z m161.319384-107.52a53.76 53.76 0 0 0 0 107.52h322.638769a53.76 53.76 0 0 0 0-107.52h-322.638769z" fill="#1296db" p-id="2789"></path></svg>