<svg xmlns:ev="http://www.w3.org/2001/xml-events" height="469" width="1132" viewBox="0 0 1132 469" xmlns="http://www.w3.org/2000/svg" xmlns:xlink="http://www.w3.org/1999/xlink"><defs><linearGradient gradientUnits="userSpaceOnUse" x1="113" id="lg1" y1="-25" x2="43" y2="98"><stop offset="0.00" stop-color="#bcffe4"/><stop offset="0.51" stop-color="#a6ffdd"/><stop offset="1.00" stop-color="#acfff4"/></linearGradient><linearGradient gradientUnits="userSpaceOnUse" x1="96" id="lg2" y1="-18" x2="31" y2="94"><stop offset="0.00" stop-color="#bcffe4"/><stop offset="0.51" stop-color="#a6ffdd"/><stop offset="1.00" stop-color="#acfff4"/></linearGradient><linearGradient gradientUnits="userSpaceOnUse" x1="102" id="lg3" y1="-20" x2="35" y2="96"><stop offset="0.00" stop-color="#bcffe4"/><stop offset="0.51" stop-color="#a6ffdd"/><stop offset="1.00" stop-color="#acfff4"/></linearGradient></defs><g transform="translate(5.5,5.5)" id="page1"><rect y="0" x="0" height="459" fill="none" width="1122"/><g transform="translate(38.000000,208.515750)" id="shape1"><path d="M156.0,66.0L156.0,7.0C156.0,3.1,152.9,.0,149.0,.0L7.0,.0C3.1,.0,.0,3.1,.0,7.0L.0,66.0C.0,69.9,3.1,73.0,7.0,73.0L149.0,73.0C152.9,73.0,156.0,69.9,156.0,66.0z" fill="url(#lg1)" fill-rule="nonzero"/><text style="fill:#324b4d;font-family:黑体;font-size:11.00pt;font-weight:bold" xml:space="preserve"><tspan y="28.6" x="11.8">289个典型视频样本</tspan><tspan y="48.4" x="31.3">91条弹幕样本</tspan></text></g><g transform="translate(194.000000,245.015750)" id="shape2"><path stroke-width="2" d="M.0,.0L38.5,.0" fill="none" stroke="#00adc2"/><path stroke-linecap="round" stroke-width="1" d="M38.5,-4.2L47.0,.0L38.5,4.2L38.5,-4.2" fill="#00adc2" stroke="#00adc2"/></g><g transform="translate(241.307087,207.031498)" id="shape3"><path d="M126.6,69.0L126.6,7.0C126.6,3.1,123.5,.0,119.6,.0L7.0,.0C3.1,.0,.0,3.1,.0,7.0L.0,69.0C.0,72.8,3.1,76.0,7.0,76.0L119.6,76.0C123.5,76.0,126.6,72.8,126.6,69.0z" fill="url(#lg2)" fill-rule="nonzero"/><text style="fill:#324b4d;font-family:黑体;font-size:11.00pt;font-weight:bold" xml:space="preserve"><tspan y="42.0" x="24.6">流行度计算</tspan></text></g><g transform="translate(402.000000,207.031502)" id="shape4"><path d="M126.6,69.0L126.6,7.0C126.6,3.1,123.5,.0,119.6,.0L7.0,.0C3.1,.0,.0,3.1,.0,7.0L.0,69.0C.0,72.8,3.1,76.0,7.0,76.0L119.6,76.0C123.5,76.0,126.6,72.8,126.6,69.0z" fill="url(#lg2)" fill-rule="nonzero"/><text style="fill:#324b4d;font-family:黑体;font-size:11.00pt;font-weight:bold" xml:space="preserve"><tspan y="42.0" x="32.3">情感分析</tspan></text></g><g transform="translate(367.921260,245.015750)" id="shape5"><path stroke-width="2" d="M.0,.0L26.5,.0" fill="none" stroke="#00adc2"/><path stroke-linecap="round" stroke-width="1" d="M26.5,-4.2L35.0,.0L26.5,4.2L26.5,-4.2" fill="#00adc2" stroke="#00adc2"/></g><g transform="translate(528.614000,245.015802)" id="shape6"><path stroke-width="2" d="M.0,.0L31.5,.0" fill="none" stroke="#00adc2"/><path stroke-linecap="round" stroke-width="1" d="M31.5,-4.2L40.0,.0L31.5,4.2L31.5,-4.2" fill="#00adc2" stroke="#00adc2"/></g><g transform="translate(568.079000,208.547250)" id="shape7"><path d="M126.6,69.0L126.6,7.0C126.6,3.1,123.5,.0,119.6,.0L7.0,.0C3.1,.0,.0,3.1,.0,7.0L.0,69.0C.0,72.8,3.1,76.0,7.0,76.0L119.6,76.0C123.5,76.0,126.6,72.8,126.6,69.0z" fill="url(#lg2)" fill-rule="nonzero"/><text style="fill:#324b4d;font-family:黑体;font-size:11.00pt;font-weight:bold" xml:space="preserve"><tspan y="30.1" x="24.6">影响流行度</tspan><tspan y="49.9" x="40.1">的因素</tspan></text></g><g transform="translate(694.693000,246.531500)" id="shape8"><path stroke-width="2" d="M.0,.0L55.4,-56.5" fill="none" stroke="#00adc2"/><path stroke-linecap="round" stroke-width="1" d="M52.3,-59.4L61.3,-62.5L58.4,-53.5L52.3,-59.4" fill="#00adc2" stroke="#00adc2"/></g><g transform="translate(756.000000,146.015750)" id="shape9"><path d="M126.6,69.0L126.6,7.0C126.6,3.1,123.5,.0,119.6,.0L7.0,.0C3.1,.0,.0,3.1,.0,7.0L.0,69.0C.0,72.8,3.1,76.0,7.0,76.0L119.6,76.0C123.5,76.0,126.6,72.8,126.6,69.0z" fill="url(#lg2)" fill-rule="nonzero"/><text style="fill:#324b4d;font-family:黑体;font-size:11.00pt;font-weight:bold" xml:space="preserve"><tspan y="42.0" x="32.3">回归分析</tspan></text></g><g transform="translate(756.000000,265.015750)" id="shape10"><path d="M126.6,69.0L126.6,7.0C126.6,3.1,123.5,.0,119.6,.0L7.0,.0C3.1,.0,.0,3.1,.0,7.0L.0,69.0C.0,72.8,3.1,76.0,7.0,76.0L119.6,76.0C123.5,76.0,126.6,72.8,126.6,69.0z" fill="url(#lg2)" fill-rule="nonzero"/><text style="fill:#324b4d;font-family:黑体;font-size:11.00pt;font-weight:bold" xml:space="preserve"><tspan y="42.0" x="24.6">异质性分析</tspan></text></g><g transform="translate(694.693000,246.531500)" id="shape11"><path stroke-width="2" d="M.0,.0L55.1,50.7" fill="none" stroke="#00adc2"/><path stroke-linecap="round" stroke-width="1" d="M57.9,47.6L61.3,56.5L52.2,53.8L57.9,47.6" fill="#00adc2" stroke="#00adc2"/></g><g transform="translate(957.693000,208.547250)" id="shape12"><path d="M126.6,69.0L126.6,7.0C126.6,3.1,123.5,.0,119.6,.0L7.0,.0C3.1,.0,.0,3.1,.0,7.0L.0,69.0C.0,72.8,3.1,76.0,7.0,76.0L119.6,76.0C123.5,76.0,126.6,72.8,126.6,69.0z" fill="url(#lg2)" fill-rule="nonzero"/><text style="fill:#324b4d;font-family:黑体;font-size:11.00pt;font-weight:bold" xml:space="preserve"><tspan y="42.0" x="24.6">分位数回归</tspan></text></g><g transform="translate(882.614000,184.000000)" id="shape13"><path stroke-width="2" d="M.0,.0L68.6,57.1" fill="none" stroke="#00adc2"/><path stroke-linecap="round" stroke-width="1" d="M71.3,53.8L75.1,62.5L65.8,60.4L71.3,53.8" fill="#00adc2" stroke="#00adc2"/></g><g transform="translate(882.614000,303.000050)" id="shape14"><path stroke-width="2" d="M.0,.0L68.3,-51.4" fill="none" stroke="#00adc2"/><path stroke-linecap="round" stroke-width="1" d="M65.7,-54.8L75.1,-56.5L70.8,-48.0L65.7,-54.8" fill="#00adc2" stroke="#00adc2"/></g><g transform="translate(819.307000,146.015750)" id="shape15"><path stroke-width="2" d="M.0,.0L.0,-24.5" fill="none" stroke="#00adc2"/><path stroke-linecap="round" stroke-width="1" d="M-4.2,-24.5L.0,-33.0L4.2,-24.5L-4.2,-24.5" fill="#00adc2" stroke="#00adc2"/></g><g transform="translate(756.000000,38.000000)" id="shape16"><path d="M126.6,69.0L126.6,7.0C126.6,3.1,123.5,.0,119.6,.0L7.0,.0C3.1,.0,.0,3.1,.0,7.0L.0,69.0C.0,72.8,3.1,76.0,7.0,76.0L119.6,76.0C123.5,76.0,126.6,72.8,126.6,69.0z" fill="url(#lg2)" fill-rule="nonzero"/><text style="fill:#324b4d;font-family:黑体;font-size:11.00pt;font-weight:bold" xml:space="preserve"><tspan y="42.0" x="40.1">粉丝量</tspan></text></g><g transform="translate(819.307000,146.015750)" id="shape17"><path stroke-width="2" d="M.0,.0L-138.3,-30.2" fill="none" stroke="#00adc2"/><path stroke-linecap="round" stroke-width="1" d="M-139.2,-26.1L-146.6,-32.0L-137.4,-34.4L-139.2,-26.1" fill="#00adc2" stroke="#00adc2"/></g><g transform="translate(609.386000,38.000000)" id="shape18"><path d="M126.6,69.0L126.6,7.0C126.6,3.1,123.5,.0,119.6,.0L7.0,.0C3.1,.0,.0,3.1,.0,7.0L.0,69.0C.0,72.8,3.1,76.0,7.0,76.0L119.6,76.0C123.5,76.0,126.6,72.8,126.6,69.0z" fill="url(#lg2)" fill-rule="nonzero"/><text style="fill:#324b4d;font-family:黑体;font-size:11.00pt;font-weight:bold" xml:space="preserve"><tspan y="42.0" x="24.6">弹幕情感值</tspan></text></g><g transform="translate(819.307000,146.015750)" id="shape19"><path stroke-width="2" d="M.0,.0L143.2,-30.3" fill="none" stroke="#00adc2"/><path stroke-linecap="round" stroke-width="1" d="M142.3,-34.4L151.5,-32.0L144.1,-26.1L142.3,-34.4" fill="#00adc2" stroke="#00adc2"/></g><g transform="translate(902.614000,38.000000)" id="shape20"><path d="M136.4,69.0L136.4,7.0C136.4,3.1,133.2,.0,129.4,.0L7.0,.0C3.1,.0,.0,3.1,.0,7.0L.0,69.0C.0,72.8,3.1,76.0,7.0,76.0L129.4,76.0C133.2,76.0,136.4,72.8,136.4,69.0z" fill="url(#lg3)" fill-rule="nonzero"/><text style="fill:#324b4d;font-family:黑体;font-size:11.00pt;font-weight:bold" xml:space="preserve"><tspan y="42.0" x="13.7">UP主累计获赞数</tspan></text></g><g transform="translate(819.307000,340.984250)" id="shape21"><path stroke-width="2" d="M.0,.0L-75.7,38.2" fill="none" stroke="#00adc2"/><path stroke-linecap="round" stroke-width="1" d="M-73.8,42.0L-83.3,42.0L-77.6,34.4L-73.8,42.0" fill="#00adc2" stroke="#00adc2"/></g><g transform="translate(609.386000,345.031500)" id="shape22"><path d="M126.6,69.0L126.6,7.0C126.6,3.1,123.5,.0,119.6,.0L7.0,.0C3.1,.0,.0,3.1,.0,7.0L.0,69.0C.0,72.8,3.1,76.0,7.0,76.0L119.6,76.0C123.5,76.0,126.6,72.8,126.6,69.0z" fill="url(#lg2)" fill-rule="nonzero"/><text style="fill:#324b4d;font-family:黑体;font-size:11.00pt;font-weight:bold" xml:space="preserve"><tspan y="42.0" x="32.3">视频分区</tspan></text></g><g transform="translate(819.307000,340.984250)" id="shape23"><path stroke-width="2" d="M.0,.0L75.7,38.2" fill="none" stroke="#00adc2"/><path stroke-linecap="round" stroke-width="1" d="M77.6,34.4L83.3,42.0L73.8,42.0L77.6,34.4" fill="#00adc2" stroke="#00adc2"/></g><g transform="translate(902.614000,345.031500)" id="shape24"><path d="M126.6,69.0L126.6,7.0C126.6,3.1,123.5,.0,119.6,.0L7.0,.0C3.1,.0,.0,3.1,.0,7.0L.0,69.0C.0,72.8,3.1,76.0,7.0,76.0L119.6,76.0C123.5,76.0,126.6,72.8,126.6,69.0z" fill="url(#lg2)" fill-rule="nonzero"/><text style="fill:#324b4d;font-family:黑体;font-size:11.00pt;font-weight:bold" xml:space="preserve"><tspan y="42.0" x="40.1">粉丝量</tspan></text></g></g></svg>