<svg width="1132" height="469" viewBox="0 0 1132 469" xmlns:ev="http://www.w3.org/2001/xml-events" xmlns="http://www.w3.org/2000/svg" xmlns:xlink="http://www.w3.org/1999/xlink"><defs><linearGradient x1="113" x2="43" id="lg1" y1="-25" gradientUnits="userSpaceOnUse" y2="98"><stop stop-color="#c0fff6" offset="0.01" stop-opacity="0.30"/><stop stop-color="#b9ffe3" offset="0.51" stop-opacity="0.60"/><stop stop-color="#bcffe4" offset="0.99"/></linearGradient><linearGradient x1="96" x2="31" id="lg2" y1="-18" gradientUnits="userSpaceOnUse" y2="94"><stop stop-color="#c0fff6" offset="0.01" stop-opacity="0.30"/><stop stop-color="#b9ffe3" offset="0.51" stop-opacity="0.60"/><stop stop-color="#bcffe4" offset="0.99"/></linearGradient><linearGradient x1="102" x2="35" id="lg3" y1="-20" gradientUnits="userSpaceOnUse" y2="96"><stop stop-color="#c0fff6" offset="0.01" stop-opacity="0.30"/><stop stop-color="#b9ffe3" offset="0.51" stop-opacity="0.60"/><stop stop-color="#bcffe4" offset="0.99"/></linearGradient></defs><g id="page1" transform="translate(5.5,5.5)"><rect fill="none" y="0" width="1122" height="459" x="0"/><g id="shape1" transform="translate(38.000000,208.516000)"><path fill="url(#lg1)" fill-rule="nonzero" d="M156.0,66.0L156.0,7.0C156.0,3.1,152.9,.0,149.0,.0L7.0,.0C3.1,.0,.0,3.1,.0,7.0L.0,66.0C.0,69.9,3.1,73.0,7.0,73.0L149.0,73.0C152.9,73.0,156.0,69.9,156.0,66.0z"/><text xml:space="preserve" style="fill:#324b4d;font-family:黑体;font-size:11.00pt;font-weight:bold"><tspan y="38.8" x="16.0">选取典型视频样本</tspan></text></g><g id="shape2" transform="translate(194.000000,245.016000)"><path fill="none" stroke-dasharray="2.5,2.5" stroke="#00adc2" stroke-width="1.333333373069763" d="M.0,.0L47.0,.0"/><path fill="none" stroke-linecap="round" stroke-linejoin="round" stroke="#00adc2" stroke-width="1.33333" d="M40.1,-3.5L47.0,.0L40.1,3.5"/></g><g id="shape3" transform="translate(241.306900,207.031700)"><path fill="url(#lg2)" fill-rule="nonzero" d="M126.6,69.0L126.6,7.0C126.6,3.1,123.5,.0,119.6,.0L7.0,.0C3.1,.0,.0,3.1,.0,7.0L.0,69.0C.0,72.8,3.1,76.0,7.0,76.0L119.6,76.0C123.5,76.0,126.6,72.8,126.6,69.0z"/><text xml:space="preserve" style="fill:#324b4d;font-family:黑体;font-size:11.00pt;font-weight:bold"><tspan y="42.0" x="24.6">流行度计算</tspan></text></g><g id="shape4" transform="translate(401.999900,207.031700)"><path fill="url(#lg2)" fill-rule="nonzero" d="M126.6,69.0L126.6,7.0C126.6,3.1,123.5,.0,119.6,.0L7.0,.0C3.1,.0,.0,3.1,.0,7.0L.0,69.0C.0,72.8,3.1,76.0,7.0,76.0L119.6,76.0C123.5,76.0,126.6,72.8,126.6,69.0z"/><text xml:space="preserve" style="fill:#324b4d;font-family:黑体;font-size:11.00pt;font-weight:bold"><tspan y="42.0" x="32.3">情感分析</tspan></text></g><g id="shape5" transform="translate(367.920900,245.016000)"><path fill="none" stroke-dasharray="2.5,2.5" stroke="#00adc2" stroke-width="1.333333373069763" d="M.0,.0L35.0,.0"/><path fill="none" stroke-linecap="round" stroke-linejoin="round" stroke="#00adc2" stroke-width="1.33333" d="M28.1,-3.5L35.0,.0L28.1,3.5"/></g><g id="shape6" transform="translate(528.614000,245.016000)"><path fill="none" stroke-dasharray="2.5,2.5" stroke="#00adc2" stroke-width="1.333333373069763" d="M.0,.0L40.0,.0"/><path fill="none" stroke-linecap="round" stroke-linejoin="round" stroke="#00adc2" stroke-width="1.33333" d="M33.1,-3.5L40.0,.0L33.1,3.5"/></g><g id="shape7" transform="translate(568.079000,208.546700)"><path fill="url(#lg2)" fill-rule="nonzero" d="M126.6,69.0L126.6,7.0C126.6,3.1,123.5,.0,119.6,.0L7.0,.0C3.1,.0,.0,3.1,.0,7.0L.0,69.0C.0,72.8,3.1,76.0,7.0,76.0L119.6,76.0C123.5,76.0,126.6,72.8,126.6,69.0z"/><text xml:space="preserve" style="fill:#324b4d;font-family:黑体;font-size:11.00pt;font-weight:bold"><tspan y="30.1" x="24.6">影响流行度</tspan><tspan y="49.9" x="40.1">的因素</tspan></text></g><g id="shape8" transform="translate(694.693000,246.531000)"><path fill="none" stroke-dasharray="2.5,2.5" stroke="#00adc2" stroke-width="1.333333373069763" d="M.0,.0L61.3,-62.5"/><path fill="none" stroke-linecap="round" stroke-linejoin="round" stroke="#00adc2" stroke-width="1.33333" d="M54.0,-60.0L61.3,-62.5L58.9,-55.2"/></g><g id="shape9" transform="translate(756.000000,146.015700)"><path fill="url(#lg2)" fill-rule="nonzero" d="M126.6,69.0L126.6,7.0C126.6,3.1,123.5,.0,119.6,.0L7.0,.0C3.1,.0,.0,3.1,.0,7.0L.0,69.0C.0,72.8,3.1,76.0,7.0,76.0L119.6,76.0C123.5,76.0,126.6,72.8,126.6,69.0z"/><text xml:space="preserve" style="fill:#324b4d;font-family:黑体;font-size:11.00pt;font-weight:bold"><tspan y="42.0" x="32.3">回归分析</tspan></text></g><g id="shape10" transform="translate(756.000000,265.015700)"><path fill="url(#lg2)" fill-rule="nonzero" d="M126.6,69.0L126.6,7.0C126.6,3.1,123.5,.0,119.6,.0L7.0,.0C3.1,.0,.0,3.1,.0,7.0L.0,69.0C.0,72.8,3.1,76.0,7.0,76.0L119.6,76.0C123.5,76.0,126.6,72.8,126.6,69.0z"/><text xml:space="preserve" style="fill:#324b4d;font-family:黑体;font-size:11.00pt;font-weight:bold"><tspan y="42.0" x="24.6">异质性分析</tspan></text></g><g id="shape11" transform="translate(694.693000,246.531000)"><path fill="none" stroke-dasharray="2.5,2.5" stroke="#00adc2" stroke-width="1.333333373069763" d="M.0,.0L61.3,56.5"/><path fill="none" stroke-linecap="round" stroke-linejoin="round" stroke="#00adc2" stroke-width="1.33333" d="M58.6,49.2L61.3,56.5L53.9,54.3"/></g><g id="shape12" transform="translate(957.693000,208.546700)"><path fill="url(#lg2)" fill-rule="nonzero" d="M126.6,69.0L126.6,7.0C126.6,3.1,123.5,.0,119.6,.0L7.0,.0C3.1,.0,.0,3.1,.0,7.0L.0,69.0C.0,72.8,3.1,76.0,7.0,76.0L119.6,76.0C123.5,76.0,126.6,72.8,126.6,69.0z"/><text xml:space="preserve" style="fill:#324b4d;font-family:黑体;font-size:11.00pt;font-weight:bold"><tspan y="42.0" x="24.6">分位数回归</tspan></text></g><g id="shape13" transform="translate(882.614000,184.000000)"><path fill="none" stroke-dasharray="2.5,2.5" stroke="#00adc2" stroke-width="1.333333373069763" d="M.0,.0L75.1,62.5"/><path fill="none" stroke-linecap="round" stroke-linejoin="round" stroke="#00adc2" stroke-width="1.33333" d="M72.0,55.4L75.1,62.5L67.5,60.8"/></g><g id="shape14" transform="translate(882.614000,303.000000)"><path fill="none" stroke-dasharray="2.5,2.5" stroke="#00adc2" stroke-width="1.333333373069763" d="M.0,.0L75.1,-56.5"/><path fill="none" stroke-linecap="round" stroke-linejoin="round" stroke="#00adc2" stroke-width="1.33333" d="M67.5,-55.1L75.1,-56.5L71.6,-49.5"/></g><g id="shape15" transform="translate(819.307000,146.016000)"><path fill="none" stroke-dasharray="2.5,2.5" stroke="#00adc2" stroke-width="1.333333373069763" d="M.0,.0L.0,-33.0"/><path fill="none" stroke-linecap="round" stroke-linejoin="round" stroke="#00adc2" stroke-width="1.33333" d="M-3.5,-26.1L.0,-33.0L3.5,-26.1"/></g><g id="shape16" transform="translate(756.000000,38.000000)"><path fill="url(#lg2)" fill-rule="nonzero" d="M126.6,69.0L126.6,7.0C126.6,3.1,123.5,.0,119.6,.0L7.0,.0C3.1,.0,.0,3.1,.0,7.0L.0,69.0C.0,72.8,3.1,76.0,7.0,76.0L119.6,76.0C123.5,76.0,126.6,72.8,126.6,69.0z"/><text xml:space="preserve" style="fill:#324b4d;font-family:黑体;font-size:11.00pt;font-weight:bold"><tspan y="42.0" x="40.1">粉丝量</tspan></text></g><g id="shape17" transform="translate(819.307000,146.016000)"><path fill="none" stroke-dasharray="2.5,2.5" stroke="#00adc2" stroke-width="1.333333373069763" d="M.0,.0L-146.6,-32.0"/><path fill="none" stroke-linecap="round" stroke-linejoin="round" stroke="#00adc2" stroke-width="1.33333" d="M-140.6,-27.2L-146.6,-32.0L-139.1,-34.0"/></g><g id="shape18" transform="translate(609.386000,38.000000)"><path fill="url(#lg2)" fill-rule="nonzero" d="M126.6,69.0L126.6,7.0C126.6,3.1,123.5,.0,119.6,.0L7.0,.0C3.1,.0,.0,3.1,.0,7.0L.0,69.0C.0,72.8,3.1,76.0,7.0,76.0L119.6,76.0C123.5,76.0,126.6,72.8,126.6,69.0z"/><text xml:space="preserve" style="fill:#324b4d;font-family:黑体;font-size:11.00pt;font-weight:bold"><tspan y="42.0" x="24.6">弹幕情感值</tspan></text></g><g id="shape19" transform="translate(819.307000,146.016000)"><path fill="none" stroke-dasharray="2.5,2.5" stroke="#00adc2" stroke-width="1.333333373069763" d="M.0,.0L151.5,-32.0"/><path fill="none" stroke-linecap="round" stroke-linejoin="round" stroke="#00adc2" stroke-width="1.33333" d="M144.0,-34.0L151.5,-32.0L145.4,-27.2"/></g><g id="shape20" transform="translate(902.614000,38.000000)"><path fill="url(#lg3)" fill-rule="nonzero" d="M136.4,69.0L136.4,7.0C136.4,3.1,133.3,.0,129.4,.0L7.0,.0C3.1,.0,.0,3.1,.0,7.0L.0,69.0C.0,72.8,3.1,76.0,7.0,76.0L129.4,76.0C133.3,76.0,136.4,72.8,136.4,69.0z"/><text xml:space="preserve" style="fill:#324b4d;font-family:黑体;font-size:11.00pt;font-weight:bold"><tspan y="42.0" x="13.7">UP主累计获赞数</tspan></text></g><g id="shape21" transform="translate(819.307000,340.984000)"><path fill="none" stroke-dasharray="2.5,2.5" stroke="#00adc2" stroke-width="1.333333373069763" d="M.0,.0L-83.3,42.0"/><path fill="none" stroke-linecap="round" stroke-linejoin="round" stroke="#00adc2" stroke-width="1.33333" d="M-75.6,42.0L-83.3,42.0L-78.7,35.8"/></g><g id="shape22" transform="translate(609.386000,345.031700)"><path fill="url(#lg2)" fill-rule="nonzero" d="M126.6,69.0L126.6,7.0C126.6,3.1,123.5,.0,119.6,.0L7.0,.0C3.1,.0,.0,3.1,.0,7.0L.0,69.0C.0,72.8,3.1,76.0,7.0,76.0L119.6,76.0C123.5,76.0,126.6,72.8,126.6,69.0z"/><text xml:space="preserve" style="fill:#324b4d;font-family:黑体;font-size:11.00pt;font-weight:bold"><tspan y="42.0" x="32.3">视频分区</tspan></text></g><g id="shape23" transform="translate(819.307000,340.984000)"><path fill="none" stroke-dasharray="2.5,2.5" stroke="#00adc2" stroke-width="0.6666666865348816" d="M.0,.0L83.3,42.0"/><path fill="none" stroke-linecap="round" stroke-linejoin="round" stroke="#00adc2" stroke-width="0.666667" d="M79.3,36.7L83.3,42.0L76.6,42.0"/></g><g id="shape24" transform="translate(902.614000,345.031700)"><path fill="url(#lg2)" fill-rule="nonzero" d="M126.6,69.0L126.6,7.0C126.6,3.1,123.5,.0,119.6,.0L7.0,.0C3.1,.0,.0,3.1,.0,7.0L.0,69.0C.0,72.8,3.1,76.0,7.0,76.0L119.6,76.0C123.5,76.0,126.6,72.8,126.6,69.0z"/><text xml:space="preserve" style="fill:#324b4d;font-family:黑体;font-size:11.00pt;font-weight:bold"><tspan y="42.0" x="40.1">粉丝量</tspan></text></g></g></svg>