<?xml version="1.0" standalone="no"?><!DOCTYPE svg PUBLIC "-//W3C//DTD SVG 1.1//EN" "http://www.w3.org/Graphics/SVG/1.1/DTD/svg11.dtd"><svg t="1680147469574" class="icon" viewBox="0 0 1024 1024" version="1.1" xmlns="http://www.w3.org/2000/svg" p-id="15677" xmlns:xlink="http://www.w3.org/1999/xlink" width="48" height="48"><path d="M508.5 542.7c51.7-37.4 85.8-97.8 85.8-166.4 0-113.4-92.3-205.6-205.6-205.6S183 262.9 183 376.3c0 68.6 34.1 129 85.8 166.4C160.9 589.2 85.2 696.6 85.2 821.4c0 17.7 14.3 32 32 32s32-14.3 32-32c0-132 107.4-239.5 239.5-239.5s239.5 107.4 239.5 239.5c0 17.7 14.3 32 32 32s32-14.3 32-32c0-124.8-75.8-232.2-183.7-278.7zM247 376.3c0-78.1 63.5-141.6 141.6-141.6s141.6 63.5 141.6 141.6-63.5 141.6-141.6 141.6S247 454.4 247 376.3z" fill="#00A5E6" p-id="15678" data-spm-anchor-id="a313x.7781069.0.i13" class=""></path><path d="M907.5 235.1H694.2c-17.7 0-32-14.3-32-32s14.3-32 32-32h213.3c17.7 0 32 14.3 32 32s-14.3 32-32 32zM907.5 363.1H694.2c-17.7 0-32-14.3-32-32s14.3-32 32-32h213.3c17.7 0 32 14.3 32 32s-14.3 32-32 32zM907.5 491.1H694.2c-17.7 0-32-14.3-32-32s14.3-32 32-32h213.3c17.7 0 32 14.3 32 32s-14.3 32-32 32z" fill="#00C5EA" p-id="15679" data-spm-anchor-id="a313x.7781069.0.i14" class=""></path></svg>