<?xml version="1.0" standalone="no"?><!DOCTYPE svg PUBLIC "-//W3C//DTD SVG 1.1//EN" "http://www.w3.org/Graphics/SVG/1.1/DTD/svg11.dtd"><svg t="1679369036064" class="icon" viewBox="0 0 1025 1024" version="1.1" xmlns="http://www.w3.org/2000/svg" p-id="9593" xmlns:xlink="http://www.w3.org/1999/xlink" width="48.046875" height="48"><path d="M512.52873 1023.950682a140.273926 140.273926 0 0 1-139.761977-136.519636H649.048366a135.15444 135.15444 0 0 1-38.908096 97.61154A133.277295 133.277295 0 0 1 512.52873 1023.950682z" fill="#FDB400" p-id="9594"></path><path d="M823.281552 442.206384V682.651593a126.792612 126.792612 0 0 0 35.665754 87.031267l32.252764 32.423414 1.365197 1.365196a51.194863 51.194863 0 0 1-37.884199 85.324773H169.523145a51.194863 51.194863 0 0 1-38.396147-85.324773l1.877145-1.365196 32.252764-32.423414a123.038322 123.038322 0 0 0 35.665755-87.031267V442.206384a362.971582 362.971582 0 0 1 62.287083-211.434786 280.035903 280.035903 0 0 1 170.649545-116.21234V78.040255a79.863987 79.863987 0 0 1 21.501843-54.778504A72.696706 72.696706 0 0 1 511.334184 0.053413a71.33151 71.33151 0 0 1 55.461102 23.208338 75.0858 75.0858 0 0 1 21.672492 54.778504v36.519003a280.718501 280.718501 0 0 1 170.649545 116.21234 350.684815 350.684815 0 0 1 64.164229 211.434786z" fill="#FFDA2D" p-id="9595"></path><path d="M921.063741 372.58137a412.801249 412.801249 0 0 0-136.519636-255.974318 51.194863 51.194863 0 0 1-2.559743-73.891252 51.194863 51.194863 0 0 1 71.502159 0A511.948634 511.948634 0 0 1 1024.477365 358.417457a51.194863 51.194863 0 0 1-51.194863 59.044743h-2.559744a51.194863 51.194863 0 0 1-49.659017-44.88083zM239.489459 117.801599a407.169814 407.169814 0 0 0-136.519636 254.779771 51.194863 51.194863 0 0 1-51.194864 43.174335 51.194863 51.194863 0 0 1-51.194863-58.874093A509.047592 509.047592 0 0 1 171.229641 42.3745a52.56006 52.56006 0 0 1 71.502159 0A51.194863 51.194863 0 0 1 239.489459 117.801599zM662.52968 440.329239L445.12216 673.607167a12.286767 12.286767 0 0 1-18.259501 0 14.163912 14.163912 0 0 1-2.901042-14.163912l44.88083-132.594697h-96.758292a13.140015 13.140015 0 0 1-12.798716-13.651963 14.163912 14.163912 0 0 1 3.75429-9.727024l191.980738-205.974001a12.116118 12.116118 0 0 1 18.088852 0 14.505211 14.505211 0 0 1 3.412991 12.628066l-22.184441 106.655966h99.318035a13.310664 13.310664 0 0 1 12.798716 13.651963 14.163912 14.163912 0 0 1-3.75429 9.727024z" fill="#FDB400" p-id="9596"></path><path d="M853.82782 889.478841H649.048366a134.642491 134.642491 0 0 1-38.737446 95.563745A133.277295 133.277295 0 0 1 512.52873 1023.950682V0.053413a70.990211 70.990211 0 0 1 54.607855 23.208338 75.0858 75.0858 0 0 1 21.672492 54.778504v36.519003a280.718501 280.718501 0 0 1 170.649545 116.21234 350.684815 350.684815 0 0 1 63.993579 211.434786V682.651593a126.792612 126.792612 0 0 0 35.665755 87.031267l31.740815 32.423414 1.365197 1.365196A51.194863 51.194863 0 0 1 853.82782 889.478841zM1024.477365 358.417457A511.948634 511.948634 0 0 0 853.82782 42.3745a51.194863 51.194863 0 0 0-71.33151 0A51.194863 51.194863 0 0 0 785.568002 117.119001a413.483847 413.483847 0 0 1 136.519636 255.974317 51.194863 51.194863 0 0 0 49.829667 44.027583H973.282502A52.218761 52.218761 0 0 0 1024.477365 358.417457z" opacity=".5" p-id="9597" data-spm-anchor-id="a313x.7781069.0.i9" class="" fill="#FF9F0D"></path></svg>