<?xml version="1.0" standalone="no"?><!DOCTYPE svg PUBLIC "-//W3C//DTD SVG 1.1//EN" "http://www.w3.org/Graphics/SVG/1.1/DTD/svg11.dtd"><svg t="1680138102148" class="icon" viewBox="0 0 1024 1024" version="1.1" xmlns="http://www.w3.org/2000/svg" p-id="7044" xmlns:xlink="http://www.w3.org/1999/xlink" width="48" height="48"><path d="M822.4 121.6H211.2c-76.8 0-137.6 60.8-137.6 137.6V704c0 76.8 60.8 137.6 137.6 137.6h166.4s112 51.2 153.6 76.8c12.8 6.4 44.8 19.2 64-9.6 25.6-51.2-22.4-67.2-22.4-67.2s-92.8-44.8-112-54.4-44.8-28.8-83.2-28.8H211.2s-57.6-6.4-57.6-54.4V259.2S160 204.8 211.2 204.8h611.2s54.4 0 54.4 54.4V704s0 54.4-54.4 54.4h-137.6c-28.8 0-54.4 0-54.4 41.6s28.8 41.6 54.4 41.6h137.6c76.8 0 137.6-60.8 137.6-137.6V259.2c0-76.8-60.8-137.6-137.6-137.6zM265.6 483.2c0 32 25.6 54.4 54.4 54.4s54.4-25.6 54.4-54.4c0-32-25.6-54.4-54.4-54.4s-54.4 22.4-54.4 54.4z m195.2 0c0 32 25.6 54.4 54.4 54.4 32 0 54.4-25.6 54.4-54.4 0-32-25.6-54.4-54.4-54.4-28.8-3.2-54.4 22.4-54.4 54.4z m304 0c0-32-25.6-54.4-54.4-54.4-32 0-54.4 25.6-54.4 54.4 0 32 25.6 54.4 54.4 54.4 28.8 0 54.4-25.6 54.4-54.4z" p-id="7045" fill="#498FC8"></path></svg>