<?xml version="1.0" standalone="no"?><!DOCTYPE svg PUBLIC "-//W3C//DTD SVG 1.1//EN" "http://www.w3.org/Graphics/SVG/1.1/DTD/svg11.dtd"><svg t="1680023174003" class="icon" viewBox="0 0 1024 1024" version="1.1" xmlns="http://www.w3.org/2000/svg" p-id="5924" xmlns:xlink="http://www.w3.org/1999/xlink" width="48" height="48"><path d="M591.867916 4.820439l1.996783 1.382388c9.881516 5.785551 15.359869 14.233479 16.947056 23.961397l0.511996 5.88795 0.307197 76.031353 0.614395 33.126119 1.023991 30.054144 1.433588 27.238169 2.047983 24.72939c4.147165 43.212433 11.366303 75.160961 23.244602 104.139914l5.171156 11.7759 4.249564-9.215921c25.958179-52.684352 74.648965-94.411997 144.894769-118.526993l15.462268-4.915158 16.076663-4.351963c12.595093-3.737568 24.882988-1.023991 36.966086 6.143948a33.382116 33.382116 0 0 1 17.510251 29.798146c0 70.962597 14.07988 114.994223 53.298747 193.329557 35.634897 69.119412 39.167667 117.758999 39.167667 174.180919C972.792678 844.646901 766.919228 1023.998976 502.268678 1023.998976c-127.384517 0.204798-239.97236-33.996511-330.032395-113.253437-90.111234-79.308126-121.240569-186.878412-121.035771-299.005459 0-106.495095 35.532498-225.790081 125.694932-273.149678l16.895856-8.345529c7.833533-3.379171 14.950273-3.379171 24.422192-1.17759l7.679935 2.047983 4.044766 1.689585c9.932716 5.88795 17.151854 14.438277 19.148637 23.039804l2.047983 15.155072 2.662377 14.233479 1.843184 8.396728 4.556762 18.329444 5.375954 18.278245 2.047982 5.88795 0.358397-14.899073C274.072218 218.629822 327.93416 91.347704 522.03171 14.957953l18.022247-6.809542 16.742257-5.88795c11.827099-3.48157 25.190186-3.174373 34.969303 2.508778l0.102399 0.0512z m-68.965813 88.063251l-4.607961 2.252781C363.364259 170.502231 329.009351 289.080423 337.35488 505.142586l0.153598 13.209488 0.767994 27.852563v15.974264l-0.511996 7.423937-0.511995 3.430371c-0.204798 14.438277-10.854308 27.135769-26.418976 31.590132-13.772683 4.095965-28.978954 2.252781-40.959652-4.915159-47.513196-35.071702-67.839423-90.316032-88.984843-160.869032l-2.047983-7.167939-7.06554 7.884733c-33.791713 39.423665-36.095693 105.163906-39.167667 158.872249l-0.409596 13.311887c-0.307197 92.671212 22.067012 181.604856 96.511179 247.0891 74.444167 65.535443 165.88659 91.954418 271.152895 91.74962 105.266305 0.204798 206.334246-36.50529 280.778414-101.989533 74.444167-65.535443 106.495095-144.177974 106.187897-236.797987 0-35.583698 11.161505-74.853764-9.881516-117.400602l-26.930971-52.94035c-23.5518-47.820394-37.529281-85.503273-44.390023-127.845314l-2.047982-16.025463-2.969575 1.382388c-31.231735 15.103872-65.330645 39.065268-78.949729 68.044221l-4.198364 9.47192c-8.703926 22.527809-11.929499 46.489205-9.523119 70.245803 4.71036 16.691058-8.19193 35.686097-23.756598 38.75807-17.305453 7.679935-38.399674 3.430371-50.175574-10.188713-68.453818-70.297002-96.255182-134.962053-106.239097-253.847442l-2.30398-33.791713-1.535987-36.863687a2073.428776 2073.428776 0 0 1-0.511996-19.455834l-0.511995-38.399674v-0.0512z" fill="#FFA495" p-id="5925"></path></svg>