<?xml version="1.0" standalone="no"?><!DOCTYPE svg PUBLIC "-//W3C//DTD SVG 1.1//EN" "http://www.w3.org/Graphics/SVG/1.1/DTD/svg11.dtd"><svg t="1680139673076" class="icon" viewBox="0 0 1024 1024" version="1.1" xmlns="http://www.w3.org/2000/svg" p-id="10365" xmlns:xlink="http://www.w3.org/1999/xlink" width="48" height="48"><path d="M439.466667 171.52c-133.090645 0-240.981333 107.890688-240.981333 240.981333 0 133.090645 107.890688 240.981333 240.981333 240.981333 133.090645 0 240.981333-107.890688 240.981333-240.981333C680.448 279.410688 572.557312 171.52 439.466667 171.52zM439.466667 624.128c-116.877995 0-211.626667-94.747989-211.626667-211.626667 0-116.877995 94.748672-211.626667 211.626667-211.626667 116.878677 0 211.626667 94.748672 211.626667 211.626667C651.093333 529.380011 556.345344 624.128 439.466667 624.128z" fill="#00A5E6" p-id="10366"></path><path d="M418.450773 335.730005l42.031104 0 0 224.739328-42.031104 0 0-224.739328Z" fill="#00A5E6" p-id="10367"></path><path d="M418.450773 264.533333l42.031104 0 0 39.458133-42.031104 0 0-39.458133Z" fill="#00A5E6" p-id="10368"></path></svg>