<?xml version="1.0" standalone="no"?><!DOCTYPE svg PUBLIC "-//W3C//DTD SVG 1.1//EN" "http://www.w3.org/Graphics/SVG/1.1/DTD/svg11.dtd"><svg t="1679333700040" class="icon" viewBox="0 0 1024 1024" version="1.1" xmlns="http://www.w3.org/2000/svg" p-id="17752" xmlns:xlink="http://www.w3.org/1999/xlink" width="48" height="48"><path d="M348.672 512A34.88 34.88 0 0 1 418.56 512v175.552a34.88 34.88 0 0 1-69.76 0V512z m279.296 0a34.88 34.88 0 0 1 69.76 0v175.552a34.88 34.88 0 0 1-69.76 0V512zM424.576 230.144a34.88 34.88 0 1 1-46.976 51.712L198.528 118.912a34.88 34.88 0 1 1 46.976-51.648l179.072 162.88z m344-163.2a34.88 34.88 0 0 1 46.336 52.224l-101.568 90.24H768a232.704 232.704 0 0 1 232.704 232.768v290.944A232.704 232.704 0 0 1 768 965.76H256a232.704 232.704 0 0 1-232.704-232.704V442.176A232.704 232.704 0 0 1 256 209.472h352.192zM768 302.592H256A139.648 139.648 0 0 0 116.352 442.24v290.944c0 77.12 62.528 139.584 139.648 139.584h512a139.648 139.648 0 0 0 139.648-139.584V442.176A139.648 139.648 0 0 0 768 302.528z" fill="#498FC8" p-id="17753"></path></svg>